G04 #@! TF.GenerationSoftware,KiCad,Pcbnew,9.0.7*
G04 #@! TF.CreationDate,2026-05-03T16:13:46+08:00*
G04 #@! TF.ProjectId,Production_MCU_LORA_2_in_1,50726f64-7563-4746-996f-6e5f4d43555f,rev?*
G04 #@! TF.SameCoordinates,Original*
G04 #@! TF.FileFunction,Profile,NP*
%FSLAX46Y46*%
G04 Gerber Fmt 4.6, Leading zero omitted, Abs format (unit mm)*
G04 Created by KiCad (PCBNEW 9.0.7) date 2026-05-03 16:13:46*
%MOMM*%
%LPD*%
G01*
G04 APERTURE LIST*
%ADD10C,0.150000*%
G04 #@! TA.AperFunction,Profile*
%ADD11C,1.000000*%
G04 #@! TD*
G04 #@! TA.AperFunction,Profile*
%ADD12C,0.050000*%
G04 #@! TD*
G04 APERTURE END LIST*
D10*
X205853922Y-59521443D02*
X206187255Y-60521443D01*
X206187255Y-60521443D02*
X206520588Y-59521443D01*
X206853922Y-60140490D02*
X207615827Y-60140490D01*
X208663445Y-60426204D02*
X208615826Y-60473824D01*
X208615826Y-60473824D02*
X208472969Y-60521443D01*
X208472969Y-60521443D02*
X208377731Y-60521443D01*
X208377731Y-60521443D02*
X208234874Y-60473824D01*
X208234874Y-60473824D02*
X208139636Y-60378585D01*
X208139636Y-60378585D02*
X208092017Y-60283347D01*
X208092017Y-60283347D02*
X208044398Y-60092871D01*
X208044398Y-60092871D02*
X208044398Y-59950014D01*
X208044398Y-59950014D02*
X208092017Y-59759538D01*
X208092017Y-59759538D02*
X208139636Y-59664300D01*
X208139636Y-59664300D02*
X208234874Y-59569062D01*
X208234874Y-59569062D02*
X208377731Y-59521443D01*
X208377731Y-59521443D02*
X208472969Y-59521443D01*
X208472969Y-59521443D02*
X208615826Y-59569062D01*
X208615826Y-59569062D02*
X208663445Y-59616681D01*
X209092017Y-59521443D02*
X209092017Y-60330966D01*
X209092017Y-60330966D02*
X209139636Y-60426204D01*
X209139636Y-60426204D02*
X209187255Y-60473824D01*
X209187255Y-60473824D02*
X209282493Y-60521443D01*
X209282493Y-60521443D02*
X209472969Y-60521443D01*
X209472969Y-60521443D02*
X209568207Y-60473824D01*
X209568207Y-60473824D02*
X209615826Y-60426204D01*
X209615826Y-60426204D02*
X209663445Y-60330966D01*
X209663445Y-60330966D02*
X209663445Y-59521443D01*
X209996779Y-59521443D02*
X210568207Y-59521443D01*
X210282493Y-60521443D02*
X210282493Y-59521443D01*
X205663922Y-127809819D02*
X205997255Y-128809819D01*
X205997255Y-128809819D02*
X206330588Y-127809819D01*
X206663922Y-128428866D02*
X207425827Y-128428866D01*
X208473445Y-128714580D02*
X208425826Y-128762200D01*
X208425826Y-128762200D02*
X208282969Y-128809819D01*
X208282969Y-128809819D02*
X208187731Y-128809819D01*
X208187731Y-128809819D02*
X208044874Y-128762200D01*
X208044874Y-128762200D02*
X207949636Y-128666961D01*
X207949636Y-128666961D02*
X207902017Y-128571723D01*
X207902017Y-128571723D02*
X207854398Y-128381247D01*
X207854398Y-128381247D02*
X207854398Y-128238390D01*
X207854398Y-128238390D02*
X207902017Y-128047914D01*
X207902017Y-128047914D02*
X207949636Y-127952676D01*
X207949636Y-127952676D02*
X208044874Y-127857438D01*
X208044874Y-127857438D02*
X208187731Y-127809819D01*
X208187731Y-127809819D02*
X208282969Y-127809819D01*
X208282969Y-127809819D02*
X208425826Y-127857438D01*
X208425826Y-127857438D02*
X208473445Y-127905057D01*
X208902017Y-127809819D02*
X208902017Y-128619342D01*
X208902017Y-128619342D02*
X208949636Y-128714580D01*
X208949636Y-128714580D02*
X208997255Y-128762200D01*
X208997255Y-128762200D02*
X209092493Y-128809819D01*
X209092493Y-128809819D02*
X209282969Y-128809819D01*
X209282969Y-128809819D02*
X209378207Y-128762200D01*
X209378207Y-128762200D02*
X209425826Y-128714580D01*
X209425826Y-128714580D02*
X209473445Y-128619342D01*
X209473445Y-128619342D02*
X209473445Y-127809819D01*
X209806779Y-127809819D02*
X210378207Y-127809819D01*
X210092493Y-128809819D02*
X210092493Y-127809819D01*
D11*
X204242575Y-60651624D02*
X67239959Y-60651624D01*
X204242616Y-128650000D02*
X67240000Y-128650000D01*
D12*
X67241204Y-54650000D02*
X204242575Y-54650000D01*
X67241204Y-60650000D02*
X67241204Y-54650000D01*
X204242616Y-128651624D02*
X200242616Y-128651624D01*
X204242616Y-134650000D02*
X204242616Y-128651624D01*
X67240000Y-134650000D02*
X204242616Y-134650000D01*
X67240000Y-128650000D02*
X67240000Y-134650000D01*
X71241204Y-128650000D02*
X67240000Y-128650000D01*
X204242575Y-60651624D02*
X200242600Y-60651624D01*
X204242575Y-54650000D02*
X204242575Y-60651624D01*
X71241200Y-60650000D02*
X67241204Y-60650000D01*
X135241204Y-64650000D02*
X136242616Y-64650000D01*
X136242616Y-124650000D02*
X135241204Y-124650000D01*
X204242616Y-124651624D02*
G75*
G02*
X200242616Y-128651624I-4000000J0D01*
G01*
X136242616Y-64651624D02*
G75*
G02*
X140242616Y-60651624I4000000J0D01*
G01*
X204242616Y-124651624D02*
X204242616Y-64651624D01*
X140242616Y-128651624D02*
G75*
G02*
X136242616Y-124651624I0J4000000D01*
G01*
X200242616Y-60651624D02*
G75*
G02*
X204242616Y-64651624I0J-4000000D01*
G01*
X140242616Y-60651624D02*
X200242616Y-60651624D01*
X140242616Y-128651624D02*
X200242616Y-128651624D01*
X131241204Y-60650000D02*
X71241204Y-60650000D01*
X135241204Y-124650000D02*
G75*
G02*
X131241204Y-128650000I-4000000J0D01*
G01*
X131241204Y-60650000D02*
G75*
G02*
X135241204Y-64650000I0J-4000000D01*
G01*
X71241204Y-128650000D02*
X131241204Y-128650000D01*
X71241204Y-128650000D02*
G75*
G02*
X67241204Y-124650000I0J4000000D01*
G01*
X67241204Y-124650000D02*
X67241204Y-64650000D01*
X67241204Y-64650000D02*
G75*
G02*
X71241204Y-60650000I4000000J0D01*
G01*
D10*
X134033922Y-135939819D02*
X134367255Y-136939819D01*
X134367255Y-136939819D02*
X134700588Y-135939819D01*
X135033922Y-136558866D02*
X135795827Y-136558866D01*
X136843445Y-136844580D02*
X136795826Y-136892200D01*
X136795826Y-136892200D02*
X136652969Y-136939819D01*
X136652969Y-136939819D02*
X136557731Y-136939819D01*
X136557731Y-136939819D02*
X136414874Y-136892200D01*
X136414874Y-136892200D02*
X136319636Y-136796961D01*
X136319636Y-136796961D02*
X136272017Y-136701723D01*
X136272017Y-136701723D02*
X136224398Y-136511247D01*
X136224398Y-136511247D02*
X136224398Y-136368390D01*
X136224398Y-136368390D02*
X136272017Y-136177914D01*
X136272017Y-136177914D02*
X136319636Y-136082676D01*
X136319636Y-136082676D02*
X136414874Y-135987438D01*
X136414874Y-135987438D02*
X136557731Y-135939819D01*
X136557731Y-135939819D02*
X136652969Y-135939819D01*
X136652969Y-135939819D02*
X136795826Y-135987438D01*
X136795826Y-135987438D02*
X136843445Y-136035057D01*
X137272017Y-135939819D02*
X137272017Y-136749342D01*
X137272017Y-136749342D02*
X137319636Y-136844580D01*
X137319636Y-136844580D02*
X137367255Y-136892200D01*
X137367255Y-136892200D02*
X137462493Y-136939819D01*
X137462493Y-136939819D02*
X137652969Y-136939819D01*
X137652969Y-136939819D02*
X137748207Y-136892200D01*
X137748207Y-136892200D02*
X137795826Y-136844580D01*
X137795826Y-136844580D02*
X137843445Y-136749342D01*
X137843445Y-136749342D02*
X137843445Y-135939819D01*
X138176779Y-135939819D02*
X138748207Y-135939819D01*
X138462493Y-136939819D02*
X138462493Y-135939819D01*
D11*
X135741910Y-54650000D02*
X135741910Y-134650000D01*
M02*
