G04 #@! TF.GenerationSoftware,KiCad,Pcbnew,9.0.7*
G04 #@! TF.CreationDate,2026-05-01T16:48:42+08:00*
G04 #@! TF.ProjectId,power layer,706f7765-7220-46c6-9179-65722e6b6963,rev?*
G04 #@! TF.SameCoordinates,Original*
G04 #@! TF.FileFunction,Legend,Top*
G04 #@! TF.FilePolarity,Positive*
%FSLAX46Y46*%
G04 Gerber Fmt 4.6, Leading zero omitted, Abs format (unit mm)*
G04 Created by KiCad (PCBNEW 9.0.7) date 2026-05-01 16:48:42*
%MOMM*%
%LPD*%
G01*
G04 APERTURE LIST*
G04 Aperture macros list*
%AMRoundRect*
0 Rectangle with rounded corners*
0 $1 Rounding radius*
0 $2 $3 $4 $5 $6 $7 $8 $9 X,Y pos of 4 corners*
0 Add a 4 corners polygon primitive as box body*
4,1,4,$2,$3,$4,$5,$6,$7,$8,$9,$2,$3,0*
0 Add four circle primitives for the rounded corners*
1,1,$1+$1,$2,$3*
1,1,$1+$1,$4,$5*
1,1,$1+$1,$6,$7*
1,1,$1+$1,$8,$9*
0 Add four rect primitives between the rounded corners*
20,1,$1+$1,$2,$3,$4,$5,0*
20,1,$1+$1,$4,$5,$6,$7,0*
20,1,$1+$1,$6,$7,$8,$9,0*
20,1,$1+$1,$8,$9,$2,$3,0*%
G04 Aperture macros list end*
%ADD10C,0.300000*%
%ADD11C,0.200000*%
%ADD12C,0.250000*%
%ADD13C,0.120000*%
%ADD14C,0.000000*%
%ADD15C,0.127000*%
%ADD16RoundRect,0.250000X-0.325000X-0.450000X0.325000X-0.450000X0.325000X0.450000X-0.325000X0.450000X0*%
%ADD17RoundRect,0.250000X1.600000X-0.300000X1.600000X0.300000X-1.600000X0.300000X-1.600000X-0.300000X0*%
%ADD18RoundRect,0.250000X-0.350000X-0.450000X0.350000X-0.450000X0.350000X0.450000X-0.350000X0.450000X0*%
%ADD19RoundRect,0.250000X1.000000X0.650000X-1.000000X0.650000X-1.000000X-0.650000X1.000000X-0.650000X0*%
%ADD20RoundRect,0.250000X-0.412500X-1.100000X0.412500X-1.100000X0.412500X1.100000X-0.412500X1.100000X0*%
%ADD21RoundRect,0.250001X-0.507499X-0.944999X0.507499X-0.944999X0.507499X0.944999X-0.507499X0.944999X0*%
%ADD22RoundRect,0.150000X0.150000X-0.512500X0.150000X0.512500X-0.150000X0.512500X-0.150000X-0.512500X0*%
%ADD23RoundRect,0.250000X-1.100000X0.412500X-1.100000X-0.412500X1.100000X-0.412500X1.100000X0.412500X0*%
%ADD24C,5.600000*%
%ADD25RoundRect,0.250000X1.100000X-0.412500X1.100000X0.412500X-1.100000X0.412500X-1.100000X-0.412500X0*%
%ADD26RoundRect,0.102000X1.087500X-1.087500X1.087500X1.087500X-1.087500X1.087500X-1.087500X-1.087500X0*%
%ADD27C,2.379000*%
%ADD28RoundRect,0.250000X0.412500X1.100000X-0.412500X1.100000X-0.412500X-1.100000X0.412500X-1.100000X0*%
%ADD29C,1.000000*%
%ADD30RoundRect,0.250000X-0.300000X-1.600000X0.300000X-1.600000X0.300000X1.600000X-0.300000X1.600000X0*%
%ADD31RoundRect,0.250000X0.350000X0.450000X-0.350000X0.450000X-0.350000X-0.450000X0.350000X-0.450000X0*%
%ADD32RoundRect,0.250001X-0.944999X0.507499X-0.944999X-0.507499X0.944999X-0.507499X0.944999X0.507499X0*%
%ADD33RoundRect,0.250000X0.337500X0.475000X-0.337500X0.475000X-0.337500X-0.475000X0.337500X-0.475000X0*%
%ADD34RoundRect,0.150000X0.700000X-0.150000X0.700000X0.150000X-0.700000X0.150000X-0.700000X-0.150000X0*%
%ADD35RoundRect,0.250000X1.100000X-0.250000X1.100000X0.250000X-1.100000X0.250000X-1.100000X-0.250000X0*%
%ADD36RoundRect,0.150000X-0.150000X0.587500X-0.150000X-0.587500X0.150000X-0.587500X0.150000X0.587500X0*%
%ADD37RoundRect,0.250000X0.450000X-0.350000X0.450000X0.350000X-0.450000X0.350000X-0.450000X-0.350000X0*%
%ADD38RoundRect,0.102000X1.087500X1.087500X-1.087500X1.087500X-1.087500X-1.087500X1.087500X-1.087500X0*%
%ADD39RoundRect,0.150000X-0.700000X0.150000X-0.700000X-0.150000X0.700000X-0.150000X0.700000X0.150000X0*%
%ADD40RoundRect,0.250000X-1.100000X0.250000X-1.100000X-0.250000X1.100000X-0.250000X1.100000X0.250000X0*%
%ADD41C,0.650000*%
%ADD42R,0.600000X1.450000*%
%ADD43R,0.300000X1.450000*%
%ADD44O,1.000000X2.100000*%
%ADD45O,1.000000X1.600000*%
%ADD46RoundRect,0.250000X-0.450000X0.350000X-0.450000X-0.350000X0.450000X-0.350000X0.450000X0.350000X0*%
%ADD47RoundRect,0.250000X0.325000X0.450000X-0.325000X0.450000X-0.325000X-0.450000X0.325000X-0.450000X0*%
%ADD48RoundRect,0.150000X-0.150000X-0.700000X0.150000X-0.700000X0.150000X0.700000X-0.150000X0.700000X0*%
%ADD49RoundRect,0.250000X-0.250000X-1.100000X0.250000X-1.100000X0.250000X1.100000X-0.250000X1.100000X0*%
%ADD50RoundRect,0.250000X-0.337500X-0.475000X0.337500X-0.475000X0.337500X0.475000X-0.337500X0.475000X0*%
%ADD51RoundRect,0.250000X-0.350000X-0.625000X0.350000X-0.625000X0.350000X0.625000X-0.350000X0.625000X0*%
%ADD52O,1.200000X1.750000*%
%ADD53RoundRect,0.375000X-0.375000X0.625000X-0.375000X-0.625000X0.375000X-0.625000X0.375000X0.625000X0*%
%ADD54RoundRect,0.500000X-1.400000X0.500000X-1.400000X-0.500000X1.400000X-0.500000X1.400000X0.500000X0*%
G04 APERTURE END LIST*
D10*
X210754510Y-93000828D02*
X210754510Y-91500828D01*
X210754510Y-91500828D02*
X211325939Y-91500828D01*
X211325939Y-91500828D02*
X211468796Y-91572257D01*
X211468796Y-91572257D02*
X211540225Y-91643685D01*
X211540225Y-91643685D02*
X211611653Y-91786542D01*
X211611653Y-91786542D02*
X211611653Y-92000828D01*
X211611653Y-92000828D02*
X211540225Y-92143685D01*
X211540225Y-92143685D02*
X211468796Y-92215114D01*
X211468796Y-92215114D02*
X211325939Y-92286542D01*
X211325939Y-92286542D02*
X210754510Y-92286542D01*
X211897368Y-93143685D02*
X213040225Y-93143685D01*
X213183082Y-91500828D02*
X214040225Y-91500828D01*
X213611653Y-93000828D02*
X213611653Y-91500828D01*
X214825939Y-91500828D02*
X215111653Y-91500828D01*
X215111653Y-91500828D02*
X215254510Y-91572257D01*
X215254510Y-91572257D02*
X215397367Y-91715114D01*
X215397367Y-91715114D02*
X215468796Y-92000828D01*
X215468796Y-92000828D02*
X215468796Y-92500828D01*
X215468796Y-92500828D02*
X215397367Y-92786542D01*
X215397367Y-92786542D02*
X215254510Y-92929400D01*
X215254510Y-92929400D02*
X215111653Y-93000828D01*
X215111653Y-93000828D02*
X214825939Y-93000828D01*
X214825939Y-93000828D02*
X214683082Y-92929400D01*
X214683082Y-92929400D02*
X214540224Y-92786542D01*
X214540224Y-92786542D02*
X214468796Y-92500828D01*
X214468796Y-92500828D02*
X214468796Y-92000828D01*
X214468796Y-92000828D02*
X214540224Y-91715114D01*
X214540224Y-91715114D02*
X214683082Y-91572257D01*
X214683082Y-91572257D02*
X214825939Y-91500828D01*
X216111653Y-93000828D02*
X216111653Y-91500828D01*
X216111653Y-91500828D02*
X216683082Y-91500828D01*
X216683082Y-91500828D02*
X216825939Y-91572257D01*
X216825939Y-91572257D02*
X216897368Y-91643685D01*
X216897368Y-91643685D02*
X216968796Y-91786542D01*
X216968796Y-91786542D02*
X216968796Y-92000828D01*
X216968796Y-92000828D02*
X216897368Y-92143685D01*
X216897368Y-92143685D02*
X216825939Y-92215114D01*
X216825939Y-92215114D02*
X216683082Y-92286542D01*
X216683082Y-92286542D02*
X216111653Y-92286542D01*
D11*
X199284435Y-100957219D02*
X199903482Y-100957219D01*
X199903482Y-100957219D02*
X199570149Y-101338171D01*
X199570149Y-101338171D02*
X199713006Y-101338171D01*
X199713006Y-101338171D02*
X199808244Y-101385790D01*
X199808244Y-101385790D02*
X199855863Y-101433409D01*
X199855863Y-101433409D02*
X199903482Y-101528647D01*
X199903482Y-101528647D02*
X199903482Y-101766742D01*
X199903482Y-101766742D02*
X199855863Y-101861980D01*
X199855863Y-101861980D02*
X199808244Y-101909600D01*
X199808244Y-101909600D02*
X199713006Y-101957219D01*
X199713006Y-101957219D02*
X199427292Y-101957219D01*
X199427292Y-101957219D02*
X199332054Y-101909600D01*
X199332054Y-101909600D02*
X199284435Y-101861980D01*
X200189197Y-100957219D02*
X200522530Y-101957219D01*
X200522530Y-101957219D02*
X200855863Y-100957219D01*
X201093959Y-100957219D02*
X201713006Y-100957219D01*
X201713006Y-100957219D02*
X201379673Y-101338171D01*
X201379673Y-101338171D02*
X201522530Y-101338171D01*
X201522530Y-101338171D02*
X201617768Y-101385790D01*
X201617768Y-101385790D02*
X201665387Y-101433409D01*
X201665387Y-101433409D02*
X201713006Y-101528647D01*
X201713006Y-101528647D02*
X201713006Y-101766742D01*
X201713006Y-101766742D02*
X201665387Y-101861980D01*
X201665387Y-101861980D02*
X201617768Y-101909600D01*
X201617768Y-101909600D02*
X201522530Y-101957219D01*
X201522530Y-101957219D02*
X201236816Y-101957219D01*
X201236816Y-101957219D02*
X201141578Y-101909600D01*
X201141578Y-101909600D02*
X201093959Y-101861980D01*
D10*
X166234510Y-120125114D02*
X166448796Y-120196542D01*
X166448796Y-120196542D02*
X166520225Y-120267971D01*
X166520225Y-120267971D02*
X166591653Y-120410828D01*
X166591653Y-120410828D02*
X166591653Y-120625114D01*
X166591653Y-120625114D02*
X166520225Y-120767971D01*
X166520225Y-120767971D02*
X166448796Y-120839400D01*
X166448796Y-120839400D02*
X166305939Y-120910828D01*
X166305939Y-120910828D02*
X165734510Y-120910828D01*
X165734510Y-120910828D02*
X165734510Y-119410828D01*
X165734510Y-119410828D02*
X166234510Y-119410828D01*
X166234510Y-119410828D02*
X166377368Y-119482257D01*
X166377368Y-119482257D02*
X166448796Y-119553685D01*
X166448796Y-119553685D02*
X166520225Y-119696542D01*
X166520225Y-119696542D02*
X166520225Y-119839400D01*
X166520225Y-119839400D02*
X166448796Y-119982257D01*
X166448796Y-119982257D02*
X166377368Y-120053685D01*
X166377368Y-120053685D02*
X166234510Y-120125114D01*
X166234510Y-120125114D02*
X165734510Y-120125114D01*
X167163082Y-120482257D02*
X167877368Y-120482257D01*
X167020225Y-120910828D02*
X167520225Y-119410828D01*
X167520225Y-119410828D02*
X168020225Y-120910828D01*
X168305939Y-119410828D02*
X169163082Y-119410828D01*
X168734510Y-120910828D02*
X168734510Y-119410828D01*
X193034510Y-58020828D02*
X193034510Y-56520828D01*
X193034510Y-56520828D02*
X193605939Y-56520828D01*
X193605939Y-56520828D02*
X193748796Y-56592257D01*
X193748796Y-56592257D02*
X193820225Y-56663685D01*
X193820225Y-56663685D02*
X193891653Y-56806542D01*
X193891653Y-56806542D02*
X193891653Y-57020828D01*
X193891653Y-57020828D02*
X193820225Y-57163685D01*
X193820225Y-57163685D02*
X193748796Y-57235114D01*
X193748796Y-57235114D02*
X193605939Y-57306542D01*
X193605939Y-57306542D02*
X193034510Y-57306542D01*
X194748796Y-58020828D02*
X194605939Y-57949400D01*
X194605939Y-57949400D02*
X194534510Y-57877971D01*
X194534510Y-57877971D02*
X194463082Y-57735114D01*
X194463082Y-57735114D02*
X194463082Y-57306542D01*
X194463082Y-57306542D02*
X194534510Y-57163685D01*
X194534510Y-57163685D02*
X194605939Y-57092257D01*
X194605939Y-57092257D02*
X194748796Y-57020828D01*
X194748796Y-57020828D02*
X194963082Y-57020828D01*
X194963082Y-57020828D02*
X195105939Y-57092257D01*
X195105939Y-57092257D02*
X195177368Y-57163685D01*
X195177368Y-57163685D02*
X195248796Y-57306542D01*
X195248796Y-57306542D02*
X195248796Y-57735114D01*
X195248796Y-57735114D02*
X195177368Y-57877971D01*
X195177368Y-57877971D02*
X195105939Y-57949400D01*
X195105939Y-57949400D02*
X194963082Y-58020828D01*
X194963082Y-58020828D02*
X194748796Y-58020828D01*
X195748796Y-57020828D02*
X196034511Y-58020828D01*
X196034511Y-58020828D02*
X196320225Y-57306542D01*
X196320225Y-57306542D02*
X196605939Y-58020828D01*
X196605939Y-58020828D02*
X196891653Y-57020828D01*
X198034511Y-57949400D02*
X197891654Y-58020828D01*
X197891654Y-58020828D02*
X197605940Y-58020828D01*
X197605940Y-58020828D02*
X197463082Y-57949400D01*
X197463082Y-57949400D02*
X197391654Y-57806542D01*
X197391654Y-57806542D02*
X197391654Y-57235114D01*
X197391654Y-57235114D02*
X197463082Y-57092257D01*
X197463082Y-57092257D02*
X197605940Y-57020828D01*
X197605940Y-57020828D02*
X197891654Y-57020828D01*
X197891654Y-57020828D02*
X198034511Y-57092257D01*
X198034511Y-57092257D02*
X198105940Y-57235114D01*
X198105940Y-57235114D02*
X198105940Y-57377971D01*
X198105940Y-57377971D02*
X197391654Y-57520828D01*
X198748796Y-58020828D02*
X198748796Y-57020828D01*
X198748796Y-57306542D02*
X198820225Y-57163685D01*
X198820225Y-57163685D02*
X198891654Y-57092257D01*
X198891654Y-57092257D02*
X199034511Y-57020828D01*
X199034511Y-57020828D02*
X199177368Y-57020828D01*
X201534510Y-58020828D02*
X200820224Y-58020828D01*
X200820224Y-58020828D02*
X200820224Y-56520828D01*
X202677368Y-58020828D02*
X202677368Y-57235114D01*
X202677368Y-57235114D02*
X202605939Y-57092257D01*
X202605939Y-57092257D02*
X202463082Y-57020828D01*
X202463082Y-57020828D02*
X202177368Y-57020828D01*
X202177368Y-57020828D02*
X202034510Y-57092257D01*
X202677368Y-57949400D02*
X202534510Y-58020828D01*
X202534510Y-58020828D02*
X202177368Y-58020828D01*
X202177368Y-58020828D02*
X202034510Y-57949400D01*
X202034510Y-57949400D02*
X201963082Y-57806542D01*
X201963082Y-57806542D02*
X201963082Y-57663685D01*
X201963082Y-57663685D02*
X202034510Y-57520828D01*
X202034510Y-57520828D02*
X202177368Y-57449400D01*
X202177368Y-57449400D02*
X202534510Y-57449400D01*
X202534510Y-57449400D02*
X202677368Y-57377971D01*
X203248796Y-57020828D02*
X203605939Y-58020828D01*
X203963082Y-57020828D02*
X203605939Y-58020828D01*
X203605939Y-58020828D02*
X203463082Y-58377971D01*
X203463082Y-58377971D02*
X203391653Y-58449400D01*
X203391653Y-58449400D02*
X203248796Y-58520828D01*
X205105939Y-57949400D02*
X204963082Y-58020828D01*
X204963082Y-58020828D02*
X204677368Y-58020828D01*
X204677368Y-58020828D02*
X204534510Y-57949400D01*
X204534510Y-57949400D02*
X204463082Y-57806542D01*
X204463082Y-57806542D02*
X204463082Y-57235114D01*
X204463082Y-57235114D02*
X204534510Y-57092257D01*
X204534510Y-57092257D02*
X204677368Y-57020828D01*
X204677368Y-57020828D02*
X204963082Y-57020828D01*
X204963082Y-57020828D02*
X205105939Y-57092257D01*
X205105939Y-57092257D02*
X205177368Y-57235114D01*
X205177368Y-57235114D02*
X205177368Y-57377971D01*
X205177368Y-57377971D02*
X204463082Y-57520828D01*
X205820224Y-58020828D02*
X205820224Y-57020828D01*
X205820224Y-57306542D02*
X205891653Y-57163685D01*
X205891653Y-57163685D02*
X205963082Y-57092257D01*
X205963082Y-57092257D02*
X206105939Y-57020828D01*
X206105939Y-57020828D02*
X206248796Y-57020828D01*
X151303082Y-96699400D02*
X151517368Y-96770828D01*
X151517368Y-96770828D02*
X151874510Y-96770828D01*
X151874510Y-96770828D02*
X152017368Y-96699400D01*
X152017368Y-96699400D02*
X152088796Y-96627971D01*
X152088796Y-96627971D02*
X152160225Y-96485114D01*
X152160225Y-96485114D02*
X152160225Y-96342257D01*
X152160225Y-96342257D02*
X152088796Y-96199400D01*
X152088796Y-96199400D02*
X152017368Y-96127971D01*
X152017368Y-96127971D02*
X151874510Y-96056542D01*
X151874510Y-96056542D02*
X151588796Y-95985114D01*
X151588796Y-95985114D02*
X151445939Y-95913685D01*
X151445939Y-95913685D02*
X151374510Y-95842257D01*
X151374510Y-95842257D02*
X151303082Y-95699400D01*
X151303082Y-95699400D02*
X151303082Y-95556542D01*
X151303082Y-95556542D02*
X151374510Y-95413685D01*
X151374510Y-95413685D02*
X151445939Y-95342257D01*
X151445939Y-95342257D02*
X151588796Y-95270828D01*
X151588796Y-95270828D02*
X151945939Y-95270828D01*
X151945939Y-95270828D02*
X152160225Y-95342257D01*
X152445939Y-96913685D02*
X153588796Y-96913685D01*
X153945938Y-96770828D02*
X153945938Y-95270828D01*
X153945938Y-95270828D02*
X154517367Y-95270828D01*
X154517367Y-95270828D02*
X154660224Y-95342257D01*
X154660224Y-95342257D02*
X154731653Y-95413685D01*
X154731653Y-95413685D02*
X154803081Y-95556542D01*
X154803081Y-95556542D02*
X154803081Y-95770828D01*
X154803081Y-95770828D02*
X154731653Y-95913685D01*
X154731653Y-95913685D02*
X154660224Y-95985114D01*
X154660224Y-95985114D02*
X154517367Y-96056542D01*
X154517367Y-96056542D02*
X153945938Y-96056542D01*
X155731653Y-95270828D02*
X156017367Y-95270828D01*
X156017367Y-95270828D02*
X156160224Y-95342257D01*
X156160224Y-95342257D02*
X156303081Y-95485114D01*
X156303081Y-95485114D02*
X156374510Y-95770828D01*
X156374510Y-95770828D02*
X156374510Y-96270828D01*
X156374510Y-96270828D02*
X156303081Y-96556542D01*
X156303081Y-96556542D02*
X156160224Y-96699400D01*
X156160224Y-96699400D02*
X156017367Y-96770828D01*
X156017367Y-96770828D02*
X155731653Y-96770828D01*
X155731653Y-96770828D02*
X155588796Y-96699400D01*
X155588796Y-96699400D02*
X155445938Y-96556542D01*
X155445938Y-96556542D02*
X155374510Y-96270828D01*
X155374510Y-96270828D02*
X155374510Y-95770828D01*
X155374510Y-95770828D02*
X155445938Y-95485114D01*
X155445938Y-95485114D02*
X155588796Y-95342257D01*
X155588796Y-95342257D02*
X155731653Y-95270828D01*
X156874510Y-95270828D02*
X157231653Y-96770828D01*
X157231653Y-96770828D02*
X157517367Y-95699400D01*
X157517367Y-95699400D02*
X157803082Y-96770828D01*
X157803082Y-96770828D02*
X158160225Y-95270828D01*
X158731653Y-95985114D02*
X159231653Y-95985114D01*
X159445939Y-96770828D02*
X158731653Y-96770828D01*
X158731653Y-96770828D02*
X158731653Y-95270828D01*
X158731653Y-95270828D02*
X159445939Y-95270828D01*
X160945939Y-96770828D02*
X160445939Y-96056542D01*
X160088796Y-96770828D02*
X160088796Y-95270828D01*
X160088796Y-95270828D02*
X160660225Y-95270828D01*
X160660225Y-95270828D02*
X160803082Y-95342257D01*
X160803082Y-95342257D02*
X160874511Y-95413685D01*
X160874511Y-95413685D02*
X160945939Y-95556542D01*
X160945939Y-95556542D02*
X160945939Y-95770828D01*
X160945939Y-95770828D02*
X160874511Y-95913685D01*
X160874511Y-95913685D02*
X160803082Y-95985114D01*
X160803082Y-95985114D02*
X160660225Y-96056542D01*
X160660225Y-96056542D02*
X160088796Y-96056542D01*
D11*
X190555863Y-94157219D02*
X190079673Y-94157219D01*
X190079673Y-94157219D02*
X190032054Y-94633409D01*
X190032054Y-94633409D02*
X190079673Y-94585790D01*
X190079673Y-94585790D02*
X190174911Y-94538171D01*
X190174911Y-94538171D02*
X190413006Y-94538171D01*
X190413006Y-94538171D02*
X190508244Y-94585790D01*
X190508244Y-94585790D02*
X190555863Y-94633409D01*
X190555863Y-94633409D02*
X190603482Y-94728647D01*
X190603482Y-94728647D02*
X190603482Y-94966742D01*
X190603482Y-94966742D02*
X190555863Y-95061980D01*
X190555863Y-95061980D02*
X190508244Y-95109600D01*
X190508244Y-95109600D02*
X190413006Y-95157219D01*
X190413006Y-95157219D02*
X190174911Y-95157219D01*
X190174911Y-95157219D02*
X190079673Y-95109600D01*
X190079673Y-95109600D02*
X190032054Y-95061980D01*
X190889197Y-94157219D02*
X191222530Y-95157219D01*
X191222530Y-95157219D02*
X191555863Y-94157219D01*
X195015863Y-60677219D02*
X194539673Y-60677219D01*
X194539673Y-60677219D02*
X194492054Y-61153409D01*
X194492054Y-61153409D02*
X194539673Y-61105790D01*
X194539673Y-61105790D02*
X194634911Y-61058171D01*
X194634911Y-61058171D02*
X194873006Y-61058171D01*
X194873006Y-61058171D02*
X194968244Y-61105790D01*
X194968244Y-61105790D02*
X195015863Y-61153409D01*
X195015863Y-61153409D02*
X195063482Y-61248647D01*
X195063482Y-61248647D02*
X195063482Y-61486742D01*
X195063482Y-61486742D02*
X195015863Y-61581980D01*
X195015863Y-61581980D02*
X194968244Y-61629600D01*
X194968244Y-61629600D02*
X194873006Y-61677219D01*
X194873006Y-61677219D02*
X194634911Y-61677219D01*
X194634911Y-61677219D02*
X194539673Y-61629600D01*
X194539673Y-61629600D02*
X194492054Y-61581980D01*
X195349197Y-60677219D02*
X195682530Y-61677219D01*
X195682530Y-61677219D02*
X196015863Y-60677219D01*
D10*
X209784510Y-72450828D02*
X209784510Y-70950828D01*
X209784510Y-70950828D02*
X210355939Y-70950828D01*
X210355939Y-70950828D02*
X210498796Y-71022257D01*
X210498796Y-71022257D02*
X210570225Y-71093685D01*
X210570225Y-71093685D02*
X210641653Y-71236542D01*
X210641653Y-71236542D02*
X210641653Y-71450828D01*
X210641653Y-71450828D02*
X210570225Y-71593685D01*
X210570225Y-71593685D02*
X210498796Y-71665114D01*
X210498796Y-71665114D02*
X210355939Y-71736542D01*
X210355939Y-71736542D02*
X209784510Y-71736542D01*
X210927368Y-72593685D02*
X212070225Y-72593685D01*
X212427367Y-72450828D02*
X212427367Y-70950828D01*
X212427367Y-70950828D02*
X212927367Y-72022257D01*
X212927367Y-72022257D02*
X213427367Y-70950828D01*
X213427367Y-70950828D02*
X213427367Y-72450828D01*
X214998796Y-72307971D02*
X214927368Y-72379400D01*
X214927368Y-72379400D02*
X214713082Y-72450828D01*
X214713082Y-72450828D02*
X214570225Y-72450828D01*
X214570225Y-72450828D02*
X214355939Y-72379400D01*
X214355939Y-72379400D02*
X214213082Y-72236542D01*
X214213082Y-72236542D02*
X214141653Y-72093685D01*
X214141653Y-72093685D02*
X214070225Y-71807971D01*
X214070225Y-71807971D02*
X214070225Y-71593685D01*
X214070225Y-71593685D02*
X214141653Y-71307971D01*
X214141653Y-71307971D02*
X214213082Y-71165114D01*
X214213082Y-71165114D02*
X214355939Y-71022257D01*
X214355939Y-71022257D02*
X214570225Y-70950828D01*
X214570225Y-70950828D02*
X214713082Y-70950828D01*
X214713082Y-70950828D02*
X214927368Y-71022257D01*
X214927368Y-71022257D02*
X214998796Y-71093685D01*
X215641653Y-70950828D02*
X215641653Y-72165114D01*
X215641653Y-72165114D02*
X215713082Y-72307971D01*
X215713082Y-72307971D02*
X215784511Y-72379400D01*
X215784511Y-72379400D02*
X215927368Y-72450828D01*
X215927368Y-72450828D02*
X216213082Y-72450828D01*
X216213082Y-72450828D02*
X216355939Y-72379400D01*
X216355939Y-72379400D02*
X216427368Y-72307971D01*
X216427368Y-72307971D02*
X216498796Y-72165114D01*
X216498796Y-72165114D02*
X216498796Y-70950828D01*
D11*
X156723482Y-110774838D02*
X156628244Y-110727219D01*
X156628244Y-110727219D02*
X156485387Y-110727219D01*
X156485387Y-110727219D02*
X156342530Y-110774838D01*
X156342530Y-110774838D02*
X156247292Y-110870076D01*
X156247292Y-110870076D02*
X156199673Y-110965314D01*
X156199673Y-110965314D02*
X156152054Y-111155790D01*
X156152054Y-111155790D02*
X156152054Y-111298647D01*
X156152054Y-111298647D02*
X156199673Y-111489123D01*
X156199673Y-111489123D02*
X156247292Y-111584361D01*
X156247292Y-111584361D02*
X156342530Y-111679600D01*
X156342530Y-111679600D02*
X156485387Y-111727219D01*
X156485387Y-111727219D02*
X156580625Y-111727219D01*
X156580625Y-111727219D02*
X156723482Y-111679600D01*
X156723482Y-111679600D02*
X156771101Y-111631980D01*
X156771101Y-111631980D02*
X156771101Y-111298647D01*
X156771101Y-111298647D02*
X156580625Y-111298647D01*
X157199673Y-111727219D02*
X157199673Y-110727219D01*
X157199673Y-110727219D02*
X157771101Y-111727219D01*
X157771101Y-111727219D02*
X157771101Y-110727219D01*
X158247292Y-111727219D02*
X158247292Y-110727219D01*
X158247292Y-110727219D02*
X158485387Y-110727219D01*
X158485387Y-110727219D02*
X158628244Y-110774838D01*
X158628244Y-110774838D02*
X158723482Y-110870076D01*
X158723482Y-110870076D02*
X158771101Y-110965314D01*
X158771101Y-110965314D02*
X158818720Y-111155790D01*
X158818720Y-111155790D02*
X158818720Y-111298647D01*
X158818720Y-111298647D02*
X158771101Y-111489123D01*
X158771101Y-111489123D02*
X158723482Y-111584361D01*
X158723482Y-111584361D02*
X158628244Y-111679600D01*
X158628244Y-111679600D02*
X158485387Y-111727219D01*
X158485387Y-111727219D02*
X158247292Y-111727219D01*
X182223006Y-98023409D02*
X182365863Y-98071028D01*
X182365863Y-98071028D02*
X182413482Y-98118647D01*
X182413482Y-98118647D02*
X182461101Y-98213885D01*
X182461101Y-98213885D02*
X182461101Y-98356742D01*
X182461101Y-98356742D02*
X182413482Y-98451980D01*
X182413482Y-98451980D02*
X182365863Y-98499600D01*
X182365863Y-98499600D02*
X182270625Y-98547219D01*
X182270625Y-98547219D02*
X181889673Y-98547219D01*
X181889673Y-98547219D02*
X181889673Y-97547219D01*
X181889673Y-97547219D02*
X182223006Y-97547219D01*
X182223006Y-97547219D02*
X182318244Y-97594838D01*
X182318244Y-97594838D02*
X182365863Y-97642457D01*
X182365863Y-97642457D02*
X182413482Y-97737695D01*
X182413482Y-97737695D02*
X182413482Y-97832933D01*
X182413482Y-97832933D02*
X182365863Y-97928171D01*
X182365863Y-97928171D02*
X182318244Y-97975790D01*
X182318244Y-97975790D02*
X182223006Y-98023409D01*
X182223006Y-98023409D02*
X181889673Y-98023409D01*
X182889673Y-97547219D02*
X182889673Y-98356742D01*
X182889673Y-98356742D02*
X182937292Y-98451980D01*
X182937292Y-98451980D02*
X182984911Y-98499600D01*
X182984911Y-98499600D02*
X183080149Y-98547219D01*
X183080149Y-98547219D02*
X183270625Y-98547219D01*
X183270625Y-98547219D02*
X183365863Y-98499600D01*
X183365863Y-98499600D02*
X183413482Y-98451980D01*
X183413482Y-98451980D02*
X183461101Y-98356742D01*
X183461101Y-98356742D02*
X183461101Y-97547219D01*
X184508720Y-98451980D02*
X184461101Y-98499600D01*
X184461101Y-98499600D02*
X184318244Y-98547219D01*
X184318244Y-98547219D02*
X184223006Y-98547219D01*
X184223006Y-98547219D02*
X184080149Y-98499600D01*
X184080149Y-98499600D02*
X183984911Y-98404361D01*
X183984911Y-98404361D02*
X183937292Y-98309123D01*
X183937292Y-98309123D02*
X183889673Y-98118647D01*
X183889673Y-98118647D02*
X183889673Y-97975790D01*
X183889673Y-97975790D02*
X183937292Y-97785314D01*
X183937292Y-97785314D02*
X183984911Y-97690076D01*
X183984911Y-97690076D02*
X184080149Y-97594838D01*
X184080149Y-97594838D02*
X184223006Y-97547219D01*
X184223006Y-97547219D02*
X184318244Y-97547219D01*
X184318244Y-97547219D02*
X184461101Y-97594838D01*
X184461101Y-97594838D02*
X184508720Y-97642457D01*
X184937292Y-98547219D02*
X184937292Y-97547219D01*
X185508720Y-98547219D02*
X185080149Y-97975790D01*
X185508720Y-97547219D02*
X184937292Y-98118647D01*
X185699197Y-98642457D02*
X186461101Y-98642457D01*
X187175387Y-97547219D02*
X186699197Y-97547219D01*
X186699197Y-97547219D02*
X186651578Y-98023409D01*
X186651578Y-98023409D02*
X186699197Y-97975790D01*
X186699197Y-97975790D02*
X186794435Y-97928171D01*
X186794435Y-97928171D02*
X187032530Y-97928171D01*
X187032530Y-97928171D02*
X187127768Y-97975790D01*
X187127768Y-97975790D02*
X187175387Y-98023409D01*
X187175387Y-98023409D02*
X187223006Y-98118647D01*
X187223006Y-98118647D02*
X187223006Y-98356742D01*
X187223006Y-98356742D02*
X187175387Y-98451980D01*
X187175387Y-98451980D02*
X187127768Y-98499600D01*
X187127768Y-98499600D02*
X187032530Y-98547219D01*
X187032530Y-98547219D02*
X186794435Y-98547219D01*
X186794435Y-98547219D02*
X186699197Y-98499600D01*
X186699197Y-98499600D02*
X186651578Y-98451980D01*
X187508721Y-97547219D02*
X187842054Y-98547219D01*
X187842054Y-98547219D02*
X188175387Y-97547219D01*
X178444435Y-114287219D02*
X179063482Y-114287219D01*
X179063482Y-114287219D02*
X178730149Y-114668171D01*
X178730149Y-114668171D02*
X178873006Y-114668171D01*
X178873006Y-114668171D02*
X178968244Y-114715790D01*
X178968244Y-114715790D02*
X179015863Y-114763409D01*
X179015863Y-114763409D02*
X179063482Y-114858647D01*
X179063482Y-114858647D02*
X179063482Y-115096742D01*
X179063482Y-115096742D02*
X179015863Y-115191980D01*
X179015863Y-115191980D02*
X178968244Y-115239600D01*
X178968244Y-115239600D02*
X178873006Y-115287219D01*
X178873006Y-115287219D02*
X178587292Y-115287219D01*
X178587292Y-115287219D02*
X178492054Y-115239600D01*
X178492054Y-115239600D02*
X178444435Y-115191980D01*
X179349197Y-114287219D02*
X179682530Y-115287219D01*
X179682530Y-115287219D02*
X180015863Y-114287219D01*
X180253959Y-114287219D02*
X180873006Y-114287219D01*
X180873006Y-114287219D02*
X180539673Y-114668171D01*
X180539673Y-114668171D02*
X180682530Y-114668171D01*
X180682530Y-114668171D02*
X180777768Y-114715790D01*
X180777768Y-114715790D02*
X180825387Y-114763409D01*
X180825387Y-114763409D02*
X180873006Y-114858647D01*
X180873006Y-114858647D02*
X180873006Y-115096742D01*
X180873006Y-115096742D02*
X180825387Y-115191980D01*
X180825387Y-115191980D02*
X180777768Y-115239600D01*
X180777768Y-115239600D02*
X180682530Y-115287219D01*
X180682530Y-115287219D02*
X180396816Y-115287219D01*
X180396816Y-115287219D02*
X180301578Y-115239600D01*
X180301578Y-115239600D02*
X180253959Y-115191980D01*
X181063483Y-115382457D02*
X181825387Y-115382457D01*
X182539673Y-115287219D02*
X182063483Y-115287219D01*
X182063483Y-115287219D02*
X182063483Y-114287219D01*
X156486816Y-104927219D02*
X156820149Y-105927219D01*
X156820149Y-105927219D02*
X157153482Y-104927219D01*
X157248721Y-106022457D02*
X158010625Y-106022457D01*
X158582054Y-105403409D02*
X158724911Y-105451028D01*
X158724911Y-105451028D02*
X158772530Y-105498647D01*
X158772530Y-105498647D02*
X158820149Y-105593885D01*
X158820149Y-105593885D02*
X158820149Y-105736742D01*
X158820149Y-105736742D02*
X158772530Y-105831980D01*
X158772530Y-105831980D02*
X158724911Y-105879600D01*
X158724911Y-105879600D02*
X158629673Y-105927219D01*
X158629673Y-105927219D02*
X158248721Y-105927219D01*
X158248721Y-105927219D02*
X158248721Y-104927219D01*
X158248721Y-104927219D02*
X158582054Y-104927219D01*
X158582054Y-104927219D02*
X158677292Y-104974838D01*
X158677292Y-104974838D02*
X158724911Y-105022457D01*
X158724911Y-105022457D02*
X158772530Y-105117695D01*
X158772530Y-105117695D02*
X158772530Y-105212933D01*
X158772530Y-105212933D02*
X158724911Y-105308171D01*
X158724911Y-105308171D02*
X158677292Y-105355790D01*
X158677292Y-105355790D02*
X158582054Y-105403409D01*
X158582054Y-105403409D02*
X158248721Y-105403409D01*
X159201102Y-105641504D02*
X159677292Y-105641504D01*
X159105864Y-105927219D02*
X159439197Y-104927219D01*
X159439197Y-104927219D02*
X159772530Y-105927219D01*
X159963007Y-104927219D02*
X160534435Y-104927219D01*
X160248721Y-105927219D02*
X160248721Y-104927219D01*
X160867769Y-105546266D02*
X161629674Y-105546266D01*
X161248721Y-105927219D02*
X161248721Y-105165314D01*
D12*
X159519454Y-67695477D02*
X159681954Y-66395477D01*
X159681954Y-66395477D02*
X160090882Y-67695477D01*
X160090882Y-67695477D02*
X160253382Y-66395477D01*
X161153977Y-67571668D02*
X161098620Y-67633573D01*
X161098620Y-67633573D02*
X160948025Y-67695477D01*
X160948025Y-67695477D02*
X160852787Y-67695477D01*
X160852787Y-67695477D02*
X160717668Y-67633573D01*
X160717668Y-67633573D02*
X160637906Y-67509763D01*
X160637906Y-67509763D02*
X160605763Y-67385953D01*
X160605763Y-67385953D02*
X160589096Y-67138334D01*
X160589096Y-67138334D02*
X160612311Y-66952620D01*
X160612311Y-66952620D02*
X160690882Y-66705001D01*
X160690882Y-66705001D02*
X160753977Y-66581192D01*
X160753977Y-66581192D02*
X160864692Y-66457382D01*
X160864692Y-66457382D02*
X161015287Y-66395477D01*
X161015287Y-66395477D02*
X161110525Y-66395477D01*
X161110525Y-66395477D02*
X161245644Y-66457382D01*
X161245644Y-66457382D02*
X161285525Y-66519287D01*
X161567073Y-67695477D02*
X161729573Y-66395477D01*
X162138501Y-67695477D02*
X161802787Y-66952620D01*
X162301001Y-66395477D02*
X161636716Y-67138334D01*
X162729573Y-66395477D02*
X162598025Y-67447858D01*
X162598025Y-67447858D02*
X162630168Y-67571668D01*
X162630168Y-67571668D02*
X162670049Y-67633573D01*
X162670049Y-67633573D02*
X162757549Y-67695477D01*
X162757549Y-67695477D02*
X162948025Y-67695477D01*
X162948025Y-67695477D02*
X163051001Y-67633573D01*
X163051001Y-67633573D02*
X163106358Y-67571668D01*
X163106358Y-67571668D02*
X163169454Y-67447858D01*
X163169454Y-67447858D02*
X163301001Y-66395477D01*
X164376597Y-67695477D02*
X164539097Y-66395477D01*
X165389691Y-66828811D02*
X165281358Y-67695477D01*
X164961120Y-66828811D02*
X164876001Y-67509763D01*
X164876001Y-67509763D02*
X164908144Y-67633573D01*
X164908144Y-67633573D02*
X164995644Y-67695477D01*
X164995644Y-67695477D02*
X165138501Y-67695477D01*
X165138501Y-67695477D02*
X165241477Y-67633573D01*
X165241477Y-67633573D02*
X165296834Y-67571668D01*
X165717668Y-67633573D02*
X165805168Y-67695477D01*
X165805168Y-67695477D02*
X165995644Y-67695477D01*
X165995644Y-67695477D02*
X166098620Y-67633573D01*
X166098620Y-67633573D02*
X166161715Y-67509763D01*
X166161715Y-67509763D02*
X166169453Y-67447858D01*
X166169453Y-67447858D02*
X166137311Y-67324049D01*
X166137311Y-67324049D02*
X166049811Y-67262144D01*
X166049811Y-67262144D02*
X165906953Y-67262144D01*
X165906953Y-67262144D02*
X165819453Y-67200239D01*
X165819453Y-67200239D02*
X165787311Y-67076430D01*
X165787311Y-67076430D02*
X165795049Y-67014525D01*
X165795049Y-67014525D02*
X165858144Y-66890715D01*
X165858144Y-66890715D02*
X165961120Y-66828811D01*
X165961120Y-66828811D02*
X166103977Y-66828811D01*
X166103977Y-66828811D02*
X166191477Y-66890715D01*
X167747430Y-67014525D02*
X167882549Y-67076430D01*
X167882549Y-67076430D02*
X167922430Y-67138334D01*
X167922430Y-67138334D02*
X167954573Y-67262144D01*
X167954573Y-67262144D02*
X167931359Y-67447858D01*
X167931359Y-67447858D02*
X167868263Y-67571668D01*
X167868263Y-67571668D02*
X167812906Y-67633573D01*
X167812906Y-67633573D02*
X167709930Y-67695477D01*
X167709930Y-67695477D02*
X167328978Y-67695477D01*
X167328978Y-67695477D02*
X167491478Y-66395477D01*
X167491478Y-66395477D02*
X167824811Y-66395477D01*
X167824811Y-66395477D02*
X167912311Y-66457382D01*
X167912311Y-66457382D02*
X167952192Y-66519287D01*
X167952192Y-66519287D02*
X167984335Y-66643096D01*
X167984335Y-66643096D02*
X167968859Y-66766906D01*
X167968859Y-66766906D02*
X167905763Y-66890715D01*
X167905763Y-66890715D02*
X167850406Y-66952620D01*
X167850406Y-66952620D02*
X167747430Y-67014525D01*
X167747430Y-67014525D02*
X167414097Y-67014525D01*
X168865882Y-66828811D02*
X168757549Y-67695477D01*
X168437311Y-66828811D02*
X168352192Y-67509763D01*
X168352192Y-67509763D02*
X168384335Y-67633573D01*
X168384335Y-67633573D02*
X168471835Y-67695477D01*
X168471835Y-67695477D02*
X168614692Y-67695477D01*
X168614692Y-67695477D02*
X168717668Y-67633573D01*
X168717668Y-67633573D02*
X168773025Y-67571668D01*
X169233740Y-67695477D02*
X169396240Y-66395477D01*
X169334335Y-66890715D02*
X169437311Y-66828811D01*
X169437311Y-66828811D02*
X169627787Y-66828811D01*
X169627787Y-66828811D02*
X169715287Y-66890715D01*
X169715287Y-66890715D02*
X169755168Y-66952620D01*
X169755168Y-66952620D02*
X169787311Y-67076430D01*
X169787311Y-67076430D02*
X169740883Y-67447858D01*
X169740883Y-67447858D02*
X169677787Y-67571668D01*
X169677787Y-67571668D02*
X169622430Y-67633573D01*
X169622430Y-67633573D02*
X169519454Y-67695477D01*
X169519454Y-67695477D02*
X169328978Y-67695477D01*
X169328978Y-67695477D02*
X169241478Y-67633573D01*
X170675406Y-66828811D02*
X170567073Y-67695477D01*
X170246835Y-66828811D02*
X170161716Y-67509763D01*
X170161716Y-67509763D02*
X170193859Y-67633573D01*
X170193859Y-67633573D02*
X170281359Y-67695477D01*
X170281359Y-67695477D02*
X170424216Y-67695477D01*
X170424216Y-67695477D02*
X170527192Y-67633573D01*
X170527192Y-67633573D02*
X170582549Y-67571668D01*
X171186121Y-67695477D02*
X171098621Y-67633573D01*
X171098621Y-67633573D02*
X171066478Y-67509763D01*
X171066478Y-67509763D02*
X171205764Y-66395477D01*
X171995645Y-67695477D02*
X172080764Y-67014525D01*
X172080764Y-67014525D02*
X172048621Y-66890715D01*
X172048621Y-66890715D02*
X171961121Y-66828811D01*
X171961121Y-66828811D02*
X171770645Y-66828811D01*
X171770645Y-66828811D02*
X171667669Y-66890715D01*
X172003383Y-67633573D02*
X171900407Y-67695477D01*
X171900407Y-67695477D02*
X171662312Y-67695477D01*
X171662312Y-67695477D02*
X171574812Y-67633573D01*
X171574812Y-67633573D02*
X171542669Y-67509763D01*
X171542669Y-67509763D02*
X171558145Y-67385953D01*
X171558145Y-67385953D02*
X171621240Y-67262144D01*
X171621240Y-67262144D02*
X171724217Y-67200239D01*
X171724217Y-67200239D02*
X171962312Y-67200239D01*
X171962312Y-67200239D02*
X172065288Y-67138334D01*
X172860526Y-67633573D02*
X172757550Y-67695477D01*
X172757550Y-67695477D02*
X172567074Y-67695477D01*
X172567074Y-67695477D02*
X172479574Y-67633573D01*
X172479574Y-67633573D02*
X172447431Y-67509763D01*
X172447431Y-67509763D02*
X172509336Y-67014525D01*
X172509336Y-67014525D02*
X172572431Y-66890715D01*
X172572431Y-66890715D02*
X172675407Y-66828811D01*
X172675407Y-66828811D02*
X172865883Y-66828811D01*
X172865883Y-66828811D02*
X172953383Y-66890715D01*
X172953383Y-66890715D02*
X172985526Y-67014525D01*
X172985526Y-67014525D02*
X172970050Y-67138334D01*
X172970050Y-67138334D02*
X172478383Y-67262144D01*
X159518263Y-69416976D02*
X159994454Y-69416976D01*
X159376597Y-69788404D02*
X159872430Y-68488404D01*
X159872430Y-68488404D02*
X160043263Y-69788404D01*
X160389692Y-68921738D02*
X160519454Y-69788404D01*
X160519454Y-69788404D02*
X160865882Y-68921738D01*
X161138502Y-69788404D02*
X161246835Y-68921738D01*
X161301002Y-68488404D02*
X161245645Y-68550309D01*
X161245645Y-68550309D02*
X161285525Y-68612214D01*
X161285525Y-68612214D02*
X161340883Y-68550309D01*
X161340883Y-68550309D02*
X161301002Y-68488404D01*
X161301002Y-68488404D02*
X161285525Y-68612214D01*
X161757549Y-69788404D02*
X161670049Y-69726500D01*
X161670049Y-69726500D02*
X161630168Y-69664595D01*
X161630168Y-69664595D02*
X161598025Y-69540785D01*
X161598025Y-69540785D02*
X161644454Y-69169357D01*
X161644454Y-69169357D02*
X161707549Y-69045547D01*
X161707549Y-69045547D02*
X161762906Y-68983642D01*
X161762906Y-68983642D02*
X161865882Y-68921738D01*
X161865882Y-68921738D02*
X162008739Y-68921738D01*
X162008739Y-68921738D02*
X162096239Y-68983642D01*
X162096239Y-68983642D02*
X162136120Y-69045547D01*
X162136120Y-69045547D02*
X162168263Y-69169357D01*
X162168263Y-69169357D02*
X162121835Y-69540785D01*
X162121835Y-69540785D02*
X162058739Y-69664595D01*
X162058739Y-69664595D02*
X162003382Y-69726500D01*
X162003382Y-69726500D02*
X161900406Y-69788404D01*
X161900406Y-69788404D02*
X161757549Y-69788404D01*
X162627787Y-68921738D02*
X162519454Y-69788404D01*
X162612311Y-69045547D02*
X162667668Y-68983642D01*
X162667668Y-68983642D02*
X162770644Y-68921738D01*
X162770644Y-68921738D02*
X162913501Y-68921738D01*
X162913501Y-68921738D02*
X163001001Y-68983642D01*
X163001001Y-68983642D02*
X163033144Y-69107452D01*
X163033144Y-69107452D02*
X162948025Y-69788404D01*
X163424216Y-69788404D02*
X163532549Y-68921738D01*
X163586716Y-68488404D02*
X163531359Y-68550309D01*
X163531359Y-68550309D02*
X163571239Y-68612214D01*
X163571239Y-68612214D02*
X163626597Y-68550309D01*
X163626597Y-68550309D02*
X163586716Y-68488404D01*
X163586716Y-68488404D02*
X163571239Y-68612214D01*
X164336715Y-69726500D02*
X164233739Y-69788404D01*
X164233739Y-69788404D02*
X164043263Y-69788404D01*
X164043263Y-69788404D02*
X163955763Y-69726500D01*
X163955763Y-69726500D02*
X163915882Y-69664595D01*
X163915882Y-69664595D02*
X163883739Y-69540785D01*
X163883739Y-69540785D02*
X163930168Y-69169357D01*
X163930168Y-69169357D02*
X163993263Y-69045547D01*
X163993263Y-69045547D02*
X164048620Y-68983642D01*
X164048620Y-68983642D02*
X164151596Y-68921738D01*
X164151596Y-68921738D02*
X164342072Y-68921738D01*
X164342072Y-68921738D02*
X164429572Y-68983642D01*
X164717668Y-69726500D02*
X164805168Y-69788404D01*
X164805168Y-69788404D02*
X164995644Y-69788404D01*
X164995644Y-69788404D02*
X165098620Y-69726500D01*
X165098620Y-69726500D02*
X165161715Y-69602690D01*
X165161715Y-69602690D02*
X165169453Y-69540785D01*
X165169453Y-69540785D02*
X165137311Y-69416976D01*
X165137311Y-69416976D02*
X165049811Y-69355071D01*
X165049811Y-69355071D02*
X164906953Y-69355071D01*
X164906953Y-69355071D02*
X164819453Y-69293166D01*
X164819453Y-69293166D02*
X164787311Y-69169357D01*
X164787311Y-69169357D02*
X164795049Y-69107452D01*
X164795049Y-69107452D02*
X164858144Y-68983642D01*
X164858144Y-68983642D02*
X164961120Y-68921738D01*
X164961120Y-68921738D02*
X165103977Y-68921738D01*
X165103977Y-68921738D02*
X165191477Y-68983642D01*
X166342073Y-68921738D02*
X166471835Y-69788404D01*
X166471835Y-69788404D02*
X166818263Y-68921738D01*
X167614692Y-69788404D02*
X167043264Y-69788404D01*
X167328978Y-69788404D02*
X167491478Y-68488404D01*
X167491478Y-68488404D02*
X167373026Y-68674119D01*
X167373026Y-68674119D02*
X167262311Y-68797928D01*
X167262311Y-68797928D02*
X167159335Y-68859833D01*
X168058740Y-69664595D02*
X168098621Y-69726500D01*
X168098621Y-69726500D02*
X168043264Y-69788404D01*
X168043264Y-69788404D02*
X168003383Y-69726500D01*
X168003383Y-69726500D02*
X168058740Y-69664595D01*
X168058740Y-69664595D02*
X168043264Y-69788404D01*
X168872430Y-68488404D02*
X168967668Y-68488404D01*
X168967668Y-68488404D02*
X169055168Y-68550309D01*
X169055168Y-68550309D02*
X169095049Y-68612214D01*
X169095049Y-68612214D02*
X169127192Y-68736023D01*
X169127192Y-68736023D02*
X169143858Y-68983642D01*
X169143858Y-68983642D02*
X169105168Y-69293166D01*
X169105168Y-69293166D02*
X169026597Y-69540785D01*
X169026597Y-69540785D02*
X168963501Y-69664595D01*
X168963501Y-69664595D02*
X168908144Y-69726500D01*
X168908144Y-69726500D02*
X168805168Y-69788404D01*
X168805168Y-69788404D02*
X168709930Y-69788404D01*
X168709930Y-69788404D02*
X168622430Y-69726500D01*
X168622430Y-69726500D02*
X168582549Y-69664595D01*
X168582549Y-69664595D02*
X168550406Y-69540785D01*
X168550406Y-69540785D02*
X168533739Y-69293166D01*
X168533739Y-69293166D02*
X168572430Y-68983642D01*
X168572430Y-68983642D02*
X168651001Y-68736023D01*
X168651001Y-68736023D02*
X168714097Y-68612214D01*
X168714097Y-68612214D02*
X168769454Y-68550309D01*
X168769454Y-68550309D02*
X168872430Y-68488404D01*
X159539097Y-70581331D02*
X160110525Y-70581331D01*
X159662311Y-71881331D02*
X159824811Y-70581331D01*
X160424216Y-71881331D02*
X160336716Y-71819427D01*
X160336716Y-71819427D02*
X160296835Y-71757522D01*
X160296835Y-71757522D02*
X160264692Y-71633712D01*
X160264692Y-71633712D02*
X160311121Y-71262284D01*
X160311121Y-71262284D02*
X160374216Y-71138474D01*
X160374216Y-71138474D02*
X160429573Y-71076569D01*
X160429573Y-71076569D02*
X160532549Y-71014665D01*
X160532549Y-71014665D02*
X160675406Y-71014665D01*
X160675406Y-71014665D02*
X160762906Y-71076569D01*
X160762906Y-71076569D02*
X160802787Y-71138474D01*
X160802787Y-71138474D02*
X160834930Y-71262284D01*
X160834930Y-71262284D02*
X160788502Y-71633712D01*
X160788502Y-71633712D02*
X160725406Y-71757522D01*
X160725406Y-71757522D02*
X160670049Y-71819427D01*
X160670049Y-71819427D02*
X160567073Y-71881331D01*
X160567073Y-71881331D02*
X160424216Y-71881331D01*
X161294454Y-71014665D02*
X161186121Y-71881331D01*
X161278978Y-71138474D02*
X161334335Y-71076569D01*
X161334335Y-71076569D02*
X161437311Y-71014665D01*
X161437311Y-71014665D02*
X161580168Y-71014665D01*
X161580168Y-71014665D02*
X161667668Y-71076569D01*
X161667668Y-71076569D02*
X161699811Y-71200379D01*
X161699811Y-71200379D02*
X161614692Y-71881331D01*
X162103978Y-71014665D02*
X162233740Y-71881331D01*
X162580168Y-71014665D02*
X162233740Y-71881331D01*
X162233740Y-71881331D02*
X162099811Y-72190855D01*
X162099811Y-72190855D02*
X162044454Y-72252760D01*
X162044454Y-72252760D02*
X161941478Y-72314665D01*
D10*
X200894510Y-120750828D02*
X200894510Y-119250828D01*
X200894510Y-119250828D02*
X201465939Y-119250828D01*
X201465939Y-119250828D02*
X201608796Y-119322257D01*
X201608796Y-119322257D02*
X201680225Y-119393685D01*
X201680225Y-119393685D02*
X201751653Y-119536542D01*
X201751653Y-119536542D02*
X201751653Y-119750828D01*
X201751653Y-119750828D02*
X201680225Y-119893685D01*
X201680225Y-119893685D02*
X201608796Y-119965114D01*
X201608796Y-119965114D02*
X201465939Y-120036542D01*
X201465939Y-120036542D02*
X200894510Y-120036542D01*
X202037368Y-120893685D02*
X203180225Y-120893685D01*
X204251653Y-120750828D02*
X203537367Y-120750828D01*
X203537367Y-120750828D02*
X203537367Y-119250828D01*
X205037368Y-119250828D02*
X205323082Y-119250828D01*
X205323082Y-119250828D02*
X205465939Y-119322257D01*
X205465939Y-119322257D02*
X205608796Y-119465114D01*
X205608796Y-119465114D02*
X205680225Y-119750828D01*
X205680225Y-119750828D02*
X205680225Y-120250828D01*
X205680225Y-120250828D02*
X205608796Y-120536542D01*
X205608796Y-120536542D02*
X205465939Y-120679400D01*
X205465939Y-120679400D02*
X205323082Y-120750828D01*
X205323082Y-120750828D02*
X205037368Y-120750828D01*
X205037368Y-120750828D02*
X204894511Y-120679400D01*
X204894511Y-120679400D02*
X204751653Y-120536542D01*
X204751653Y-120536542D02*
X204680225Y-120250828D01*
X204680225Y-120250828D02*
X204680225Y-119750828D01*
X204680225Y-119750828D02*
X204751653Y-119465114D01*
X204751653Y-119465114D02*
X204894511Y-119322257D01*
X204894511Y-119322257D02*
X205037368Y-119250828D01*
X207180225Y-120750828D02*
X206680225Y-120036542D01*
X206323082Y-120750828D02*
X206323082Y-119250828D01*
X206323082Y-119250828D02*
X206894511Y-119250828D01*
X206894511Y-119250828D02*
X207037368Y-119322257D01*
X207037368Y-119322257D02*
X207108797Y-119393685D01*
X207108797Y-119393685D02*
X207180225Y-119536542D01*
X207180225Y-119536542D02*
X207180225Y-119750828D01*
X207180225Y-119750828D02*
X207108797Y-119893685D01*
X207108797Y-119893685D02*
X207037368Y-119965114D01*
X207037368Y-119965114D02*
X206894511Y-120036542D01*
X206894511Y-120036542D02*
X206323082Y-120036542D01*
X207751654Y-120322257D02*
X208465940Y-120322257D01*
X207608797Y-120750828D02*
X208108797Y-119250828D01*
X208108797Y-119250828D02*
X208608797Y-120750828D01*
D13*
G04 #@! TO.C,D4*
X194665000Y-97180000D02*
X194665000Y-99100000D01*
X194665000Y-99100000D02*
X197525000Y-99100000D01*
X197525000Y-97180000D02*
X194665000Y-97180000D01*
G04 #@! TO.C,L1*
X168470000Y-100992500D02*
X168470000Y-96772500D01*
X172690000Y-96772500D02*
X172690000Y-100992500D01*
G04 #@! TO.C,R6*
X201002936Y-97405000D02*
X201457064Y-97405000D01*
X201002936Y-98875000D02*
X201457064Y-98875000D01*
G04 #@! TO.C,D1*
X177200000Y-107650000D02*
X171690000Y-107650000D01*
X177200000Y-110950000D02*
X171690000Y-110950000D01*
X177200000Y-110950000D02*
X177200000Y-107650000D01*
G04 #@! TO.C,C2*
X175871248Y-99170000D02*
X177293752Y-99170000D01*
X175871248Y-101890000D02*
X177293752Y-101890000D01*
D14*
G04 #@! TO.C,G\u002A\u002A\u002A*
G36*
X155199089Y-68072336D02*
G01*
X155199511Y-68127065D01*
X155201492Y-68163663D01*
X155206103Y-68187589D01*
X155214418Y-68204303D01*
X155227507Y-68219264D01*
X155228046Y-68219805D01*
X155265017Y-68243625D01*
X155303666Y-68246071D01*
X155338878Y-68226899D01*
X155340659Y-68225167D01*
X155351428Y-68211617D01*
X155358362Y-68193513D01*
X155362270Y-68165808D01*
X155363958Y-68123454D01*
X155364254Y-68077698D01*
X155364254Y-67953825D01*
X155405545Y-67953825D01*
X155446836Y-67953825D01*
X155446836Y-68084183D01*
X155445250Y-68156598D01*
X155439645Y-68209885D01*
X155428756Y-68248351D01*
X155411315Y-68276302D01*
X155386054Y-68298046D01*
X155383383Y-68299827D01*
X155335118Y-68319700D01*
X155278504Y-68325813D01*
X155225175Y-68316955D01*
X155223789Y-68316460D01*
X155183845Y-68294561D01*
X155154192Y-68260221D01*
X155133847Y-68210937D01*
X155121824Y-68144208D01*
X155117138Y-68057534D01*
X155117020Y-68045255D01*
X155116506Y-67953825D01*
X155157797Y-67953825D01*
X155199089Y-67953825D01*
X155199089Y-68072336D01*
G37*
G36*
X153933756Y-67955253D02*
G01*
X153951500Y-67968832D01*
X153975238Y-67994139D01*
X154008610Y-68034181D01*
X154021600Y-68050202D01*
X154055927Y-68091655D01*
X154085334Y-68125287D01*
X154106480Y-68147395D01*
X154115666Y-68154382D01*
X154120117Y-68143490D01*
X154123522Y-68114424D01*
X154125348Y-68072600D01*
X154125517Y-68054103D01*
X154125517Y-67953825D01*
X154166808Y-67953825D01*
X154208099Y-67953825D01*
X154208099Y-68136686D01*
X154208099Y-68319547D01*
X154169758Y-68318968D01*
X154151428Y-68316836D01*
X154134391Y-68308860D01*
X154114976Y-68291755D01*
X154089514Y-68262240D01*
X154054336Y-68217029D01*
X154051110Y-68212791D01*
X154018065Y-68170566D01*
X153989530Y-68136374D01*
X153968807Y-68114029D01*
X153959679Y-68107192D01*
X153954758Y-68118120D01*
X153950959Y-68147436D01*
X153948826Y-68189941D01*
X153948555Y-68213370D01*
X153948555Y-68319547D01*
X153907263Y-68319547D01*
X153865972Y-68319547D01*
X153865972Y-68138025D01*
X153865972Y-67956503D01*
X153901679Y-67951262D01*
X153918363Y-67950398D01*
X153933756Y-67955253D01*
G37*
G36*
X154536748Y-67948226D02*
G01*
X154591619Y-67965801D01*
X154603405Y-67972664D01*
X154627837Y-67995078D01*
X154629249Y-68017478D01*
X154609214Y-68042306D01*
X154590382Y-68056481D01*
X154576113Y-68054074D01*
X154564199Y-68044274D01*
X154522870Y-68020767D01*
X154478184Y-68018170D01*
X154435298Y-68035389D01*
X154399370Y-68071330D01*
X154393578Y-68080489D01*
X154378914Y-68124856D01*
X154383823Y-68167340D01*
X154404341Y-68204404D01*
X154436505Y-68232507D01*
X154476351Y-68248110D01*
X154519916Y-68247673D01*
X154560547Y-68229592D01*
X154581767Y-68217382D01*
X154597193Y-68221038D01*
X154611794Y-68234301D01*
X154626960Y-68255725D01*
X154623720Y-68274343D01*
X154600393Y-68293104D01*
X154569417Y-68308719D01*
X154509860Y-68327849D01*
X154455052Y-68326599D01*
X154397521Y-68304775D01*
X154396388Y-68304178D01*
X154344954Y-68265498D01*
X154311147Y-68216214D01*
X154294735Y-68160765D01*
X154295487Y-68103586D01*
X154313173Y-68049114D01*
X154347561Y-68001786D01*
X154398420Y-67966039D01*
X154414354Y-67959173D01*
X154474614Y-67945799D01*
X154536748Y-67948226D01*
G37*
G36*
X155057519Y-67949447D02*
G01*
X155049935Y-67958077D01*
X155029679Y-67979685D01*
X155000492Y-68010297D01*
X154986734Y-68024610D01*
X154954796Y-68058697D01*
X154930349Y-68086573D01*
X154917196Y-68103825D01*
X154915949Y-68106737D01*
X154922649Y-68119140D01*
X154940788Y-68146020D01*
X154967424Y-68183143D01*
X154992945Y-68217469D01*
X155069940Y-68319547D01*
X155017106Y-68319547D01*
X154986010Y-68318096D01*
X154965109Y-68310483D01*
X154946499Y-68291822D01*
X154926503Y-68263509D01*
X154895586Y-68218188D01*
X154874304Y-68190043D01*
X154859203Y-68176615D01*
X154846829Y-68175449D01*
X154833729Y-68184088D01*
X154825474Y-68191648D01*
X154805594Y-68218949D01*
X154798259Y-68256054D01*
X154797974Y-68268515D01*
X154796958Y-68300312D01*
X154790467Y-68315063D01*
X154773340Y-68319313D01*
X154757731Y-68319547D01*
X154717487Y-68319547D01*
X154713490Y-68250355D01*
X154712084Y-68206243D01*
X154711805Y-68148724D01*
X154712668Y-68087963D01*
X154713252Y-68067494D01*
X154717011Y-67953825D01*
X154756953Y-67953825D01*
X154796896Y-67953825D01*
X154800384Y-68031981D01*
X154803873Y-68110138D01*
X154879045Y-68033055D01*
X154916761Y-67995554D01*
X154944421Y-67972147D01*
X154967607Y-67959260D01*
X154991901Y-67953319D01*
X155005868Y-67951864D01*
X155036994Y-67949732D01*
X155055391Y-67949137D01*
X155057519Y-67949447D01*
G37*
G36*
X156599170Y-71064084D02*
G01*
X156615356Y-71089880D01*
X156625454Y-71099562D01*
X156630457Y-71106166D01*
X156632123Y-71118103D01*
X156629815Y-71138071D01*
X156622894Y-71168770D01*
X156610721Y-71212900D01*
X156592658Y-71273160D01*
X156568067Y-71352248D01*
X156558485Y-71382702D01*
X156521591Y-71502274D01*
X156490881Y-71607118D01*
X156466767Y-71695665D01*
X156449660Y-71766346D01*
X156439974Y-71817595D01*
X156437825Y-71841870D01*
X156444343Y-71853903D01*
X156465094Y-71857588D01*
X156501872Y-71852663D01*
X156556472Y-71838870D01*
X156630688Y-71815950D01*
X156641332Y-71812464D01*
X156702241Y-71793089D01*
X156743757Y-71781657D01*
X156768501Y-71777617D01*
X156779092Y-71780418D01*
X156779953Y-71783319D01*
X156789748Y-71796821D01*
X156802851Y-71799807D01*
X156828191Y-71807129D01*
X156834387Y-71825665D01*
X156824193Y-71844791D01*
X156806424Y-71871229D01*
X156799534Y-71886064D01*
X156784672Y-71901895D01*
X156752411Y-71922585D01*
X156707798Y-71945719D01*
X156655880Y-71968885D01*
X156601704Y-71989669D01*
X156550316Y-72005656D01*
X156548451Y-72006145D01*
X156497704Y-72016417D01*
X156444139Y-72022854D01*
X156418653Y-72023959D01*
X156383496Y-72022723D01*
X156359333Y-72016155D01*
X156337572Y-71999962D01*
X156309623Y-71969854D01*
X156309056Y-71969210D01*
X156283286Y-71935791D01*
X156265799Y-71905183D01*
X156260863Y-71887902D01*
X156264863Y-71844976D01*
X156276079Y-71784033D01*
X156293332Y-71709108D01*
X156315443Y-71624237D01*
X156341234Y-71533455D01*
X156369527Y-71440796D01*
X156399142Y-71350295D01*
X156428903Y-71265987D01*
X156457630Y-71191908D01*
X156477518Y-71146072D01*
X156499988Y-71099933D01*
X156516594Y-71072722D01*
X156529669Y-71061243D01*
X156539443Y-71061345D01*
X156564501Y-71061007D01*
X156574852Y-71055440D01*
X156589519Y-71049616D01*
X156599170Y-71064084D01*
G37*
G36*
X152286098Y-71066587D02*
G01*
X152291017Y-71072279D01*
X152311437Y-71088811D01*
X152329394Y-71096935D01*
X152343718Y-71106331D01*
X152352540Y-71125504D01*
X152355953Y-71157223D01*
X152354054Y-71204253D01*
X152346938Y-71269362D01*
X152337606Y-71335961D01*
X152314128Y-71460699D01*
X152282283Y-71579044D01*
X152243368Y-71688309D01*
X152198677Y-71785804D01*
X152149505Y-71868842D01*
X152097149Y-71934734D01*
X152042902Y-71980791D01*
X152021032Y-71993026D01*
X151974885Y-72006337D01*
X151917839Y-72011072D01*
X151861031Y-72007081D01*
X151818888Y-71995721D01*
X151776332Y-71967601D01*
X151737034Y-71925453D01*
X151708166Y-71877966D01*
X151698765Y-71850199D01*
X151689179Y-71764174D01*
X151692771Y-71660145D01*
X151709403Y-71539586D01*
X151738936Y-71403972D01*
X151741544Y-71393713D01*
X151770884Y-71285754D01*
X151797718Y-71200247D01*
X151821955Y-71137421D01*
X151843505Y-71097503D01*
X151862276Y-71080724D01*
X151866015Y-71080160D01*
X151886288Y-71089715D01*
X151891525Y-71097856D01*
X151907334Y-71111682D01*
X151926132Y-71115553D01*
X151949908Y-71119133D01*
X151964440Y-71131679D01*
X151969889Y-71155896D01*
X151966412Y-71194490D01*
X151954169Y-71250166D01*
X151937592Y-71310839D01*
X151909479Y-71412101D01*
X151888599Y-71495573D01*
X151874117Y-71565637D01*
X151865195Y-71626677D01*
X151860998Y-71683074D01*
X151860398Y-71715371D01*
X151864523Y-71782380D01*
X151876719Y-71828865D01*
X151896722Y-71854111D01*
X151913746Y-71858795D01*
X151939457Y-71848840D01*
X151971412Y-71821784D01*
X152005729Y-71781836D01*
X152038525Y-71733206D01*
X152052341Y-71708490D01*
X152094242Y-71616051D01*
X152129197Y-71511472D01*
X152158380Y-71390756D01*
X152178228Y-71280717D01*
X152189515Y-71209923D01*
X152198158Y-71158818D01*
X152205331Y-71123809D01*
X152212208Y-71101301D01*
X152219963Y-71087701D01*
X152229771Y-71079414D01*
X152242804Y-71072846D01*
X152246713Y-71071047D01*
X152271714Y-71062175D01*
X152286098Y-71066587D01*
G37*
G36*
X156200162Y-71067044D02*
G01*
X156204178Y-71072897D01*
X156221823Y-71087943D01*
X156244696Y-71097186D01*
X156276020Y-71105048D01*
X156269327Y-71219427D01*
X156259387Y-71311062D01*
X156240660Y-71413500D01*
X156215092Y-71519194D01*
X156184627Y-71620599D01*
X156151212Y-71710167D01*
X156131999Y-71752214D01*
X156088455Y-71832767D01*
X156046852Y-71894449D01*
X156003955Y-71941405D01*
X155956524Y-71977783D01*
X155955312Y-71978555D01*
X155917597Y-71999155D01*
X155881512Y-72009143D01*
X155835055Y-72011716D01*
X155830894Y-72011700D01*
X155785359Y-72008813D01*
X155743868Y-72001872D01*
X155723492Y-71995568D01*
X155678907Y-71965454D01*
X155640266Y-71920095D01*
X155614456Y-71867821D01*
X155612520Y-71861378D01*
X155603483Y-71803543D01*
X155602426Y-71727849D01*
X155608839Y-71638450D01*
X155622214Y-71539501D01*
X155642040Y-71435157D01*
X155667808Y-71329573D01*
X155685037Y-71270173D01*
X155709154Y-71200345D01*
X155733567Y-71144801D01*
X155757028Y-71105287D01*
X155778286Y-71083550D01*
X155796096Y-71081333D01*
X155808292Y-71097856D01*
X155824425Y-71112964D01*
X155836573Y-71115553D01*
X155867861Y-71124908D01*
X155884190Y-71150407D01*
X155883127Y-71188200D01*
X155882936Y-71188961D01*
X155850508Y-71317014D01*
X155823951Y-71424527D01*
X155802906Y-71513715D01*
X155787013Y-71586797D01*
X155775913Y-71645989D01*
X155769245Y-71693507D01*
X155766650Y-71731568D01*
X155767768Y-71762388D01*
X155772239Y-71788186D01*
X155779703Y-71811176D01*
X155781301Y-71815103D01*
X155801320Y-71847599D01*
X155825974Y-71858199D01*
X155856604Y-71846886D01*
X155894553Y-71813646D01*
X155936122Y-71758574D01*
X155976586Y-71683342D01*
X156014711Y-71591385D01*
X156049264Y-71486136D01*
X156079013Y-71371030D01*
X156102724Y-71249502D01*
X156107085Y-71221730D01*
X156115954Y-71164017D01*
X156123077Y-71125183D01*
X156130107Y-71100757D01*
X156138695Y-71086269D01*
X156150495Y-71077248D01*
X156162703Y-71071264D01*
X156187183Y-71062592D01*
X156200162Y-71067044D01*
G37*
G36*
X154772388Y-71062594D02*
G01*
X154774379Y-71067719D01*
X154783880Y-71080213D01*
X154806734Y-71094629D01*
X154806822Y-71094672D01*
X154824288Y-71104668D01*
X154833639Y-71117375D01*
X154836926Y-71139311D01*
X154836197Y-71176998D01*
X154835762Y-71186747D01*
X154824653Y-71301804D01*
X154802589Y-71425121D01*
X154771535Y-71548968D01*
X154733457Y-71665619D01*
X154690319Y-71767345D01*
X154685859Y-71776289D01*
X154655233Y-71828484D01*
X154616617Y-71882588D01*
X154575584Y-71931555D01*
X154537703Y-71968339D01*
X154528308Y-71975576D01*
X154478406Y-71999792D01*
X154417360Y-72012967D01*
X154355872Y-72012964D01*
X154347300Y-72011700D01*
X154290960Y-71992632D01*
X154238936Y-71958349D01*
X154199404Y-71914747D01*
X154189940Y-71898189D01*
X154178717Y-71860257D01*
X154171430Y-71804964D01*
X154168183Y-71738228D01*
X154169079Y-71665971D01*
X154174221Y-71594113D01*
X154183506Y-71529652D01*
X154193845Y-71483151D01*
X154209026Y-71424228D01*
X154227429Y-71358267D01*
X154247437Y-71290654D01*
X154267432Y-71226773D01*
X154285796Y-71172007D01*
X154300911Y-71131741D01*
X154307316Y-71117606D01*
X154327665Y-71090171D01*
X154348521Y-71080646D01*
X154365293Y-71090500D01*
X154368998Y-71097856D01*
X154384775Y-71111562D01*
X154404273Y-71115553D01*
X154426035Y-71118462D01*
X154440108Y-71128919D01*
X154446483Y-71149514D01*
X154445146Y-71182839D01*
X154436089Y-71231484D01*
X154419299Y-71298042D01*
X154403261Y-71355553D01*
X154368310Y-71487824D01*
X154344632Y-71600027D01*
X154332233Y-71692048D01*
X154331117Y-71763770D01*
X154341291Y-71815078D01*
X154362760Y-71845857D01*
X154380434Y-71854269D01*
X154413504Y-71850906D01*
X154448706Y-71826468D01*
X154484946Y-71783253D01*
X154521130Y-71723558D01*
X154556166Y-71649683D01*
X154588959Y-71563924D01*
X154618417Y-71468581D01*
X154643445Y-71365951D01*
X154662481Y-71261454D01*
X154672924Y-71192896D01*
X154680764Y-71144243D01*
X154687000Y-71112086D01*
X154692633Y-71093010D01*
X154698662Y-71083606D01*
X154706089Y-71080459D01*
X154715616Y-71080160D01*
X154734664Y-71075177D01*
X154738987Y-71068363D01*
X154748542Y-71057896D01*
X154756683Y-71056565D01*
X154772388Y-71062594D01*
G37*
G36*
X152921251Y-71065222D02*
G01*
X152964836Y-71087689D01*
X152996882Y-71119094D01*
X153005536Y-71135304D01*
X153010785Y-71176606D01*
X153002494Y-71227457D01*
X152983411Y-71280335D01*
X152956282Y-71327716D01*
X152923856Y-71362078D01*
X152922302Y-71363208D01*
X152889810Y-71386344D01*
X152857087Y-71358227D01*
X152837160Y-71339013D01*
X152830067Y-71321431D01*
X152833307Y-71295513D01*
X152837273Y-71279249D01*
X152843920Y-71247388D01*
X152845615Y-71226391D01*
X152844557Y-71222764D01*
X152829861Y-71223268D01*
X152801355Y-71235074D01*
X152764065Y-71255269D01*
X152723014Y-71280940D01*
X152683227Y-71309176D01*
X152653780Y-71333353D01*
X152619618Y-71365585D01*
X152598173Y-71392118D01*
X152590482Y-71416153D01*
X152597580Y-71440888D01*
X152620504Y-71469524D01*
X152660290Y-71505261D01*
X152717975Y-71551299D01*
X152726523Y-71557958D01*
X152791697Y-71614522D01*
X152835259Y-71667172D01*
X152858267Y-71718533D01*
X152861781Y-71771233D01*
X152846859Y-71827895D01*
X152840934Y-71841757D01*
X152811197Y-71887821D01*
X152766061Y-71934913D01*
X152712499Y-71976568D01*
X152668527Y-72001515D01*
X152622211Y-72015748D01*
X152566574Y-72022446D01*
X152510754Y-72021422D01*
X152463890Y-72012493D01*
X152448402Y-72005979D01*
X152421082Y-71984304D01*
X152395287Y-71953544D01*
X152392360Y-71949015D01*
X152376121Y-71917278D01*
X152368902Y-71884600D01*
X152368791Y-71840965D01*
X152369504Y-71829301D01*
X152366170Y-71797794D01*
X152361713Y-71783699D01*
X152357948Y-71768177D01*
X152370048Y-71767502D01*
X152377704Y-71769747D01*
X152397203Y-71771819D01*
X152403006Y-71757290D01*
X152403083Y-71753412D01*
X152406662Y-71732357D01*
X152416784Y-71733009D01*
X152432529Y-71754694D01*
X152448557Y-71786738D01*
X152478094Y-71835249D01*
X152513981Y-71861655D01*
X152558396Y-71867077D01*
X152591585Y-71860266D01*
X152621829Y-71845810D01*
X152653817Y-71822619D01*
X152680907Y-71796551D01*
X152696458Y-71773460D01*
X152697962Y-71766459D01*
X152688606Y-71748069D01*
X152662472Y-71718862D01*
X152622188Y-71681438D01*
X152570387Y-71638399D01*
X152560685Y-71630758D01*
X152501816Y-71581128D01*
X152461483Y-71536931D01*
X152436994Y-71493308D01*
X152425653Y-71445401D01*
X152424764Y-71388352D01*
X152424899Y-71385968D01*
X152438023Y-71340315D01*
X152469868Y-71290454D01*
X152516623Y-71239177D01*
X152574479Y-71189278D01*
X152639624Y-71143549D01*
X152708248Y-71104782D01*
X152776538Y-71075771D01*
X152840686Y-71059308D01*
X152874324Y-71056609D01*
X152921251Y-71065222D01*
G37*
G36*
X151700351Y-71068982D02*
G01*
X151726524Y-71071688D01*
X151738900Y-71077754D01*
X151742368Y-71088451D01*
X151742424Y-71090974D01*
X151735681Y-71112662D01*
X151727677Y-71119537D01*
X151718983Y-71124867D01*
X151727677Y-71126419D01*
X151741097Y-71134923D01*
X151739275Y-71153051D01*
X151723715Y-71173804D01*
X151716204Y-71179770D01*
X151686000Y-71192645D01*
X151649377Y-71198306D01*
X151648368Y-71198316D01*
X151610354Y-71202002D01*
X151585663Y-71215718D01*
X151569752Y-71244054D01*
X151558567Y-71289035D01*
X151550671Y-71325084D01*
X151537879Y-71377729D01*
X151521730Y-71440866D01*
X151503766Y-71508391D01*
X151496664Y-71534363D01*
X151478050Y-71602739D01*
X151460206Y-71669818D01*
X151444797Y-71729234D01*
X151433489Y-71774620D01*
X151430714Y-71786425D01*
X151413549Y-71861525D01*
X151484424Y-71856399D01*
X151523539Y-71854276D01*
X151544082Y-71855931D01*
X151550931Y-71862538D01*
X151549834Y-71872164D01*
X151550977Y-71891580D01*
X151556915Y-71897237D01*
X151562138Y-71910363D01*
X151552959Y-71938696D01*
X151538180Y-71963196D01*
X151516013Y-71977938D01*
X151479594Y-71988169D01*
X151441279Y-71995434D01*
X151409688Y-71999799D01*
X151400314Y-72000364D01*
X151378784Y-72008551D01*
X151351742Y-72029067D01*
X151342492Y-72038248D01*
X151320008Y-72060544D01*
X151307523Y-72066486D01*
X151300194Y-72058060D01*
X151299341Y-72055944D01*
X151289187Y-72043871D01*
X151266943Y-72037634D01*
X151227113Y-72035762D01*
X151223900Y-72035757D01*
X151179322Y-72033431D01*
X151151214Y-72025305D01*
X151135913Y-72013333D01*
X151123579Y-71992565D01*
X151128229Y-71983116D01*
X151135408Y-71967052D01*
X151133886Y-71947625D01*
X151131970Y-71931438D01*
X151139648Y-71920955D01*
X151161832Y-71912607D01*
X151192082Y-71905347D01*
X151229145Y-71896228D01*
X151249409Y-71886529D01*
X151259164Y-71870809D01*
X151264697Y-71843625D01*
X151264901Y-71842338D01*
X151282533Y-71743361D01*
X151304887Y-71641403D01*
X151333569Y-71529605D01*
X151359758Y-71436689D01*
X151377544Y-71375003D01*
X151392738Y-71321488D01*
X151404223Y-71280149D01*
X151410880Y-71254986D01*
X151412094Y-71249275D01*
X151401691Y-71246406D01*
X151375413Y-71247454D01*
X151360450Y-71249196D01*
X151324220Y-71251647D01*
X151301492Y-71245110D01*
X151288509Y-71233847D01*
X151275504Y-71209721D01*
X151277922Y-71195929D01*
X151284656Y-71171244D01*
X151284189Y-71159520D01*
X151291242Y-71139860D01*
X151320340Y-71122066D01*
X151321926Y-71121395D01*
X151366681Y-71107087D01*
X151427706Y-71093500D01*
X151497680Y-71081798D01*
X151569283Y-71073146D01*
X151635194Y-71068706D01*
X151655488Y-71068363D01*
X151700351Y-71068982D01*
G37*
G36*
X154669113Y-66459881D02*
G01*
X154682742Y-66487315D01*
X154699926Y-66527031D01*
X154709106Y-66549923D01*
X154728898Y-66599542D01*
X154754807Y-66663108D01*
X154783652Y-66732882D01*
X154812253Y-66801128D01*
X154815780Y-66809468D01*
X154846712Y-66882884D01*
X154882342Y-66968043D01*
X154918457Y-67054842D01*
X154950842Y-67133177D01*
X154953566Y-67139798D01*
X154978147Y-67199548D01*
X154999810Y-67252147D01*
X155016854Y-67293467D01*
X155027576Y-67319383D01*
X155030177Y-67325608D01*
X155027332Y-67329856D01*
X155013495Y-67333258D01*
X154986702Y-67335892D01*
X154944992Y-67337836D01*
X154886401Y-67339171D01*
X154808967Y-67339974D01*
X154710727Y-67340324D01*
X154662770Y-67340355D01*
X154289092Y-67340355D01*
X154297280Y-67313811D01*
X154309203Y-67282185D01*
X154320382Y-67257773D01*
X154322343Y-67253458D01*
X154408657Y-67253458D01*
X154419115Y-67256196D01*
X154445147Y-67257683D01*
X154454415Y-67257773D01*
X154486046Y-67255126D01*
X154503250Y-67243883D01*
X154512612Y-67225330D01*
X154524998Y-67189819D01*
X154532949Y-67163393D01*
X154541132Y-67138158D01*
X154555475Y-67098878D01*
X154573947Y-67050631D01*
X154594515Y-66998493D01*
X154615148Y-66947543D01*
X154633811Y-66902857D01*
X154648475Y-66869511D01*
X154657106Y-66852585D01*
X154657625Y-66851914D01*
X154662087Y-66848491D01*
X154667036Y-66850418D01*
X154673672Y-66860376D01*
X154683196Y-66881045D01*
X154696808Y-66915106D01*
X154715709Y-66965241D01*
X154741099Y-67034129D01*
X154749561Y-67057215D01*
X154771103Y-67115924D01*
X154790242Y-67167901D01*
X154805272Y-67208530D01*
X154814489Y-67233191D01*
X154815999Y-67237127D01*
X154831023Y-67252217D01*
X154863082Y-67257676D01*
X154870021Y-67257773D01*
X154899105Y-67255301D01*
X154914964Y-67249146D01*
X154915949Y-67246909D01*
X154911533Y-67231864D01*
X154899716Y-67200759D01*
X154882640Y-67159110D01*
X154873545Y-67137783D01*
X154851055Y-67085245D01*
X154823470Y-67020186D01*
X154794715Y-66951887D01*
X154774628Y-66903848D01*
X154739307Y-66819695D01*
X154711666Y-66755435D01*
X154690739Y-66709007D01*
X154675560Y-66678349D01*
X154665163Y-66661401D01*
X154658582Y-66656102D01*
X154658498Y-66656101D01*
X154651143Y-66666420D01*
X154637235Y-66694609D01*
X154618688Y-66736511D01*
X154597412Y-66787972D01*
X154594715Y-66794721D01*
X154567903Y-66861552D01*
X154536032Y-66940201D01*
X154503147Y-67020722D01*
X154474093Y-67091243D01*
X154450892Y-67147510D01*
X154431310Y-67195538D01*
X154416947Y-67231358D01*
X154409405Y-67251001D01*
X154408657Y-67253458D01*
X154322343Y-67253458D01*
X154329119Y-67238547D01*
X154345311Y-67201069D01*
X154367448Y-67148910D01*
X154394017Y-67085642D01*
X154423507Y-67014837D01*
X154437715Y-66980532D01*
X154470161Y-66902147D01*
X154502303Y-66824676D01*
X154532117Y-66752986D01*
X154557578Y-66691944D01*
X154576661Y-66646417D01*
X154580761Y-66636697D01*
X154601521Y-66586639D01*
X154620600Y-66538977D01*
X154634623Y-66502183D01*
X154637133Y-66495127D01*
X154648844Y-66466716D01*
X154659024Y-66450846D01*
X154661379Y-66449644D01*
X154669113Y-66459881D01*
G37*
G36*
X157407659Y-71049580D02*
G01*
X157423988Y-71064711D01*
X157435415Y-71085870D01*
X157440640Y-71099237D01*
X157444903Y-71116745D01*
X157448313Y-71140812D01*
X157450978Y-71173856D01*
X157453007Y-71218296D01*
X157454510Y-71276550D01*
X157455596Y-71351036D01*
X157456373Y-71444172D01*
X157456951Y-71558378D01*
X157456974Y-71563978D01*
X157457137Y-71662816D01*
X157456832Y-71753813D01*
X157456103Y-71834374D01*
X157454993Y-71901901D01*
X157453546Y-71953798D01*
X157451805Y-71987467D01*
X157449814Y-72000312D01*
X157449673Y-72000364D01*
X157442093Y-72010179D01*
X157440612Y-72021993D01*
X157436979Y-72044521D01*
X157423545Y-72050849D01*
X157396510Y-72041805D01*
X157382228Y-72034691D01*
X157349260Y-72012402D01*
X157326887Y-71982903D01*
X157312784Y-71941196D01*
X157304625Y-71882286D01*
X157303299Y-71865116D01*
X157299005Y-71806021D01*
X157294476Y-71766744D01*
X157287658Y-71743577D01*
X157276499Y-71732814D01*
X157258944Y-71730748D01*
X157232942Y-71733671D01*
X157230666Y-71733978D01*
X157172662Y-71741670D01*
X157133204Y-71748119D01*
X157107606Y-71756194D01*
X157091179Y-71768763D01*
X157079237Y-71788697D01*
X157067093Y-71818863D01*
X157059442Y-71838774D01*
X157028735Y-71914474D01*
X157003460Y-71969712D01*
X156982409Y-72006667D01*
X156964372Y-72027519D01*
X156951016Y-72034123D01*
X156926895Y-72045202D01*
X156917987Y-72054768D01*
X156905217Y-72068563D01*
X156889503Y-72063972D01*
X156871383Y-72046571D01*
X156856030Y-72019733D01*
X156852140Y-71982989D01*
X156859878Y-71932899D01*
X156879412Y-71866023D01*
X156880231Y-71863576D01*
X156896114Y-71816177D01*
X156905068Y-71786901D01*
X156907370Y-71771403D01*
X156903298Y-71765335D01*
X156893126Y-71764354D01*
X156886545Y-71764415D01*
X156865935Y-71756597D01*
X156849730Y-71738872D01*
X156844297Y-71719827D01*
X156847862Y-71712236D01*
X156846891Y-71700301D01*
X156840036Y-71694307D01*
X156829217Y-71681711D01*
X156838420Y-71668619D01*
X156868811Y-71654174D01*
X156915108Y-71639350D01*
X156956003Y-71626976D01*
X156980945Y-71615313D01*
X156996676Y-71598625D01*
X157000830Y-71590030D01*
X157169270Y-71590030D01*
X157179585Y-71594477D01*
X157205032Y-71596078D01*
X157237366Y-71595176D01*
X157268339Y-71592112D01*
X157289707Y-71587229D01*
X157293691Y-71584869D01*
X157295809Y-71572075D01*
X157297751Y-71541841D01*
X157299411Y-71499737D01*
X157300682Y-71451333D01*
X157301459Y-71402201D01*
X157301633Y-71357911D01*
X157301101Y-71324033D01*
X157299753Y-71306138D01*
X157299042Y-71304681D01*
X157290794Y-71315050D01*
X157275815Y-71342308D01*
X157256348Y-71381524D01*
X157234635Y-71427764D01*
X157212921Y-71476097D01*
X157193447Y-71521590D01*
X157178458Y-71559312D01*
X157170196Y-71584329D01*
X157169270Y-71590030D01*
X157000830Y-71590030D01*
X157009940Y-71571180D01*
X157017497Y-71552283D01*
X157038754Y-71502366D01*
X157066796Y-71442093D01*
X157099211Y-71376089D01*
X157133587Y-71308980D01*
X157167514Y-71245391D01*
X157198579Y-71189949D01*
X157224372Y-71147278D01*
X157240775Y-71123987D01*
X157267818Y-71095765D01*
X157288831Y-71085429D01*
X157301109Y-71086715D01*
X157327549Y-71084439D01*
X157339662Y-71073185D01*
X157362877Y-71055403D01*
X157385285Y-71048210D01*
X157407659Y-71049580D01*
G37*
G36*
X155349478Y-71068691D02*
G01*
X155412571Y-71083403D01*
X155415268Y-71084419D01*
X155473243Y-71117438D01*
X155513456Y-71162632D01*
X155535823Y-71216544D01*
X155540257Y-71275720D01*
X155526672Y-71336703D01*
X155494984Y-71396038D01*
X155445105Y-71450270D01*
X155424747Y-71466377D01*
X155396611Y-71487132D01*
X155376410Y-71502361D01*
X155372351Y-71505560D01*
X155375180Y-71515710D01*
X155393911Y-71531485D01*
X155402665Y-71537000D01*
X155445023Y-71574846D01*
X155471486Y-71626200D01*
X155480905Y-71686152D01*
X155472133Y-71749792D01*
X155460067Y-71782567D01*
X155426261Y-71833891D01*
X155373380Y-71885436D01*
X155305741Y-71934341D01*
X155227664Y-71977743D01*
X155143464Y-72012781D01*
X155087013Y-72029839D01*
X155036580Y-72040502D01*
X154981319Y-72048738D01*
X154927690Y-72053973D01*
X154882152Y-72055631D01*
X154851165Y-72053136D01*
X154845375Y-72051366D01*
X154821709Y-72036388D01*
X154812089Y-72027962D01*
X154790213Y-72014371D01*
X154779435Y-72012162D01*
X154764201Y-72005985D01*
X154766747Y-71993165D01*
X154780278Y-71984301D01*
X154795977Y-71968191D01*
X154797974Y-71958830D01*
X154808006Y-71942335D01*
X154832257Y-71928207D01*
X154833366Y-71927812D01*
X154856431Y-71916863D01*
X154866513Y-71900015D01*
X154868759Y-71868560D01*
X154868759Y-71867909D01*
X154869388Y-71860481D01*
X155033924Y-71860481D01*
X155036570Y-71873394D01*
X155046788Y-71877964D01*
X155068000Y-71873530D01*
X155103627Y-71859432D01*
X155150869Y-71837925D01*
X155200325Y-71810435D01*
X155247594Y-71776622D01*
X155286898Y-71741290D01*
X155312456Y-71709239D01*
X155317003Y-71699900D01*
X155318997Y-71667901D01*
X155300841Y-71641957D01*
X155265536Y-71623554D01*
X155216081Y-71614181D01*
X155155476Y-71615322D01*
X155148084Y-71616175D01*
X155082888Y-71624321D01*
X155058406Y-71730651D01*
X155047523Y-71780380D01*
X155039127Y-71823441D01*
X155034468Y-71853197D01*
X155033924Y-71860481D01*
X154869388Y-71860481D01*
X154872462Y-71824153D01*
X154882786Y-71763043D01*
X154898550Y-71689494D01*
X154918576Y-71608418D01*
X154941682Y-71524732D01*
X154965776Y-71446325D01*
X155140101Y-71446325D01*
X155148849Y-71449510D01*
X155172107Y-71441309D01*
X155205400Y-71424346D01*
X155244251Y-71401242D01*
X155284184Y-71374621D01*
X155320723Y-71347105D01*
X155343553Y-71327127D01*
X155372457Y-71296423D01*
X155392708Y-71269283D01*
X155399646Y-71252791D01*
X155388778Y-71231568D01*
X155359554Y-71214789D01*
X155317041Y-71204072D01*
X155266308Y-71201034D01*
X155242361Y-71202582D01*
X155193775Y-71208883D01*
X155166658Y-71215974D01*
X155158888Y-71224962D01*
X155168341Y-71236950D01*
X155171586Y-71239424D01*
X155181744Y-71248466D01*
X155185937Y-71260157D01*
X155183895Y-71279971D01*
X155175346Y-71313377D01*
X155166394Y-71344220D01*
X155153947Y-71388053D01*
X155144683Y-71423589D01*
X155140260Y-71444386D01*
X155140101Y-71446325D01*
X154965776Y-71446325D01*
X154966690Y-71443349D01*
X154980586Y-71402045D01*
X155031100Y-71257122D01*
X155000069Y-71256961D01*
X154954058Y-71253356D01*
X154928691Y-71242353D01*
X154921851Y-71222784D01*
X154923240Y-71214485D01*
X154924330Y-71192311D01*
X154917228Y-71186337D01*
X154903689Y-71180195D01*
X154906416Y-71165136D01*
X154922658Y-71146210D01*
X154948392Y-71129104D01*
X155018402Y-71101228D01*
X155100002Y-71080628D01*
X155186707Y-71067924D01*
X155272028Y-71063738D01*
X155349478Y-71068691D01*
G37*
G36*
X153886953Y-71063821D02*
G01*
X153927234Y-71066863D01*
X153958877Y-71073862D01*
X153989337Y-71086058D01*
X154001445Y-71091958D01*
X154055339Y-71130283D01*
X154090564Y-71179516D01*
X154107204Y-71236241D01*
X154105341Y-71297043D01*
X154085059Y-71358509D01*
X154046440Y-71417223D01*
X153992307Y-71467745D01*
X153939361Y-71507304D01*
X153997046Y-71562906D01*
X154027850Y-71593769D01*
X154045127Y-71616856D01*
X154052774Y-71640299D01*
X154054691Y-71672230D01*
X154054732Y-71683252D01*
X154050928Y-71732621D01*
X154036739Y-71773698D01*
X154020580Y-71801849D01*
X153967163Y-71866215D01*
X153894233Y-71924243D01*
X153805436Y-71974125D01*
X153704415Y-72014052D01*
X153594815Y-72042215D01*
X153512047Y-72054251D01*
X153468143Y-72057461D01*
X153439621Y-72055563D01*
X153418582Y-72047294D01*
X153404009Y-72036985D01*
X153377044Y-72019801D01*
X153354684Y-72012184D01*
X153353870Y-72012162D01*
X153337382Y-72005510D01*
X153338225Y-71991648D01*
X153352781Y-71981036D01*
X153367702Y-71964947D01*
X153370477Y-71951912D01*
X153378487Y-71933905D01*
X153398612Y-71929579D01*
X153414803Y-71927263D01*
X153424533Y-71916613D01*
X153430767Y-71892081D01*
X153434517Y-71864370D01*
X153596402Y-71864370D01*
X153600022Y-71877844D01*
X153614734Y-71879471D01*
X153644383Y-71870154D01*
X153678588Y-71856588D01*
X153745539Y-71824794D01*
X153803524Y-71788426D01*
X153849131Y-71750332D01*
X153878949Y-71713359D01*
X153889567Y-71680513D01*
X153878651Y-71653773D01*
X153848538Y-71633448D01*
X153803184Y-71621402D01*
X153758876Y-71618969D01*
X153716924Y-71620482D01*
X153685514Y-71624911D01*
X153662366Y-71635401D01*
X153645202Y-71655097D01*
X153631742Y-71687145D01*
X153619707Y-71734689D01*
X153606817Y-71800875D01*
X153600027Y-71838149D01*
X153596402Y-71864370D01*
X153434517Y-71864370D01*
X153434872Y-71861744D01*
X153442459Y-71815912D01*
X153455799Y-71752861D01*
X153473510Y-71677860D01*
X153494208Y-71596180D01*
X153516512Y-71513092D01*
X153533106Y-71454730D01*
X153700809Y-71454730D01*
X153709820Y-71459046D01*
X153735414Y-71450036D01*
X153775415Y-71428686D01*
X153821022Y-71400331D01*
X153885921Y-71354243D01*
X153929810Y-71314032D01*
X153954088Y-71278187D01*
X153960352Y-71250087D01*
X153955786Y-71230989D01*
X153938202Y-71218213D01*
X153911052Y-71209364D01*
X153861233Y-71202777D01*
X153803306Y-71204754D01*
X153750863Y-71214588D01*
X153740081Y-71218238D01*
X153729683Y-71225891D01*
X153736826Y-71239360D01*
X153741099Y-71244220D01*
X153749166Y-71256226D01*
X153751405Y-71272011D01*
X153747274Y-71297033D01*
X153736231Y-71336747D01*
X153729812Y-71357788D01*
X153716553Y-71401090D01*
X153706477Y-71434618D01*
X153701213Y-71452931D01*
X153700809Y-71454730D01*
X153533106Y-71454730D01*
X153539038Y-71433865D01*
X153560402Y-71363769D01*
X153579223Y-71308076D01*
X153582373Y-71299621D01*
X153592210Y-71271129D01*
X153590242Y-71259605D01*
X153573319Y-71260067D01*
X153559237Y-71263021D01*
X153532452Y-71265265D01*
X153523845Y-71258060D01*
X153514212Y-71247005D01*
X153504773Y-71245325D01*
X153491037Y-71238098D01*
X153491871Y-71221730D01*
X153492532Y-71202918D01*
X153487348Y-71198135D01*
X153478380Y-71188345D01*
X153476655Y-71176712D01*
X153487829Y-71153319D01*
X153518885Y-71130357D01*
X153566119Y-71109011D01*
X153625829Y-71090466D01*
X153694314Y-71075906D01*
X153767870Y-71066516D01*
X153830580Y-71063491D01*
X153886953Y-71063821D01*
G37*
G36*
X157850851Y-71066240D02*
G01*
X157864988Y-71078122D01*
X157876664Y-71080160D01*
X157899786Y-71089100D01*
X157914022Y-71102973D01*
X157922808Y-71112827D01*
X157935337Y-71118900D01*
X157956181Y-71121647D01*
X157989917Y-71121525D01*
X158041119Y-71118987D01*
X158062253Y-71117720D01*
X158138023Y-71114242D01*
X158192318Y-71114581D01*
X158226981Y-71118929D01*
X158243851Y-71127477D01*
X158245908Y-71136890D01*
X158252745Y-71152265D01*
X158266554Y-71162805D01*
X158278937Y-71169624D01*
X158283873Y-71176776D01*
X158280131Y-71189508D01*
X158266481Y-71213068D01*
X158247733Y-71243021D01*
X158235852Y-71245388D01*
X158204628Y-71249513D01*
X158158207Y-71254900D01*
X158100736Y-71261055D01*
X158070685Y-71264114D01*
X158009184Y-71270526D01*
X157956546Y-71276499D01*
X157916986Y-71281517D01*
X157894719Y-71285062D01*
X157891427Y-71286073D01*
X157884314Y-71300713D01*
X157874161Y-71330290D01*
X157862772Y-71368258D01*
X157851951Y-71408075D01*
X157843501Y-71443197D01*
X157839227Y-71467081D01*
X157839725Y-71473633D01*
X157854790Y-71474548D01*
X157885875Y-71472480D01*
X157918411Y-71468840D01*
X157989081Y-71461287D01*
X158042350Y-71459016D01*
X158076396Y-71462003D01*
X158089398Y-71470224D01*
X158089474Y-71471126D01*
X158098017Y-71488762D01*
X158107644Y-71497858D01*
X158118714Y-71509245D01*
X158117965Y-71524435D01*
X158107281Y-71548294D01*
X158098515Y-71563175D01*
X158086740Y-71574845D01*
X158068584Y-71584274D01*
X158040676Y-71592434D01*
X157999642Y-71600297D01*
X157942110Y-71608835D01*
X157864707Y-71619018D01*
X157859423Y-71619694D01*
X157788638Y-71628743D01*
X157767533Y-71692387D01*
X157753860Y-71739340D01*
X157742860Y-71787064D01*
X157739385Y-71807413D01*
X157735990Y-71839241D01*
X157739316Y-71854167D01*
X157752189Y-71858558D01*
X157762197Y-71858795D01*
X157797045Y-71854113D01*
X157846455Y-71841528D01*
X157903664Y-71823231D01*
X157961908Y-71801413D01*
X158014423Y-71778266D01*
X158021302Y-71774858D01*
X158061743Y-71754756D01*
X158085568Y-71744496D01*
X158097169Y-71743180D01*
X158100939Y-71749910D01*
X158101272Y-71758516D01*
X158111107Y-71772928D01*
X158124867Y-71776212D01*
X158143846Y-71784608D01*
X158147991Y-71802488D01*
X158136664Y-71817503D01*
X158126668Y-71834184D01*
X158124867Y-71847116D01*
X158114479Y-71864888D01*
X158086100Y-71888301D01*
X158043903Y-71914911D01*
X157992065Y-71942273D01*
X157934759Y-71967944D01*
X157888917Y-71985233D01*
X157821758Y-72003123D01*
X157755398Y-72011670D01*
X157695539Y-72010798D01*
X157647880Y-72000428D01*
X157626434Y-71988788D01*
X157603002Y-71962665D01*
X157581635Y-71926740D01*
X157577274Y-71916817D01*
X157567068Y-71879787D01*
X157565501Y-71837398D01*
X157573019Y-71784920D01*
X157590068Y-71717621D01*
X157598894Y-71687979D01*
X157608850Y-71645520D01*
X157607549Y-71620899D01*
X157605435Y-71617784D01*
X157593121Y-71590902D01*
X157597052Y-71559212D01*
X157615095Y-71532700D01*
X157625009Y-71526159D01*
X157642442Y-71513613D01*
X157656755Y-71492272D01*
X157670682Y-71456964D01*
X157683016Y-71416479D01*
X157696440Y-71364463D01*
X157700880Y-71330861D01*
X157696133Y-71312182D01*
X157681996Y-71304941D01*
X157676499Y-71304493D01*
X157669510Y-71294319D01*
X157659444Y-71269202D01*
X157656399Y-71260072D01*
X157650023Y-71225312D01*
X157659493Y-71202171D01*
X157687652Y-71187031D01*
X157719934Y-71179270D01*
X157746958Y-71170269D01*
X157765985Y-71151263D01*
X157782169Y-71119993D01*
X157801388Y-71085889D01*
X157821928Y-71063544D01*
X157839792Y-71056086D01*
X157850851Y-71066240D01*
G37*
G36*
X154499861Y-64141526D02*
G01*
X154514901Y-64168641D01*
X154534077Y-64208056D01*
X154546097Y-64234665D01*
X154591518Y-64337893D01*
X154594732Y-65069013D01*
X154595446Y-65198270D01*
X154596405Y-65320530D01*
X154597573Y-65433753D01*
X154598916Y-65535898D01*
X154600400Y-65624924D01*
X154601990Y-65698790D01*
X154603651Y-65755456D01*
X154605349Y-65792881D01*
X154607049Y-65809026D01*
X154607275Y-65809461D01*
X154615389Y-65804407D01*
X154626963Y-65781805D01*
X154637107Y-65753748D01*
X154649749Y-65718732D01*
X154661346Y-65695120D01*
X154667741Y-65688706D01*
X154676462Y-65698956D01*
X154689748Y-65725882D01*
X154704785Y-65763750D01*
X154705375Y-65765390D01*
X154720258Y-65803555D01*
X154733249Y-65831019D01*
X154741625Y-65842055D01*
X154741830Y-65842074D01*
X154743421Y-65830613D01*
X154744922Y-65797579D01*
X154746306Y-65744994D01*
X154747551Y-65674879D01*
X154748629Y-65589256D01*
X154749517Y-65490147D01*
X154750189Y-65379573D01*
X154750619Y-65259555D01*
X154750783Y-65132117D01*
X154750784Y-65122015D01*
X154750784Y-64401957D01*
X154805800Y-64266697D01*
X154827301Y-64215134D01*
X154846026Y-64172636D01*
X154860059Y-64143385D01*
X154867486Y-64131562D01*
X154867737Y-64131494D01*
X154873945Y-64141815D01*
X154889758Y-64171671D01*
X154914358Y-64219432D01*
X154946923Y-64283468D01*
X154986633Y-64362147D01*
X155032667Y-64453839D01*
X155084205Y-64556913D01*
X155140427Y-64669739D01*
X155200511Y-64790686D01*
X155263639Y-64918124D01*
X155269874Y-64930730D01*
X155665090Y-65729910D01*
X155662968Y-65814863D01*
X155656043Y-65887860D01*
X155640018Y-65946174D01*
X155638123Y-65950578D01*
X155624374Y-65975223D01*
X155598939Y-66015093D01*
X155564288Y-66066537D01*
X155522895Y-66125907D01*
X155477232Y-66189553D01*
X155463282Y-66208647D01*
X155414609Y-66275093D01*
X155367070Y-66340198D01*
X155323721Y-66399761D01*
X155287618Y-66449581D01*
X155261816Y-66485459D01*
X155258076Y-66490712D01*
X155223291Y-66538566D01*
X155185080Y-66589428D01*
X155154848Y-66628314D01*
X155129512Y-66661925D01*
X155111485Y-66689379D01*
X155104709Y-66704598D01*
X155109270Y-66721733D01*
X155121162Y-66753090D01*
X155135932Y-66787611D01*
X155153125Y-66824657D01*
X155164715Y-66843467D01*
X155174414Y-66847480D01*
X155185936Y-66840137D01*
X155189342Y-66837106D01*
X155202592Y-66821933D01*
X155227289Y-66790676D01*
X155261100Y-66746404D01*
X155301693Y-66692187D01*
X155346734Y-66631093D01*
X155366621Y-66603842D01*
X155416561Y-66535252D01*
X155466349Y-66466970D01*
X155512744Y-66403435D01*
X155552502Y-66349089D01*
X155582379Y-66308371D01*
X155587503Y-66301414D01*
X155625707Y-66249230D01*
X155667112Y-66192112D01*
X155703842Y-66140934D01*
X155709779Y-66132586D01*
X155743416Y-66088261D01*
X155773420Y-66057890D01*
X155807465Y-66034715D01*
X155839551Y-66018332D01*
X155875448Y-66002639D01*
X155908839Y-65992006D01*
X155943994Y-65986359D01*
X155985178Y-65985625D01*
X156036660Y-65989729D01*
X156102706Y-65998598D01*
X156187584Y-66012158D01*
X156188473Y-66012306D01*
X156261642Y-66024076D01*
X156337996Y-66035724D01*
X156409125Y-66046004D01*
X156466617Y-66053671D01*
X156473218Y-66054479D01*
X156526746Y-66061420D01*
X156595655Y-66071067D01*
X156672045Y-66082278D01*
X156748019Y-66093912D01*
X156768155Y-66097092D01*
X156874887Y-66113812D01*
X156983346Y-66130315D01*
X157089533Y-66146030D01*
X157189451Y-66160384D01*
X157279105Y-66172806D01*
X157354496Y-66182725D01*
X157411627Y-66189567D01*
X157422916Y-66190764D01*
X157477326Y-66196535D01*
X157512385Y-66202856D01*
X157528797Y-66212886D01*
X157527269Y-66229787D01*
X157508507Y-66256717D01*
X157473217Y-66296837D01*
X157451860Y-66320335D01*
X157355833Y-66426049D01*
X157165222Y-66500297D01*
X157089979Y-66529634D01*
X157010453Y-66560688D01*
X156934246Y-66590488D01*
X156868957Y-66616064D01*
X156844839Y-66625530D01*
X156793484Y-66645659D01*
X156725825Y-66672107D01*
X156647553Y-66702655D01*
X156564361Y-66735080D01*
X156481938Y-66767163D01*
X156467319Y-66772848D01*
X156384034Y-66805268D01*
X156297415Y-66839046D01*
X156213587Y-66871790D01*
X156138671Y-66901109D01*
X156078791Y-66924610D01*
X156072103Y-66927242D01*
X156011192Y-66951078D01*
X155935321Y-66980547D01*
X155851592Y-67012903D01*
X155767103Y-67045402D01*
X155706381Y-67068649D01*
X155603970Y-67107803D01*
X155521485Y-67139470D01*
X155456783Y-67164512D01*
X155407723Y-67183791D01*
X155372163Y-67198170D01*
X155347960Y-67208511D01*
X155332972Y-67215677D01*
X155325057Y-67220531D01*
X155322434Y-67223235D01*
X155324087Y-67237666D01*
X155333651Y-67266599D01*
X155345977Y-67296621D01*
X155374715Y-67361602D01*
X155525801Y-67302955D01*
X155591952Y-67277363D01*
X155660308Y-67251063D01*
X155722799Y-67227150D01*
X155771267Y-67208756D01*
X155823126Y-67188961D01*
X155887300Y-67164085D01*
X155954214Y-67137854D01*
X155995419Y-67121532D01*
X156058502Y-67096649D01*
X156134138Y-67067169D01*
X156212792Y-67036793D01*
X156284458Y-67009399D01*
X156348005Y-66985128D01*
X156428792Y-66954047D01*
X156522845Y-66917702D01*
X156626188Y-66877643D01*
X156734846Y-66835417D01*
X156844846Y-66792572D01*
X156952211Y-66750655D01*
X157052967Y-66711216D01*
X157143139Y-66675802D01*
X157218753Y-66645962D01*
X157269940Y-66625602D01*
X157327147Y-66603166D01*
X157370086Y-66588307D01*
X157406246Y-66579471D01*
X157443114Y-66575102D01*
X157488179Y-66573643D01*
X157520637Y-66573518D01*
X157570739Y-66574353D01*
X157610658Y-66576605D01*
X157635454Y-66579900D01*
X157641170Y-66582684D01*
X157639301Y-66589066D01*
X157633068Y-66600175D01*
X157621532Y-66617184D01*
X157603753Y-66641262D01*
X157578790Y-66673581D01*
X157545705Y-66715311D01*
X157503556Y-66767624D01*
X157451405Y-66831690D01*
X157388312Y-66908680D01*
X157313336Y-66999765D01*
X157225538Y-67106117D01*
X157123978Y-67228905D01*
X157074996Y-67288071D01*
X157043142Y-67326578D01*
X156999384Y-67379529D01*
X156946829Y-67443165D01*
X156888582Y-67513723D01*
X156827748Y-67587443D01*
X156774661Y-67651799D01*
X156707696Y-67732623D01*
X156653107Y-67797113D01*
X156608479Y-67847319D01*
X156571397Y-67885291D01*
X156539447Y-67913079D01*
X156510212Y-67932731D01*
X156481279Y-67946300D01*
X156450233Y-67955833D01*
X156414658Y-67963380D01*
X156405630Y-67965042D01*
X156388849Y-67968337D01*
X156374722Y-67971034D01*
X156361133Y-67972590D01*
X156345967Y-67972458D01*
X156327109Y-67970094D01*
X156302444Y-67964953D01*
X156269856Y-67956490D01*
X156227230Y-67944160D01*
X156172451Y-67927418D01*
X156103404Y-67905719D01*
X156017972Y-67878519D01*
X155914042Y-67845271D01*
X155803585Y-67809934D01*
X155729056Y-67786475D01*
X155662169Y-67766116D01*
X155606134Y-67749776D01*
X155564159Y-67738376D01*
X155539452Y-67732835D01*
X155534237Y-67732719D01*
X155534975Y-67746141D01*
X155543098Y-67775430D01*
X155556920Y-67814673D01*
X155559507Y-67821376D01*
X155591507Y-67903303D01*
X155657792Y-67923734D01*
X155687345Y-67933003D01*
X155735431Y-67948273D01*
X155798129Y-67968292D01*
X155871519Y-67991805D01*
X155951683Y-68017560D01*
X156014909Y-68037920D01*
X156105101Y-68067190D01*
X156175836Y-68090759D01*
X156230200Y-68109893D01*
X156271279Y-68125860D01*
X156302158Y-68139926D01*
X156325924Y-68153359D01*
X156345661Y-68167426D01*
X156360381Y-68179772D01*
X156392866Y-68211179D01*
X156419603Y-68241973D01*
X156431386Y-68259514D01*
X156438051Y-68281745D01*
X156445897Y-68322729D01*
X156454178Y-68377705D01*
X156462150Y-68441910D01*
X156466708Y-68485265D01*
X156475439Y-68571272D01*
X156485864Y-68668770D01*
X156496780Y-68766761D01*
X156506981Y-68854247D01*
X156508661Y-68868130D01*
X156515589Y-68926040D01*
X156524605Y-69002998D01*
X156535203Y-69094600D01*
X156546878Y-69196442D01*
X156559124Y-69304120D01*
X156571436Y-69413231D01*
X156579096Y-69481600D01*
X156590400Y-69582029D01*
X156601305Y-69677462D01*
X156611440Y-69764758D01*
X156620433Y-69840778D01*
X156627914Y-69902381D01*
X156633512Y-69946429D01*
X156636582Y-69968150D01*
X156646626Y-70029991D01*
X156541689Y-69974049D01*
X156436753Y-69918107D01*
X156253391Y-69646765D01*
X156197710Y-69564884D01*
X156139138Y-69479660D01*
X156081080Y-69395983D01*
X156026938Y-69318743D01*
X155980118Y-69252827D01*
X155953605Y-69216156D01*
X155913191Y-69160471D01*
X155862825Y-69090446D01*
X155838830Y-69056890D01*
X155992131Y-69056890D01*
X155999059Y-69106125D01*
X156027613Y-69155910D01*
X156076048Y-69203544D01*
X156096699Y-69218746D01*
X156136322Y-69245226D01*
X156160618Y-69258719D01*
X156173240Y-69260254D01*
X156177843Y-69250860D01*
X156178281Y-69241719D01*
X156176025Y-69218461D01*
X156170226Y-69181731D01*
X156165015Y-69154039D01*
X156144337Y-69091790D01*
X156111523Y-69049074D01*
X156067137Y-69026483D01*
X156040354Y-69022905D01*
X156010829Y-69023677D01*
X155997355Y-69031993D01*
X155992502Y-69053089D01*
X155992131Y-69056890D01*
X155838830Y-69056890D01*
X155806074Y-69011081D01*
X155746505Y-68927371D01*
X155687689Y-68844316D01*
X155653750Y-68796174D01*
X155604163Y-68726107D01*
X155558005Y-68661665D01*
X155517296Y-68605605D01*
X155484057Y-68560689D01*
X155460307Y-68529675D01*
X155448198Y-68515438D01*
X155430133Y-68504442D01*
X155403039Y-68499035D01*
X155360812Y-68498269D01*
X155341561Y-68498913D01*
X155257045Y-68502408D01*
X155290892Y-68549598D01*
X155311293Y-68578172D01*
X155343383Y-68623282D01*
X155385226Y-68682196D01*
X155434888Y-68752186D01*
X155490436Y-68830522D01*
X155549934Y-68914473D01*
X155611448Y-69001309D01*
X155673044Y-69088301D01*
X155732787Y-69172719D01*
X155788743Y-69251833D01*
X155838978Y-69322912D01*
X155871888Y-69369524D01*
X155924123Y-69443742D01*
X155980099Y-69523607D01*
X156035376Y-69602765D01*
X156085516Y-69674860D01*
X156123198Y-69729347D01*
X156163656Y-69787703D01*
X156203437Y-69844393D01*
X156238836Y-69894181D01*
X156266146Y-69931833D01*
X156274064Y-69942441D01*
X156300761Y-69981720D01*
X156317326Y-70019114D01*
X156328007Y-70065352D01*
X156331363Y-70087163D01*
X156339067Y-70137555D01*
X156347361Y-70185782D01*
X156353975Y-70219146D01*
X156359456Y-70248280D01*
X156360492Y-70264757D01*
X156359623Y-70266133D01*
X156348542Y-70260966D01*
X156318072Y-70246025D01*
X156269900Y-70222153D01*
X156205708Y-70190191D01*
X156127182Y-70150982D01*
X156036006Y-70105366D01*
X155933864Y-70054186D01*
X155822440Y-69998283D01*
X155703421Y-69938500D01*
X155602888Y-69887953D01*
X155440427Y-69805968D01*
X155295690Y-69732376D01*
X155169147Y-69667424D01*
X155061268Y-69611360D01*
X154972522Y-69564430D01*
X154903378Y-69526882D01*
X154854306Y-69498962D01*
X154825775Y-69480918D01*
X154819256Y-69475567D01*
X154796935Y-69442113D01*
X154774874Y-69393509D01*
X154755956Y-69338053D01*
X154743062Y-69284044D01*
X154738987Y-69244407D01*
X154738987Y-69204359D01*
X154662303Y-69204359D01*
X154585619Y-69204359D01*
X154585619Y-69256205D01*
X154580462Y-69309156D01*
X154566723Y-69367683D01*
X154547004Y-69424039D01*
X154523905Y-69470481D01*
X154505634Y-69494433D01*
X154485609Y-69509126D01*
X154448120Y-69532169D01*
X154396857Y-69561467D01*
X154335514Y-69594925D01*
X154267781Y-69630447D01*
X154249391Y-69639859D01*
X154180573Y-69674925D01*
X154095721Y-69718215D01*
X153999800Y-69767193D01*
X153897774Y-69819322D01*
X153794609Y-69872067D01*
X153695269Y-69922892D01*
X153671313Y-69935154D01*
X153578898Y-69982460D01*
X153486001Y-70030005D01*
X153396581Y-70075763D01*
X153314597Y-70117708D01*
X153244005Y-70153816D01*
X153188766Y-70182061D01*
X153170812Y-70191237D01*
X153117015Y-70218358D01*
X153070532Y-70241102D01*
X153035476Y-70257507D01*
X153015961Y-70265612D01*
X153013700Y-70266133D01*
X153007513Y-70256939D01*
X153008930Y-70245487D01*
X153013133Y-70224873D01*
X153019398Y-70187597D01*
X153026618Y-70140379D01*
X153029467Y-70120631D01*
X153038802Y-70064340D01*
X153049550Y-70024126D01*
X153064246Y-69992500D01*
X153081366Y-69967264D01*
X153098363Y-69943575D01*
X153126027Y-69903626D01*
X153162027Y-69850844D01*
X153204031Y-69788661D01*
X153249708Y-69720506D01*
X153279180Y-69676259D01*
X153337169Y-69589623D01*
X153403485Y-69491605D01*
X153472930Y-69389818D01*
X153540312Y-69291871D01*
X153600435Y-69205377D01*
X153605280Y-69198460D01*
X153664300Y-69113994D01*
X153724624Y-69027151D01*
X153784750Y-68940141D01*
X153843173Y-68855175D01*
X153898389Y-68774460D01*
X153948896Y-68700208D01*
X153993189Y-68634628D01*
X154029764Y-68579928D01*
X154057118Y-68538320D01*
X154073747Y-68512012D01*
X154078327Y-68503360D01*
X154067493Y-68500082D01*
X154038840Y-68497659D01*
X153998140Y-68496538D01*
X153990035Y-68496509D01*
X153901742Y-68496509D01*
X153784537Y-68670522D01*
X153735415Y-68743395D01*
X153695977Y-68801651D01*
X153662752Y-68850260D01*
X153632268Y-68894190D01*
X153601054Y-68938412D01*
X153565639Y-68987895D01*
X153522550Y-69047609D01*
X153481673Y-69104080D01*
X153441214Y-69160454D01*
X153404804Y-69212134D01*
X153375087Y-69255292D01*
X153354710Y-69286100D01*
X153347177Y-69298739D01*
X153329819Y-69325511D01*
X153303846Y-69357814D01*
X153293207Y-69369524D01*
X153266152Y-69402455D01*
X153235780Y-69445825D01*
X153213749Y-69481600D01*
X153188503Y-69524456D01*
X153153874Y-69581337D01*
X153113439Y-69646549D01*
X153070774Y-69714401D01*
X153029457Y-69779199D01*
X152993067Y-69835252D01*
X152967069Y-69874121D01*
X152944222Y-69902290D01*
X152914681Y-69927341D01*
X152872993Y-69953284D01*
X152825386Y-69978304D01*
X152718284Y-70032093D01*
X152724906Y-69998695D01*
X152728358Y-69976525D01*
X152733903Y-69935327D01*
X152740981Y-69879519D01*
X152749030Y-69813516D01*
X152756874Y-69747043D01*
X152765358Y-69674425D01*
X152775961Y-69584358D01*
X152787973Y-69482821D01*
X152800688Y-69375789D01*
X152813396Y-69269241D01*
X152818317Y-69228153D01*
X153174990Y-69228153D01*
X153175156Y-69254003D01*
X153179778Y-69263346D01*
X153193096Y-69257223D01*
X153219757Y-69241253D01*
X153250327Y-69221326D01*
X153309477Y-69172552D01*
X153345666Y-69121505D01*
X153358604Y-69068600D01*
X153358636Y-69065963D01*
X153354699Y-69037355D01*
X153339588Y-69023602D01*
X153331062Y-69020914D01*
X153296840Y-69022784D01*
X153258109Y-69040036D01*
X153222935Y-69068083D01*
X153203854Y-69093240D01*
X153194103Y-69118310D01*
X153185411Y-69153614D01*
X153178724Y-69192460D01*
X153174990Y-69228153D01*
X152818317Y-69228153D01*
X152823286Y-69186663D01*
X152835846Y-69080415D01*
X152849197Y-68964653D01*
X152862554Y-68846391D01*
X152865167Y-68822757D01*
X153454192Y-68822757D01*
X153455093Y-68837125D01*
X153458651Y-68838637D01*
X153470766Y-68830333D01*
X153496451Y-68806992D01*
X153533332Y-68770971D01*
X153579034Y-68724625D01*
X153631185Y-68670311D01*
X153672617Y-68626282D01*
X153870789Y-68413927D01*
X154664053Y-68413927D01*
X155457318Y-68413927D01*
X155485903Y-68440471D01*
X155502082Y-68456578D01*
X155531655Y-68487073D01*
X155571903Y-68529110D01*
X155620106Y-68579844D01*
X155673545Y-68636426D01*
X155701394Y-68666038D01*
X155754438Y-68721856D01*
X155801974Y-68770609D01*
X155841725Y-68810065D01*
X155871410Y-68837989D01*
X155888751Y-68852149D01*
X155892286Y-68853098D01*
X155889492Y-68838235D01*
X155878996Y-68806205D01*
X155862406Y-68761521D01*
X155841328Y-68708698D01*
X155838257Y-68701266D01*
X155817359Y-68650769D01*
X155789523Y-68583340D01*
X155756768Y-68503878D01*
X155721110Y-68417278D01*
X155684569Y-68328440D01*
X155659100Y-68266458D01*
X155623685Y-68180237D01*
X155588211Y-68093877D01*
X155554577Y-68012001D01*
X155524683Y-67939232D01*
X155500427Y-67880192D01*
X155487055Y-67847647D01*
X155468593Y-67802690D01*
X155443013Y-67740356D01*
X155412144Y-67665102D01*
X155377813Y-67581387D01*
X155341848Y-67493666D01*
X155310439Y-67417039D01*
X155273984Y-67328165D01*
X155237029Y-67238208D01*
X155201527Y-67151911D01*
X155169428Y-67074015D01*
X155142686Y-67009261D01*
X155125890Y-66968734D01*
X155099064Y-66904068D01*
X155071163Y-66836610D01*
X155045727Y-66774932D01*
X155028416Y-66732784D01*
X155012154Y-66693627D01*
X154988546Y-66637541D01*
X154959600Y-66569260D01*
X154927326Y-66493517D01*
X154893730Y-66415046D01*
X154882079Y-66387921D01*
X154851459Y-66316488D01*
X154824224Y-66252532D01*
X154801679Y-66199155D01*
X154785130Y-66159455D01*
X154775883Y-66136534D01*
X154774379Y-66132158D01*
X154769712Y-66119954D01*
X154757079Y-66091007D01*
X154738530Y-66049937D01*
X154720821Y-66011483D01*
X154667262Y-65896088D01*
X154636935Y-65960512D01*
X154619025Y-65999638D01*
X154595641Y-66052216D01*
X154570450Y-66109948D01*
X154556294Y-66142910D01*
X154490851Y-66296571D01*
X154429858Y-66440217D01*
X154374123Y-66571930D01*
X154324452Y-66689795D01*
X154281654Y-66791893D01*
X154246537Y-66876308D01*
X154219907Y-66941123D01*
X154218275Y-66945139D01*
X154195618Y-67000627D01*
X154175285Y-67049824D01*
X154159372Y-67087702D01*
X154149973Y-67109232D01*
X154149467Y-67110304D01*
X154140681Y-67130303D01*
X154125359Y-67166854D01*
X154105722Y-67214599D01*
X154085812Y-67263671D01*
X154067611Y-67308606D01*
X154042138Y-67371189D01*
X154011097Y-67447249D01*
X153976192Y-67532615D01*
X153939129Y-67623113D01*
X153901612Y-67714574D01*
X153895412Y-67729672D01*
X153813484Y-67929251D01*
X153740269Y-68107796D01*
X153675452Y-68266072D01*
X153618720Y-68404847D01*
X153569762Y-68524888D01*
X153528262Y-68626959D01*
X153493909Y-68711828D01*
X153482028Y-68741307D01*
X153463004Y-68791508D01*
X153454192Y-68822757D01*
X152865167Y-68822757D01*
X152875129Y-68732647D01*
X152886136Y-68630437D01*
X152892433Y-68570029D01*
X152902440Y-68474821D01*
X152911386Y-68399802D01*
X152920312Y-68341663D01*
X152930259Y-68297093D01*
X152942267Y-68262781D01*
X152957378Y-68235415D01*
X152976632Y-68211685D01*
X153001071Y-68188281D01*
X153016741Y-68174654D01*
X153041511Y-68156768D01*
X153075273Y-68138846D01*
X153121598Y-68119366D01*
X153184059Y-68096808D01*
X153254803Y-68073335D01*
X153333185Y-68047805D01*
X153417750Y-68019950D01*
X153500021Y-67992583D01*
X153571518Y-67968515D01*
X153594101Y-67960818D01*
X153741041Y-67910499D01*
X153773884Y-67819893D01*
X153806727Y-67729287D01*
X153774413Y-67737031D01*
X153750494Y-67744016D01*
X153710289Y-67757050D01*
X153659711Y-67774175D01*
X153612326Y-67790717D01*
X153490678Y-67833668D01*
X153388957Y-67869252D01*
X153304907Y-67898143D01*
X153236273Y-67921014D01*
X153180800Y-67938541D01*
X153136231Y-67951397D01*
X153100312Y-67960256D01*
X153070788Y-67965793D01*
X153045402Y-67968682D01*
X153021899Y-67969597D01*
X153013961Y-67969579D01*
X152948109Y-67964201D01*
X152891254Y-67947827D01*
X152838806Y-67917814D01*
X152786174Y-67871521D01*
X152728768Y-67806307D01*
X152727514Y-67804760D01*
X152663842Y-67726167D01*
X152606952Y-67656120D01*
X152553348Y-67590348D01*
X152499534Y-67524580D01*
X152442012Y-67454544D01*
X152377286Y-67375969D01*
X152301859Y-67284584D01*
X152280865Y-67259170D01*
X152211941Y-67175715D01*
X152154764Y-67106413D01*
X152106034Y-67047241D01*
X152062453Y-66994178D01*
X152020720Y-66943201D01*
X151977537Y-66890287D01*
X151929603Y-66831416D01*
X151887772Y-66779974D01*
X151833878Y-66712764D01*
X151791389Y-66657851D01*
X151761438Y-66616766D01*
X151745158Y-66591038D01*
X151742424Y-66583619D01*
X151753418Y-66579522D01*
X151783194Y-66576224D01*
X151826942Y-66574106D01*
X151869605Y-66573518D01*
X151928253Y-66574051D01*
X151971307Y-66576643D01*
X152006758Y-66582784D01*
X152042602Y-66593963D01*
X152086830Y-66611670D01*
X152096706Y-66615838D01*
X152155657Y-66640299D01*
X152219993Y-66666208D01*
X152277230Y-66688549D01*
X152285108Y-66691538D01*
X152332992Y-66709773D01*
X152401617Y-66736163D01*
X152489762Y-66770237D01*
X152596208Y-66811519D01*
X152719733Y-66859539D01*
X152859118Y-66913823D01*
X152942818Y-66946458D01*
X153080382Y-67000055D01*
X153201402Y-67047066D01*
X153311277Y-67089579D01*
X153415405Y-67129684D01*
X153512047Y-67166738D01*
X153586855Y-67195371D01*
X153668663Y-67226694D01*
X153748216Y-67257164D01*
X153816258Y-67283236D01*
X153824186Y-67286275D01*
X153877247Y-67306560D01*
X153921514Y-67323376D01*
X153952790Y-67335137D01*
X153966879Y-67340258D01*
X153967252Y-67340355D01*
X153974499Y-67330282D01*
X153985591Y-67305106D01*
X153997827Y-67272394D01*
X154008505Y-67239710D01*
X154014923Y-67214622D01*
X154015398Y-67205531D01*
X154002138Y-67194402D01*
X153972831Y-67179363D01*
X153934943Y-67164095D01*
X153888166Y-67146956D01*
X153823725Y-67122853D01*
X153745927Y-67093430D01*
X153659078Y-67060331D01*
X153567483Y-67025199D01*
X153475448Y-66989678D01*
X153387279Y-66955412D01*
X153346882Y-66939613D01*
X153291298Y-66917865D01*
X153219397Y-66889799D01*
X153136861Y-66857628D01*
X153049373Y-66823569D01*
X152962614Y-66789833D01*
X152933970Y-66778705D01*
X152848779Y-66745604D01*
X152760904Y-66711435D01*
X152676026Y-66678409D01*
X152599828Y-66648737D01*
X152537990Y-66624629D01*
X152521058Y-66618020D01*
X152453425Y-66591712D01*
X152373003Y-66560593D01*
X152289059Y-66528240D01*
X152210858Y-66498231D01*
X152197805Y-66493238D01*
X152022020Y-66426049D01*
X151935310Y-66325903D01*
X151900627Y-66285151D01*
X151872546Y-66250837D01*
X151854201Y-66226880D01*
X151848601Y-66217499D01*
X151859087Y-66211193D01*
X151885463Y-66205082D01*
X151898740Y-66203181D01*
X151969723Y-66194434D01*
X152042133Y-66185141D01*
X152118150Y-66174981D01*
X152199957Y-66163634D01*
X152289734Y-66150779D01*
X152389663Y-66136096D01*
X152501926Y-66119265D01*
X152628702Y-66099963D01*
X152772175Y-66077872D01*
X152934525Y-66052670D01*
X153117933Y-66024036D01*
X153122730Y-66023286D01*
X153219224Y-66008381D01*
X153295764Y-65997304D01*
X153355671Y-65990010D01*
X153402267Y-65986456D01*
X153438872Y-65986598D01*
X153468808Y-65990393D01*
X153495397Y-65997795D01*
X153521958Y-66008762D01*
X153540776Y-66017779D01*
X153586323Y-66043187D01*
X153621046Y-66071534D01*
X153653880Y-66110663D01*
X153666333Y-66128007D01*
X153690578Y-66162187D01*
X153725309Y-66210563D01*
X153767045Y-66268313D01*
X153812303Y-66330616D01*
X153848064Y-66379618D01*
X153898160Y-66448261D01*
X153951777Y-66521978D01*
X154004046Y-66594060D01*
X154050099Y-66657799D01*
X154072428Y-66688835D01*
X154107454Y-66736447D01*
X154138137Y-66775933D01*
X154161699Y-66803883D01*
X154175362Y-66816887D01*
X154177089Y-66817371D01*
X154186372Y-66805686D01*
X154200744Y-66777945D01*
X154216751Y-66740976D01*
X154232139Y-66700052D01*
X154238439Y-66674157D01*
X154236539Y-66656937D01*
X154230065Y-66645616D01*
X154215650Y-66625478D01*
X154192466Y-66592607D01*
X154165199Y-66553654D01*
X154161582Y-66548465D01*
X154132039Y-66506642D01*
X154091598Y-66450203D01*
X154043411Y-66383485D01*
X153990633Y-66310828D01*
X153936417Y-66236569D01*
X153883916Y-66165047D01*
X153836285Y-66100599D01*
X153823885Y-66083922D01*
X153782056Y-66025822D01*
X153753079Y-65979279D01*
X153734337Y-65938031D01*
X153723215Y-65895820D01*
X153717095Y-65846383D01*
X153715559Y-65824756D01*
X153709601Y-65729265D01*
X153792520Y-65558568D01*
X153814748Y-65512965D01*
X153845962Y-65449155D01*
X153884711Y-65370090D01*
X153929546Y-65278725D01*
X153979016Y-65178013D01*
X154031672Y-65070908D01*
X154086062Y-64960363D01*
X154136969Y-64856983D01*
X154189940Y-64749207D01*
X154241022Y-64644803D01*
X154289000Y-64546288D01*
X154332658Y-64456177D01*
X154370782Y-64376986D01*
X154402157Y-64311231D01*
X154425567Y-64261426D01*
X154439799Y-64230088D01*
X154440370Y-64228767D01*
X154459848Y-64185715D01*
X154476736Y-64152412D01*
X154488465Y-64133755D01*
X154491459Y-64131437D01*
X154499861Y-64141526D01*
G37*
D13*
G04 #@! TO.C,C_Damping2*
X175092500Y-95360000D02*
X175092500Y-98380000D01*
X175092500Y-98380000D02*
X179487500Y-98380000D01*
X179487500Y-95360000D02*
X175092500Y-95360000D01*
G04 #@! TO.C,U2*
X186127500Y-83300000D02*
X186177500Y-83300000D01*
X186127500Y-85120000D02*
X186127500Y-83300000D01*
X186177500Y-85120000D02*
X186127500Y-85120000D01*
X189197500Y-83300000D02*
X189247500Y-83300000D01*
X189247500Y-83300000D02*
X189247500Y-85120000D01*
X189247500Y-85120000D02*
X189197500Y-85120000D01*
X186177500Y-85660000D02*
X185847500Y-85900000D01*
X185847500Y-85420000D01*
X186177500Y-85660000D01*
G36*
X186177500Y-85660000D02*
G01*
X185847500Y-85900000D01*
X185847500Y-85420000D01*
X186177500Y-85660000D01*
G37*
G04 #@! TO.C,C12*
X185260000Y-117326248D02*
X185260000Y-118748752D01*
X187980000Y-117326248D02*
X187980000Y-118748752D01*
G04 #@! TO.C,C13*
X190330000Y-70071252D02*
X190330000Y-68648748D01*
X193050000Y-70071252D02*
X193050000Y-68648748D01*
D15*
G04 #@! TO.C,BU2*
X193320000Y-103130000D02*
X193320000Y-104680000D01*
X193320000Y-103130000D02*
X210820000Y-103130000D01*
X193320000Y-114630000D02*
X193320000Y-113080000D01*
X210820000Y-103130000D02*
X210820000Y-114630000D01*
X210820000Y-114630000D02*
X193320000Y-114630000D01*
D11*
X190390000Y-106430000D02*
G75*
G02*
X190190000Y-106430000I-100000J0D01*
G01*
X190190000Y-106430000D02*
G75*
G02*
X190390000Y-106430000I100000J0D01*
G01*
D13*
G04 #@! TO.C,C9*
X201381252Y-92840000D02*
X199958748Y-92840000D01*
X201381252Y-95560000D02*
X199958748Y-95560000D01*
G04 #@! TO.C,3V3_LORA1*
X180620000Y-116570000D02*
G75*
G02*
X179220000Y-116570000I-700000J0D01*
G01*
X179220000Y-116570000D02*
G75*
G02*
X180620000Y-116570000I700000J0D01*
G01*
G04 #@! TO.C,L2*
X183370000Y-99310000D02*
X187590000Y-99310000D01*
X187590000Y-103530000D02*
X183370000Y-103530000D01*
G04 #@! TO.C,D2*
X181890000Y-66130000D02*
X176380000Y-66130000D01*
X181890000Y-69430000D02*
X176380000Y-69430000D01*
X181890000Y-69430000D02*
X181890000Y-66130000D01*
G04 #@! TO.C,R5*
X188797064Y-62725000D02*
X188342936Y-62725000D01*
X188797064Y-64195000D02*
X188342936Y-64195000D01*
G04 #@! TO.C,C_Damping1*
X187100000Y-104972500D02*
X187100000Y-109367500D01*
X190120000Y-104972500D02*
X187100000Y-104972500D01*
X190120000Y-109367500D02*
X190120000Y-104972500D01*
G04 #@! TO.C,C11*
X182206248Y-88700000D02*
X183628752Y-88700000D01*
X182206248Y-91420000D02*
X183628752Y-91420000D01*
G04 #@! TO.C,C8*
X201381252Y-87840000D02*
X199958748Y-87840000D01*
X201381252Y-90560000D02*
X199958748Y-90560000D01*
G04 #@! TO.C,V_BAT+1*
X158070000Y-103370000D02*
G75*
G02*
X156670000Y-103370000I-700000J0D01*
G01*
X156670000Y-103370000D02*
G75*
G02*
X158070000Y-103370000I700000J0D01*
G01*
G04 #@! TO.C,C1*
X200426248Y-69430000D02*
X201848752Y-69430000D01*
X200426248Y-72150000D02*
X201848752Y-72150000D01*
G04 #@! TO.C,C7*
X201171252Y-85255000D02*
X200648748Y-85255000D01*
X201171252Y-86725000D02*
X200648748Y-86725000D01*
G04 #@! TO.C,5V1*
X191190000Y-92890000D02*
G75*
G02*
X189790000Y-92890000I-700000J0D01*
G01*
X189790000Y-92890000D02*
G75*
G02*
X191190000Y-92890000I700000J0D01*
G01*
G04 #@! TO.C,J4*
X212391573Y-74783427D02*
X212391573Y-76583427D01*
X212391573Y-81453427D02*
X211401573Y-81453427D01*
X212391573Y-83253427D02*
X212391573Y-81453427D01*
X213841573Y-74783427D02*
X212391573Y-74783427D01*
X213841573Y-83253427D02*
X212391573Y-83253427D01*
X216661573Y-81983427D02*
X216661573Y-76053427D01*
G04 #@! TO.C,C6*
X183470000Y-106771248D02*
X183470000Y-108193752D01*
X186190000Y-106771248D02*
X186190000Y-108193752D01*
G04 #@! TO.C,Q2*
X180740000Y-83840000D02*
X180790000Y-83840000D01*
X180740000Y-85360000D02*
X180740000Y-83840000D01*
X181740000Y-85360000D02*
X180740000Y-85360000D01*
X181910000Y-83840000D02*
X182690000Y-83840000D01*
X183810000Y-83840000D02*
X183860000Y-83840000D01*
X183860000Y-83840000D02*
X183860000Y-85360000D01*
X183860000Y-85360000D02*
X182860000Y-85360000D01*
X182680000Y-83300000D02*
X182350000Y-83540000D01*
X182350000Y-83060000D01*
X182680000Y-83300000D01*
G36*
X182680000Y-83300000D02*
G01*
X182350000Y-83540000D01*
X182350000Y-83060000D01*
X182680000Y-83300000D01*
G37*
G04 #@! TO.C,C15*
X188478752Y-111565000D02*
X187956248Y-111565000D01*
X188478752Y-113035000D02*
X187956248Y-113035000D01*
G04 #@! TO.C,3V3_1*
X204920000Y-101480000D02*
G75*
G02*
X203520000Y-101480000I-700000J0D01*
G01*
X203520000Y-101480000D02*
G75*
G02*
X204920000Y-101480000I700000J0D01*
G01*
G04 #@! TO.C,Q1*
X170320000Y-103280000D02*
X170370000Y-103280000D01*
X170320000Y-104800000D02*
X170320000Y-103280000D01*
X171320000Y-104800000D02*
X170320000Y-104800000D01*
X171490000Y-103280000D02*
X172270000Y-103280000D01*
X173390000Y-103280000D02*
X173440000Y-103280000D01*
X173440000Y-103280000D02*
X173440000Y-104800000D01*
X173440000Y-104800000D02*
X172440000Y-104800000D01*
X172260000Y-102740000D02*
X171930000Y-102980000D01*
X171930000Y-102500000D01*
X172260000Y-102740000D01*
G36*
X172260000Y-102740000D02*
G01*
X171930000Y-102980000D01*
X171930000Y-102500000D01*
X172260000Y-102740000D01*
G37*
G04 #@! TO.C,R11*
X181895000Y-117797064D02*
X181895000Y-117342936D01*
X183365000Y-117797064D02*
X183365000Y-117342936D01*
D15*
G04 #@! TO.C,BU1*
X167370000Y-71380000D02*
X178870000Y-71380000D01*
X167370000Y-88880000D02*
X167370000Y-71380000D01*
X167370000Y-88880000D02*
X168920000Y-88880000D01*
X178870000Y-71380000D02*
X178870000Y-88880000D01*
X178870000Y-88880000D02*
X177320000Y-88880000D01*
D11*
X170770000Y-91910000D02*
G75*
G02*
X170570000Y-91910000I-100000J0D01*
G01*
X170570000Y-91910000D02*
G75*
G02*
X170770000Y-91910000I100000J0D01*
G01*
D13*
G04 #@! TO.C,J3*
X151541573Y-86053427D02*
X151541573Y-91983427D01*
X154361573Y-84783427D02*
X155811573Y-84783427D01*
X154361573Y-93253427D02*
X155811573Y-93253427D01*
X155811573Y-84783427D02*
X155811573Y-86583427D01*
X155811573Y-86583427D02*
X156801573Y-86583427D01*
X155811573Y-93253427D02*
X155811573Y-91453427D01*
G04 #@! TO.C,J2*
X169200000Y-57720000D02*
X169200000Y-55820000D01*
X169200000Y-61620000D02*
X169200000Y-59620000D01*
X178600000Y-55820000D02*
X169200000Y-55820000D01*
X178600000Y-57720000D02*
X178600000Y-55820000D01*
X178600000Y-61620000D02*
X178600000Y-59620000D01*
G04 #@! TO.C,R1*
X174545000Y-104492936D02*
X174545000Y-104947064D01*
X176015000Y-104492936D02*
X176015000Y-104947064D01*
G04 #@! TO.C,C14*
X163303752Y-93975000D02*
X162781248Y-93975000D01*
X163303752Y-95445000D02*
X162781248Y-95445000D01*
G04 #@! TO.C,R9*
X180175000Y-59707064D02*
X180175000Y-59252936D01*
X181645000Y-59707064D02*
X181645000Y-59252936D01*
G04 #@! TO.C,GND1*
X157970000Y-109100000D02*
G75*
G02*
X156570000Y-109100000I-700000J0D01*
G01*
X156570000Y-109100000D02*
G75*
G02*
X157970000Y-109100000I700000J0D01*
G01*
G04 #@! TO.C,R10*
X166195000Y-59777064D02*
X166195000Y-59322936D01*
X167665000Y-59777064D02*
X167665000Y-59322936D01*
G04 #@! TO.C,C10*
X187938752Y-87315000D02*
X187416248Y-87315000D01*
X187938752Y-88785000D02*
X187416248Y-88785000D01*
G04 #@! TO.C,R8*
X162822936Y-91515000D02*
X163277064Y-91515000D01*
X162822936Y-92985000D02*
X163277064Y-92985000D01*
G04 #@! TO.C,R4*
X187905000Y-78152936D02*
X187905000Y-78607064D01*
X189375000Y-78152936D02*
X189375000Y-78607064D01*
G04 #@! TO.C,C5*
X171451248Y-92710000D02*
X172873752Y-92710000D01*
X171451248Y-95430000D02*
X172873752Y-95430000D01*
G04 #@! TO.C,D5*
X181627500Y-122060000D02*
X184487500Y-122060000D01*
X184487500Y-120140000D02*
X181627500Y-120140000D01*
X184487500Y-122060000D02*
X184487500Y-120140000D01*
G04 #@! TO.C,J6*
X189866573Y-117308427D02*
X191666573Y-117308427D01*
X189866573Y-118758427D02*
X189866573Y-117308427D01*
X191136573Y-121578427D02*
X197066573Y-121578427D01*
X191666573Y-117308427D02*
X191666573Y-116318427D01*
X198336573Y-117308427D02*
X196536573Y-117308427D01*
X198336573Y-118758427D02*
X198336573Y-117308427D01*
G04 #@! TO.C,C3*
X179710000Y-106781248D02*
X179710000Y-108203752D01*
X182430000Y-106781248D02*
X182430000Y-108203752D01*
G04 #@! TO.C,C4*
X200411248Y-73105000D02*
X200933752Y-73105000D01*
X200411248Y-74575000D02*
X200933752Y-74575000D01*
G04 #@! TO.C,R7*
X163295000Y-99152936D02*
X163295000Y-99607064D01*
X164765000Y-99152936D02*
X164765000Y-99607064D01*
G04 #@! TO.C,Buck_5v1*
X184250000Y-96230000D02*
G75*
G02*
X182850000Y-96230000I-700000J0D01*
G01*
X182850000Y-96230000D02*
G75*
G02*
X184250000Y-96230000I700000J0D01*
G01*
G04 #@! TO.C,J1*
X170510000Y-113430000D02*
X170510000Y-121250000D01*
X170510000Y-115030000D02*
X171430000Y-115030000D01*
X170510000Y-121250000D02*
X176630000Y-121250000D01*
X171430000Y-113430000D02*
X170510000Y-113430000D01*
X171430000Y-115030000D02*
X171430000Y-113430000D01*
X171710000Y-115030000D02*
X171430000Y-115030000D01*
X171710000Y-115030000D02*
X171710000Y-113815000D01*
X171770000Y-118990000D02*
X171770000Y-121250000D01*
X172270000Y-118990000D02*
X172270000Y-121250000D01*
X173070000Y-116890000D02*
X174070000Y-116890000D01*
X173070000Y-121250000D02*
X173070000Y-116890000D01*
X174070000Y-116890000D02*
X174070000Y-121250000D01*
X175710000Y-113430000D02*
X175710000Y-115030000D01*
X175710000Y-115030000D02*
X175430000Y-115030000D01*
X176630000Y-113430000D02*
X175710000Y-113430000D01*
X176630000Y-115030000D02*
X175710000Y-115030000D01*
X176630000Y-121250000D02*
X176630000Y-113430000D01*
X171270000Y-117390000D02*
X172270000Y-117390000D01*
X172270000Y-118990000D01*
X171270000Y-118990000D01*
X171270000Y-117390000D01*
X174870000Y-117390000D02*
X175870000Y-117390000D01*
X175870000Y-118990000D01*
X174870000Y-118990000D01*
X174870000Y-117390000D01*
G04 #@! TO.C,R2*
X190355000Y-83047064D02*
X190355000Y-82592936D01*
X191825000Y-83047064D02*
X191825000Y-82592936D01*
G04 #@! TO.C,J5*
X212391573Y-94783427D02*
X212391573Y-96583427D01*
X212391573Y-101453427D02*
X211401573Y-101453427D01*
X212391573Y-103253427D02*
X212391573Y-101453427D01*
X213841573Y-94783427D02*
X212391573Y-94783427D01*
X213841573Y-103253427D02*
X212391573Y-103253427D01*
X216661573Y-101983427D02*
X216661573Y-96053427D01*
G04 #@! TO.C,R3*
X190355000Y-86922936D02*
X190355000Y-87377064D01*
X191825000Y-86922936D02*
X191825000Y-87377064D01*
G04 #@! TO.C,D3*
X192390000Y-64470000D02*
X195250000Y-64470000D01*
X195250000Y-62550000D02*
X192390000Y-62550000D01*
X195250000Y-64470000D02*
X195250000Y-62550000D01*
G04 #@! TO.C,U1*
X198450000Y-78130000D02*
X198450000Y-81890000D01*
X198450000Y-81890000D02*
X199710000Y-81890000D01*
X205270000Y-78130000D02*
X205270000Y-81890000D01*
X205270000Y-81890000D02*
X204010000Y-81890000D01*
X205500000Y-77090000D02*
X205170000Y-76850000D01*
X205500000Y-76610000D01*
X205500000Y-77090000D01*
G36*
X205500000Y-77090000D02*
G01*
X205170000Y-76850000D01*
X205500000Y-76610000D01*
X205500000Y-77090000D01*
G37*
G04 #@! TD*
%LPC*%
D16*
G04 #@! TO.C,D4*
X195500000Y-98140000D03*
X197550000Y-98140000D03*
G04 #@! TD*
D17*
G04 #@! TO.C,L1*
X170580000Y-100382500D03*
X170580000Y-97382500D03*
G04 #@! TD*
D18*
G04 #@! TO.C,R6*
X200230000Y-98140000D03*
X202230000Y-98140000D03*
G04 #@! TD*
D19*
G04 #@! TO.C,D1*
X175690000Y-109300000D03*
X171690000Y-109300000D03*
G04 #@! TD*
D20*
G04 #@! TO.C,C2*
X175020000Y-100530000D03*
X178145000Y-100530000D03*
G04 #@! TD*
D21*
G04 #@! TO.C,C_Damping2*
X176110000Y-96870000D03*
X179365000Y-96870000D03*
G04 #@! TD*
D22*
G04 #@! TO.C,U2*
X186737500Y-85347500D03*
X187687500Y-85347500D03*
X188637500Y-85347500D03*
X188637500Y-83072500D03*
X187687500Y-83072500D03*
X186737500Y-83072500D03*
G04 #@! TD*
D23*
G04 #@! TO.C,C12*
X186620000Y-116475000D03*
X186620000Y-119600000D03*
G04 #@! TD*
D24*
G04 #@! TO.C,H1*
X154101573Y-119018427D03*
G04 #@! TD*
G04 #@! TO.C,H4*
X214101573Y-119018427D03*
G04 #@! TD*
D25*
G04 #@! TO.C,C13*
X191690000Y-70922500D03*
X191690000Y-67797500D03*
G04 #@! TD*
D26*
G04 #@! TO.C,BU2*
X192140000Y-106340000D03*
D27*
X192140000Y-108880000D03*
X192140000Y-111420000D03*
G04 #@! TD*
D28*
G04 #@! TO.C,C9*
X202232500Y-94200000D03*
X199107500Y-94200000D03*
G04 #@! TD*
D29*
G04 #@! TO.C,3V3_LORA1*
X179920000Y-116570000D03*
G04 #@! TD*
D30*
G04 #@! TO.C,L2*
X183980000Y-101420000D03*
X186980000Y-101420000D03*
G04 #@! TD*
D19*
G04 #@! TO.C,D2*
X180380000Y-67780000D03*
X176380000Y-67780000D03*
G04 #@! TD*
D31*
G04 #@! TO.C,R5*
X189570000Y-63460000D03*
X187570000Y-63460000D03*
G04 #@! TD*
D32*
G04 #@! TO.C,C_Damping1*
X188610000Y-105990000D03*
X188610000Y-109245000D03*
G04 #@! TD*
D20*
G04 #@! TO.C,C11*
X181355000Y-90060000D03*
X184480000Y-90060000D03*
G04 #@! TD*
D28*
G04 #@! TO.C,C8*
X202232500Y-89200000D03*
X199107500Y-89200000D03*
G04 #@! TD*
D29*
G04 #@! TO.C,V_BAT+1*
X157370000Y-103370000D03*
G04 #@! TD*
D20*
G04 #@! TO.C,C1*
X199575000Y-70790000D03*
X202700000Y-70790000D03*
G04 #@! TD*
D24*
G04 #@! TO.C,H2*
X154101573Y-59018427D03*
G04 #@! TD*
D33*
G04 #@! TO.C,C7*
X201947500Y-85990000D03*
X199872500Y-85990000D03*
G04 #@! TD*
D29*
G04 #@! TO.C,5V1*
X190490000Y-92890000D03*
G04 #@! TD*
D34*
G04 #@! TO.C,J4*
X212251573Y-80893427D03*
X212251573Y-79643427D03*
X212251573Y-78393427D03*
X212251573Y-77143427D03*
D35*
X215451573Y-82743427D03*
X215451573Y-75293427D03*
G04 #@! TD*
D23*
G04 #@! TO.C,C6*
X184830000Y-105920000D03*
X184830000Y-109045000D03*
G04 #@! TD*
D36*
G04 #@! TO.C,Q2*
X183250000Y-83662500D03*
X181350000Y-83662500D03*
X182300000Y-85537500D03*
G04 #@! TD*
D33*
G04 #@! TO.C,C15*
X189255000Y-112300000D03*
X187180000Y-112300000D03*
G04 #@! TD*
D29*
G04 #@! TO.C,3V3_1*
X204220000Y-101480000D03*
G04 #@! TD*
D36*
G04 #@! TO.C,Q1*
X172830000Y-103102500D03*
X170930000Y-103102500D03*
X171880000Y-104977500D03*
G04 #@! TD*
D37*
G04 #@! TO.C,R11*
X182630000Y-118570000D03*
X182630000Y-116570000D03*
G04 #@! TD*
D38*
G04 #@! TO.C,BU1*
X170580000Y-90060000D03*
D27*
X173120000Y-90060000D03*
X175660000Y-90060000D03*
G04 #@! TD*
D39*
G04 #@! TO.C,J3*
X155951573Y-87143427D03*
X155951573Y-88393427D03*
X155951573Y-89643427D03*
X155951573Y-90893427D03*
D40*
X152751573Y-85293427D03*
X152751573Y-92743427D03*
G04 #@! TD*
D41*
G04 #@! TO.C,J2*
X176790000Y-62320000D03*
X171010000Y-62320000D03*
D42*
X177150000Y-63765000D03*
X176350000Y-63765000D03*
D43*
X175150000Y-63765000D03*
X174150000Y-63765000D03*
X173650000Y-63765000D03*
X172650000Y-63765000D03*
D42*
X171450000Y-63765000D03*
X170650000Y-63765000D03*
X170650000Y-63765000D03*
X171450000Y-63765000D03*
D43*
X172150000Y-63765000D03*
X173150000Y-63765000D03*
X174650000Y-63765000D03*
X175650000Y-63765000D03*
D42*
X176350000Y-63765000D03*
X177150000Y-63765000D03*
D44*
X178220000Y-62850000D03*
D45*
X178220000Y-58670000D03*
D44*
X169580000Y-62850000D03*
D45*
X169580000Y-58670000D03*
G04 #@! TD*
D46*
G04 #@! TO.C,R1*
X175280000Y-103720000D03*
X175280000Y-105720000D03*
G04 #@! TD*
D33*
G04 #@! TO.C,C14*
X164080000Y-94710000D03*
X162005000Y-94710000D03*
G04 #@! TD*
D37*
G04 #@! TO.C,R9*
X180910000Y-60480000D03*
X180910000Y-58480000D03*
G04 #@! TD*
D29*
G04 #@! TO.C,GND1*
X157270000Y-109100000D03*
G04 #@! TD*
D37*
G04 #@! TO.C,R10*
X166930000Y-60550000D03*
X166930000Y-58550000D03*
G04 #@! TD*
D33*
G04 #@! TO.C,C10*
X188715000Y-88050000D03*
X186640000Y-88050000D03*
G04 #@! TD*
D18*
G04 #@! TO.C,R8*
X162050000Y-92250000D03*
X164050000Y-92250000D03*
G04 #@! TD*
D46*
G04 #@! TO.C,R4*
X188640000Y-77380000D03*
X188640000Y-79380000D03*
G04 #@! TD*
D20*
G04 #@! TO.C,C5*
X170600000Y-94070000D03*
X173725000Y-94070000D03*
G04 #@! TD*
D47*
G04 #@! TO.C,D5*
X183652500Y-121100000D03*
X181602500Y-121100000D03*
G04 #@! TD*
D48*
G04 #@! TO.C,J6*
X192226573Y-117168427D03*
X193476573Y-117168427D03*
X194726573Y-117168427D03*
X195976573Y-117168427D03*
D49*
X190376573Y-120368427D03*
X197826573Y-120368427D03*
G04 #@! TD*
D23*
G04 #@! TO.C,C3*
X181070000Y-105930000D03*
X181070000Y-109055000D03*
G04 #@! TD*
D50*
G04 #@! TO.C,C4*
X199635000Y-73840000D03*
X201710000Y-73840000D03*
G04 #@! TD*
D46*
G04 #@! TO.C,R7*
X164030000Y-98380000D03*
X164030000Y-100380000D03*
G04 #@! TD*
D29*
G04 #@! TO.C,Buck_5v1*
X183550000Y-96230000D03*
G04 #@! TD*
D51*
G04 #@! TO.C,J1*
X172570000Y-114890000D03*
D52*
X174570000Y-114890000D03*
G04 #@! TD*
D37*
G04 #@! TO.C,R2*
X191090000Y-83820000D03*
X191090000Y-81820000D03*
G04 #@! TD*
D24*
G04 #@! TO.C,H3*
X214101573Y-59018427D03*
G04 #@! TD*
D34*
G04 #@! TO.C,J5*
X212251573Y-100893427D03*
X212251573Y-99643427D03*
X212251573Y-98393427D03*
X212251573Y-97143427D03*
D35*
X215451573Y-102743427D03*
X215451573Y-95293427D03*
G04 #@! TD*
D46*
G04 #@! TO.C,R3*
X191090000Y-86150000D03*
X191090000Y-88150000D03*
G04 #@! TD*
D47*
G04 #@! TO.C,D3*
X194415000Y-63510000D03*
X192365000Y-63510000D03*
G04 #@! TD*
D53*
G04 #@! TO.C,U1*
X204160000Y-76830000D03*
X201860000Y-76830000D03*
D54*
X201860000Y-83130000D03*
D53*
X199560000Y-76830000D03*
G04 #@! TD*
%LPD*%
M02*
