G04 #@! TF.GenerationSoftware,KiCad,Pcbnew,9.0.7*
G04 #@! TF.CreationDate,2026-05-01T16:48:42+08:00*
G04 #@! TF.ProjectId,power layer,706f7765-7220-46c6-9179-65722e6b6963,rev?*
G04 #@! TF.SameCoordinates,Original*
G04 #@! TF.FileFunction,Copper,L4,Bot*
G04 #@! TF.FilePolarity,Positive*
%FSLAX46Y46*%
G04 Gerber Fmt 4.6, Leading zero omitted, Abs format (unit mm)*
G04 Created by KiCad (PCBNEW 9.0.7) date 2026-05-01 16:48:42*
%MOMM*%
%LPD*%
G01*
G04 APERTURE LIST*
G04 Aperture macros list*
%AMRoundRect*
0 Rectangle with rounded corners*
0 $1 Rounding radius*
0 $2 $3 $4 $5 $6 $7 $8 $9 X,Y pos of 4 corners*
0 Add a 4 corners polygon primitive as box body*
4,1,4,$2,$3,$4,$5,$6,$7,$8,$9,$2,$3,0*
0 Add four circle primitives for the rounded corners*
1,1,$1+$1,$2,$3*
1,1,$1+$1,$4,$5*
1,1,$1+$1,$6,$7*
1,1,$1+$1,$8,$9*
0 Add four rect primitives between the rounded corners*
20,1,$1+$1,$2,$3,$4,$5,0*
20,1,$1+$1,$4,$5,$6,$7,0*
20,1,$1+$1,$6,$7,$8,$9,0*
20,1,$1+$1,$8,$9,$2,$3,0*%
G04 Aperture macros list end*
G04 #@! TA.AperFunction,ComponentPad*
%ADD10C,5.600000*%
G04 #@! TD*
G04 #@! TA.AperFunction,ComponentPad*
%ADD11R,2.175000X2.175000*%
G04 #@! TD*
G04 #@! TA.AperFunction,ComponentPad*
%ADD12C,2.175000*%
G04 #@! TD*
G04 #@! TA.AperFunction,HeatsinkPad*
%ADD13O,1.000000X2.100000*%
G04 #@! TD*
G04 #@! TA.AperFunction,HeatsinkPad*
%ADD14O,1.000000X1.600000*%
G04 #@! TD*
G04 #@! TA.AperFunction,ComponentPad*
%ADD15RoundRect,0.250000X-0.350000X-0.625000X0.350000X-0.625000X0.350000X0.625000X-0.350000X0.625000X0*%
G04 #@! TD*
G04 #@! TA.AperFunction,ComponentPad*
%ADD16O,1.200000X1.750000*%
G04 #@! TD*
G04 #@! TA.AperFunction,ViaPad*
%ADD17C,1.000000*%
G04 #@! TD*
G04 #@! TA.AperFunction,ViaPad*
%ADD18C,0.600000*%
G04 #@! TD*
G04 #@! TA.AperFunction,Conductor*
%ADD19C,0.500000*%
G04 #@! TD*
G04 APERTURE END LIST*
D10*
G04 #@! TO.P,H1,1*
G04 #@! TO.N,N/C*
X154101573Y-119018427D03*
G04 #@! TD*
G04 #@! TO.P,H4,1*
G04 #@! TO.N,N/C*
X214101573Y-119018427D03*
G04 #@! TD*
D11*
G04 #@! TO.P,BU2,1,VIN*
G04 #@! TO.N,Net-(BU2-VIN)*
X192140000Y-106340000D03*
D12*
G04 #@! TO.P,BU2,2,GND*
G04 #@! TO.N,GND*
X192140000Y-108880000D03*
G04 #@! TO.P,BU2,3,VOUT*
G04 #@! TO.N,+3.3V_LoRa*
X192140000Y-111420000D03*
G04 #@! TD*
D10*
G04 #@! TO.P,H2,1*
G04 #@! TO.N,N/C*
X154101573Y-59018427D03*
G04 #@! TD*
D11*
G04 #@! TO.P,BU1,1,VIN*
G04 #@! TO.N,Net-(BU1-VIN)*
X170580000Y-90060000D03*
D12*
G04 #@! TO.P,BU1,2,GND*
G04 #@! TO.N,GND*
X173120000Y-90060000D03*
G04 #@! TO.P,BU1,3,VOUT*
G04 #@! TO.N,BUCK_5V*
X175660000Y-90060000D03*
G04 #@! TD*
D13*
G04 #@! TO.P,J2,S1,SHIELD*
G04 #@! TO.N,GND*
X178220000Y-62850000D03*
D14*
X178220000Y-58670000D03*
D13*
X169580000Y-62850000D03*
D14*
X169580000Y-58670000D03*
G04 #@! TD*
D15*
G04 #@! TO.P,J1,1,Pin_1*
G04 #@! TO.N,Net-(D1-A2)*
X172570000Y-114890000D03*
D16*
G04 #@! TO.P,J1,2,Pin_2*
G04 #@! TO.N,GND*
X174570000Y-114890000D03*
G04 #@! TD*
D10*
G04 #@! TO.P,H3,1*
G04 #@! TO.N,N/C*
X214101573Y-59018427D03*
G04 #@! TD*
D17*
G04 #@! TO.N,+3.3V*
X205730000Y-94860000D03*
X201860000Y-81510000D03*
X203870000Y-91690000D03*
X201860000Y-78650000D03*
X209810000Y-79830000D03*
X201860000Y-79980000D03*
X187430000Y-75550000D03*
X210180000Y-102147500D03*
X209840000Y-81060000D03*
X201860000Y-83130000D03*
G04 #@! TO.N,5V*
X180610000Y-65330000D03*
X183440000Y-80060000D03*
X182050000Y-99490000D03*
X183865000Y-69315000D03*
D18*
G04 #@! TO.N,GND*
X156670000Y-64770000D03*
X193760000Y-101760000D03*
X179910000Y-102730000D03*
X188350000Y-58770000D03*
X216040000Y-67090000D03*
X161540000Y-77140000D03*
X177104019Y-92803286D03*
D17*
X184490000Y-92820000D03*
D18*
X151580000Y-79830000D03*
X161720000Y-114720000D03*
X214320000Y-97050000D03*
X185160000Y-82470000D03*
X187070000Y-121820000D03*
X195060000Y-112140000D03*
X165120000Y-58550000D03*
X197670000Y-116100000D03*
X173490000Y-72660000D03*
X170970000Y-82290000D03*
X185240000Y-56200000D03*
X205220000Y-59090000D03*
X168430000Y-87370000D03*
X176880000Y-106390000D03*
X161750000Y-111470000D03*
X188350000Y-56230000D03*
X208420000Y-72170000D03*
X168420000Y-117900000D03*
X168320000Y-120620000D03*
X164170000Y-69460000D03*
X159810000Y-84490000D03*
X173490000Y-75200000D03*
X207570000Y-113860000D03*
X190510000Y-96110000D03*
X156640000Y-72260000D03*
X164080000Y-66830000D03*
D17*
X202730000Y-67850000D03*
D18*
X216040000Y-69630000D03*
X194420000Y-61170000D03*
X189630000Y-115040000D03*
X206430000Y-71530000D03*
X208960000Y-93770000D03*
X154100000Y-74800000D03*
X216940000Y-108380000D03*
X168410000Y-72660000D03*
X208160000Y-59110000D03*
X151560000Y-72260000D03*
X159630000Y-115850000D03*
X170950000Y-75200000D03*
X167770000Y-102390000D03*
X204600000Y-112030000D03*
X156660000Y-82370000D03*
X208290000Y-118690000D03*
X211860000Y-108380000D03*
X216940000Y-110920000D03*
X194970000Y-106970000D03*
X154100000Y-69720000D03*
X154100000Y-72260000D03*
X196800000Y-82610000D03*
X200670000Y-116150000D03*
X209900000Y-77140000D03*
X178390000Y-82140000D03*
X153960000Y-89710000D03*
X168580000Y-115280000D03*
D17*
X196850000Y-94080000D03*
D18*
X158360000Y-99750000D03*
X209680000Y-104410000D03*
X161630000Y-74540000D03*
X162580000Y-61080000D03*
X211860000Y-105840000D03*
X167270000Y-93540000D03*
X194010000Y-95220000D03*
X182430000Y-56310000D03*
X197700000Y-64410000D03*
X183000000Y-113710000D03*
X165160000Y-107050000D03*
X201310000Y-100370000D03*
X168410000Y-75200000D03*
X166980000Y-56710000D03*
X161540000Y-66830000D03*
X200240000Y-66950000D03*
X174490000Y-70250000D03*
X170950000Y-72660000D03*
X191260000Y-61310000D03*
X158090000Y-112800000D03*
X204600000Y-106950000D03*
X173510000Y-84830000D03*
X172370000Y-68750000D03*
X207140000Y-109490000D03*
X166620000Y-66830000D03*
X200050000Y-109510000D03*
X159290000Y-79740000D03*
X200140000Y-56550000D03*
X214230000Y-98420000D03*
X193500000Y-98010000D03*
X151580000Y-77290000D03*
X161740000Y-82370000D03*
X182590000Y-58500000D03*
X159270000Y-72170000D03*
X178350000Y-72740000D03*
X170970000Y-87370000D03*
X185000000Y-77680000D03*
X165670000Y-109840000D03*
X166330000Y-83180000D03*
X197510000Y-109510000D03*
X202680000Y-59090000D03*
X154130000Y-67310000D03*
X211340000Y-92880000D03*
D17*
X187680000Y-92110000D03*
D18*
X208290000Y-116150000D03*
X193970000Y-92560000D03*
D17*
X167360000Y-63550000D03*
D18*
X207720000Y-82770000D03*
X207800000Y-74420000D03*
X200240000Y-64410000D03*
X151580000Y-82370000D03*
X200670000Y-121230000D03*
X197700000Y-61870000D03*
X200050000Y-104430000D03*
X154120000Y-79830000D03*
X204050000Y-98850000D03*
X213500000Y-67090000D03*
X176030000Y-72660000D03*
X205320000Y-61870000D03*
X173490000Y-77740000D03*
X168410000Y-77740000D03*
X153960000Y-100360000D03*
X159300000Y-64680000D03*
X200140000Y-112140000D03*
X196690000Y-85430000D03*
X161630000Y-72000000D03*
X194420000Y-58630000D03*
X158150000Y-90780000D03*
X213500000Y-69630000D03*
X203210000Y-116150000D03*
X202590000Y-104430000D03*
X176140000Y-87280000D03*
X169780000Y-69330000D03*
X214400000Y-113460000D03*
X156660000Y-77290000D03*
X159290000Y-77200000D03*
X164170000Y-72000000D03*
X166320000Y-97380000D03*
X176140000Y-82200000D03*
D17*
X206600000Y-76930000D03*
D18*
X209680000Y-106950000D03*
X208160000Y-64190000D03*
X153960000Y-90940000D03*
X208160000Y-61650000D03*
X205750000Y-118690000D03*
X154120000Y-82370000D03*
X154220000Y-106790000D03*
X164170000Y-74540000D03*
X196910000Y-76630000D03*
D17*
X191690000Y-72970000D03*
D18*
X173390000Y-98740000D03*
X182800000Y-65520000D03*
X197600000Y-56550000D03*
X215780000Y-64190000D03*
X191260000Y-58770000D03*
X202130000Y-112230000D03*
X213880000Y-92880000D03*
X168430000Y-82290000D03*
X168430000Y-84830000D03*
X166710000Y-72000000D03*
X180680000Y-56680000D03*
X154130000Y-64770000D03*
X203210000Y-118690000D03*
D17*
X204080000Y-73760000D03*
D18*
X178730000Y-121640000D03*
X173910000Y-104830000D03*
X196960000Y-71770000D03*
X209120000Y-96970000D03*
X210700000Y-64190000D03*
X168640000Y-107250000D03*
X213240000Y-64190000D03*
X214450000Y-78430000D03*
D17*
X179990000Y-63650000D03*
D18*
X204600000Y-104410000D03*
X162710000Y-104880000D03*
X159270000Y-74710000D03*
X161750000Y-108420000D03*
X209680000Y-112030000D03*
D17*
X196440000Y-63490000D03*
D18*
X158180000Y-89720000D03*
X170970000Y-84830000D03*
X166710000Y-69460000D03*
X183350000Y-60380000D03*
X214400000Y-105840000D03*
X166710000Y-74540000D03*
X208420000Y-67090000D03*
D17*
X196810000Y-88970000D03*
D18*
X161540000Y-79620000D03*
X168770000Y-109970000D03*
X215240000Y-85520000D03*
X205320000Y-66950000D03*
X211340000Y-90340000D03*
X152460000Y-95080000D03*
X216420000Y-87800000D03*
X208290000Y-121230000D03*
X181580000Y-97260000D03*
X194670000Y-115280000D03*
X205750000Y-116150000D03*
D17*
X204210000Y-79270000D03*
D18*
X181570000Y-72860000D03*
X214400000Y-108380000D03*
X216040000Y-72170000D03*
X170950000Y-77740000D03*
X166530000Y-104950000D03*
X159290000Y-82280000D03*
X161620000Y-98680000D03*
D17*
X190450000Y-90020000D03*
D18*
X151560000Y-74800000D03*
X211860000Y-113460000D03*
X178590000Y-87370000D03*
X151590000Y-64770000D03*
X207140000Y-104410000D03*
X156640000Y-69720000D03*
X176690000Y-102680000D03*
X161920000Y-64160000D03*
X183080000Y-110960000D03*
X164990000Y-62220000D03*
X161630000Y-69460000D03*
X202590000Y-109510000D03*
X197600000Y-112140000D03*
X185210000Y-113680000D03*
X216940000Y-113460000D03*
X154010000Y-97610000D03*
D17*
X204860000Y-70760000D03*
D18*
X213500000Y-72170000D03*
X151820000Y-99240000D03*
X156660000Y-79830000D03*
X205750000Y-121230000D03*
X210960000Y-69630000D03*
X215670000Y-100400000D03*
X178190000Y-110850000D03*
X176030000Y-77740000D03*
X195980000Y-115280000D03*
X156670000Y-67310000D03*
X194970000Y-109510000D03*
X200670000Y-118690000D03*
X203210000Y-121230000D03*
X216420000Y-90340000D03*
X161640000Y-120460000D03*
X153480000Y-103510000D03*
X209680000Y-109490000D03*
X157380000Y-97660000D03*
X202680000Y-56550000D03*
X151590000Y-67310000D03*
X204600000Y-109490000D03*
X180040000Y-74750000D03*
X192510000Y-76470000D03*
X159130000Y-59600000D03*
X215720000Y-80450000D03*
X188780000Y-98850000D03*
X157560000Y-105380000D03*
X202780000Y-61870000D03*
X201800000Y-114010000D03*
X165540000Y-112640000D03*
X216420000Y-92880000D03*
X213880000Y-87800000D03*
X173510000Y-82290000D03*
X158250000Y-93960000D03*
X155690000Y-95100000D03*
X159300000Y-67220000D03*
X165230000Y-64390000D03*
X163840000Y-84850000D03*
X210960000Y-72170000D03*
X180570000Y-113680000D03*
X205220000Y-56550000D03*
X196860000Y-79880000D03*
X205670000Y-88140000D03*
X176030000Y-75200000D03*
X163250000Y-87660000D03*
X214470000Y-77160000D03*
X191310000Y-100160000D03*
X178390000Y-84620000D03*
X159270000Y-69630000D03*
X208190000Y-56510000D03*
X207140000Y-106950000D03*
X178470000Y-77810000D03*
X176140000Y-84740000D03*
X208420000Y-69630000D03*
X159990000Y-96040000D03*
D17*
X196920000Y-91470000D03*
D18*
X191260000Y-56230000D03*
X161780000Y-117820000D03*
X164430000Y-102560000D03*
X165490000Y-115200000D03*
X161920000Y-57490000D03*
X157280000Y-84580000D03*
X168720000Y-113120000D03*
X163460000Y-77140000D03*
X165170000Y-120430000D03*
X204340000Y-114010000D03*
X211860000Y-110920000D03*
X202780000Y-64410000D03*
X153690000Y-111310000D03*
X199230000Y-113980000D03*
X200050000Y-106970000D03*
X185240000Y-61280000D03*
X197890000Y-101550000D03*
X164930000Y-90040000D03*
X154120000Y-77290000D03*
X201900000Y-102230000D03*
X207760000Y-80270000D03*
X151560000Y-69720000D03*
D17*
X196110000Y-119440000D03*
D18*
X165570000Y-86960000D03*
X200140000Y-59090000D03*
X202590000Y-106970000D03*
X180120000Y-100770000D03*
X197510000Y-106970000D03*
X216940000Y-105840000D03*
X182800000Y-62980000D03*
X213880000Y-90340000D03*
X195610000Y-99950000D03*
X197510000Y-104430000D03*
X166130000Y-77140000D03*
X214400000Y-110920000D03*
X173510000Y-87370000D03*
X180590000Y-110910000D03*
X188350000Y-61310000D03*
X169690000Y-66700000D03*
X197600000Y-59090000D03*
X207140000Y-112030000D03*
X151730000Y-112820000D03*
X194970000Y-104430000D03*
D17*
X194750000Y-119470000D03*
D18*
X163950000Y-79750000D03*
X159300000Y-62140000D03*
X185240000Y-58740000D03*
X185350000Y-110990000D03*
X165410000Y-117870000D03*
X156640000Y-74800000D03*
X178310000Y-75140000D03*
X194420000Y-56090000D03*
X205320000Y-64410000D03*
X200240000Y-61870000D03*
X210960000Y-67090000D03*
X192680000Y-88300000D03*
X192600000Y-79850000D03*
G04 #@! TO.N,+USB_5V*
X182650000Y-70890000D03*
X191190000Y-80100000D03*
G04 #@! TO.N,SUP_STAT*
X158190000Y-88400000D03*
X186370000Y-80000000D03*
G04 #@! TO.N,Net-(Q2-G)*
X183300000Y-82310000D03*
X187490000Y-81230000D03*
G04 #@! TD*
D19*
G04 #@! TO.N,+3.3V*
X192821818Y-86181000D02*
X189939000Y-83298182D01*
X198361000Y-86181000D02*
X192821818Y-86181000D01*
X189939000Y-78059000D02*
X187430000Y-75550000D01*
X203870000Y-91690000D02*
X198361000Y-86181000D01*
X189939000Y-83298182D02*
X189939000Y-78059000D01*
G04 #@! TO.N,+USB_5V*
X186140000Y-70890000D02*
X182650000Y-70890000D01*
X191190000Y-80100000D02*
X191190000Y-75940000D01*
X191190000Y-75940000D02*
X186140000Y-70890000D01*
G04 #@! TO.N,SUP_STAT*
X186370000Y-80000000D02*
X185140000Y-78770000D01*
X167820000Y-78770000D02*
X158190000Y-88400000D01*
X185140000Y-78770000D02*
X167820000Y-78770000D01*
G04 #@! TO.N,Net-(Q2-G)*
X184380000Y-81230000D02*
X183300000Y-82310000D01*
X187490000Y-81230000D02*
X184380000Y-81230000D01*
G04 #@! TD*
G04 #@! TA.AperFunction,Conductor*
G04 #@! TO.N,GND*
G36*
X213584990Y-55538612D02*
G01*
X213630745Y-55591416D01*
X213640689Y-55660574D01*
X213611664Y-55724130D01*
X213552886Y-55761904D01*
X213542142Y-55764544D01*
X213298670Y-55812972D01*
X213298659Y-55812975D01*
X212988325Y-55907113D01*
X212688723Y-56031213D01*
X212688718Y-56031215D01*
X212402742Y-56184073D01*
X212402724Y-56184084D01*
X212133105Y-56364238D01*
X212133091Y-56364248D01*
X211882414Y-56569973D01*
X211653119Y-56799268D01*
X211447394Y-57049945D01*
X211447384Y-57049959D01*
X211267230Y-57319578D01*
X211267219Y-57319596D01*
X211114361Y-57605572D01*
X211114359Y-57605577D01*
X210990259Y-57905179D01*
X210896121Y-58215513D01*
X210896118Y-58215524D01*
X210832860Y-58533552D01*
X210832857Y-58533569D01*
X210801073Y-58856287D01*
X210801073Y-59180566D01*
X210832857Y-59503284D01*
X210832860Y-59503301D01*
X210896118Y-59821329D01*
X210896121Y-59821340D01*
X210990259Y-60131674D01*
X211114359Y-60431276D01*
X211114361Y-60431281D01*
X211267219Y-60717257D01*
X211267230Y-60717275D01*
X211447384Y-60986894D01*
X211447394Y-60986908D01*
X211653119Y-61237585D01*
X211882414Y-61466880D01*
X211882419Y-61466884D01*
X211882420Y-61466885D01*
X212133097Y-61672610D01*
X212402731Y-61852774D01*
X212402740Y-61852779D01*
X212402742Y-61852780D01*
X212688718Y-62005638D01*
X212688720Y-62005638D01*
X212688726Y-62005642D01*
X212988327Y-62129741D01*
X213298650Y-62223876D01*
X213298656Y-62223877D01*
X213298659Y-62223878D01*
X213298670Y-62223881D01*
X213498101Y-62263549D01*
X213616705Y-62287141D01*
X213939430Y-62318927D01*
X213939433Y-62318927D01*
X214263713Y-62318927D01*
X214263716Y-62318927D01*
X214586441Y-62287141D01*
X214743868Y-62255826D01*
X214904475Y-62223881D01*
X214904486Y-62223878D01*
X214904486Y-62223877D01*
X214904496Y-62223876D01*
X215214819Y-62129741D01*
X215514420Y-62005642D01*
X215800415Y-61852774D01*
X216070049Y-61672610D01*
X216320726Y-61466885D01*
X216550031Y-61237580D01*
X216755756Y-60986903D01*
X216935920Y-60717269D01*
X217088788Y-60431274D01*
X217212887Y-60131673D01*
X217307022Y-59821350D01*
X217307024Y-59821340D01*
X217307027Y-59821329D01*
X217355456Y-59577857D01*
X217387840Y-59515946D01*
X217448556Y-59481372D01*
X217518326Y-59485111D01*
X217574998Y-59525977D01*
X217600579Y-59590995D01*
X217601073Y-59602048D01*
X217601073Y-118434805D01*
X217581388Y-118501844D01*
X217528584Y-118547599D01*
X217459426Y-118557543D01*
X217395870Y-118528518D01*
X217358096Y-118469740D01*
X217355456Y-118458996D01*
X217307027Y-118215524D01*
X217307024Y-118215513D01*
X217307023Y-118215510D01*
X217307022Y-118215504D01*
X217212887Y-117905181D01*
X217088788Y-117605580D01*
X216935920Y-117319585D01*
X216755756Y-117049951D01*
X216550031Y-116799274D01*
X216550030Y-116799273D01*
X216550026Y-116799268D01*
X216320731Y-116569973D01*
X216070054Y-116364248D01*
X216070053Y-116364247D01*
X216070049Y-116364244D01*
X215800415Y-116184080D01*
X215800410Y-116184077D01*
X215800403Y-116184073D01*
X215514427Y-116031215D01*
X215514422Y-116031213D01*
X215214820Y-115907113D01*
X214904486Y-115812975D01*
X214904475Y-115812972D01*
X214586447Y-115749714D01*
X214586430Y-115749711D01*
X214342385Y-115725675D01*
X214263716Y-115717927D01*
X213939430Y-115717927D01*
X213866672Y-115725093D01*
X213616715Y-115749711D01*
X213616698Y-115749714D01*
X213298670Y-115812972D01*
X213298659Y-115812975D01*
X212988325Y-115907113D01*
X212688723Y-116031213D01*
X212688718Y-116031215D01*
X212402742Y-116184073D01*
X212402724Y-116184084D01*
X212133105Y-116364238D01*
X212133091Y-116364248D01*
X211882414Y-116569973D01*
X211653119Y-116799268D01*
X211447394Y-117049945D01*
X211447384Y-117049959D01*
X211267230Y-117319578D01*
X211267219Y-117319596D01*
X211114361Y-117605572D01*
X211114359Y-117605577D01*
X210990259Y-117905179D01*
X210896121Y-118215513D01*
X210896118Y-118215524D01*
X210832860Y-118533552D01*
X210832857Y-118533569D01*
X210801073Y-118856287D01*
X210801073Y-119180566D01*
X210832857Y-119503284D01*
X210832860Y-119503301D01*
X210896118Y-119821329D01*
X210896121Y-119821340D01*
X210960146Y-120032405D01*
X210990259Y-120131673D01*
X211090237Y-120373042D01*
X211114359Y-120431276D01*
X211114361Y-120431281D01*
X211267219Y-120717257D01*
X211267230Y-120717275D01*
X211447384Y-120986894D01*
X211447394Y-120986908D01*
X211653119Y-121237585D01*
X211882414Y-121466880D01*
X211882419Y-121466884D01*
X211882420Y-121466885D01*
X212133097Y-121672610D01*
X212402731Y-121852774D01*
X212402740Y-121852779D01*
X212402742Y-121852780D01*
X212688718Y-122005638D01*
X212688720Y-122005638D01*
X212688726Y-122005642D01*
X212988327Y-122129741D01*
X213298650Y-122223876D01*
X213298656Y-122223877D01*
X213298659Y-122223878D01*
X213298670Y-122223881D01*
X213542142Y-122272310D01*
X213604053Y-122304695D01*
X213638627Y-122365410D01*
X213634888Y-122435180D01*
X213594022Y-122491852D01*
X213529004Y-122517433D01*
X213517951Y-122517927D01*
X154685195Y-122517927D01*
X154618156Y-122498242D01*
X154572401Y-122445438D01*
X154562457Y-122376280D01*
X154591482Y-122312724D01*
X154650260Y-122274950D01*
X154661004Y-122272310D01*
X154904475Y-122223881D01*
X154904486Y-122223878D01*
X154904486Y-122223877D01*
X154904496Y-122223876D01*
X155214819Y-122129741D01*
X155514420Y-122005642D01*
X155800415Y-121852774D01*
X156070049Y-121672610D01*
X156320726Y-121466885D01*
X156550031Y-121237580D01*
X156755756Y-120986903D01*
X156935920Y-120717269D01*
X157088788Y-120431274D01*
X157212887Y-120131673D01*
X157307022Y-119821350D01*
X157307024Y-119821340D01*
X157307027Y-119821329D01*
X157349774Y-119606421D01*
X157370287Y-119503295D01*
X157402073Y-119180570D01*
X157402073Y-118856284D01*
X157370287Y-118533559D01*
X157346695Y-118414955D01*
X157307027Y-118215524D01*
X157307024Y-118215513D01*
X157307023Y-118215510D01*
X157307022Y-118215504D01*
X157212887Y-117905181D01*
X157088788Y-117605580D01*
X156935920Y-117319585D01*
X156755756Y-117049951D01*
X156550031Y-116799274D01*
X156550030Y-116799273D01*
X156550026Y-116799268D01*
X156320731Y-116569973D01*
X156070054Y-116364248D01*
X156070053Y-116364247D01*
X156070049Y-116364244D01*
X155800415Y-116184080D01*
X155800410Y-116184077D01*
X155800403Y-116184073D01*
X155514427Y-116031215D01*
X155514422Y-116031213D01*
X155214820Y-115907113D01*
X154904486Y-115812975D01*
X154904475Y-115812972D01*
X154586447Y-115749714D01*
X154586430Y-115749711D01*
X154342385Y-115725675D01*
X154263716Y-115717927D01*
X153939430Y-115717927D01*
X153866672Y-115725093D01*
X153616715Y-115749711D01*
X153616698Y-115749714D01*
X153298670Y-115812972D01*
X153298659Y-115812975D01*
X152988325Y-115907113D01*
X152688723Y-116031213D01*
X152688718Y-116031215D01*
X152402742Y-116184073D01*
X152402724Y-116184084D01*
X152133105Y-116364238D01*
X152133091Y-116364248D01*
X151882414Y-116569973D01*
X151653119Y-116799268D01*
X151447394Y-117049945D01*
X151447384Y-117049959D01*
X151267230Y-117319578D01*
X151267219Y-117319596D01*
X151114361Y-117605572D01*
X151114359Y-117605577D01*
X150990259Y-117905179D01*
X150896121Y-118215513D01*
X150896118Y-118215524D01*
X150847690Y-118458996D01*
X150815305Y-118520907D01*
X150754590Y-118555481D01*
X150684820Y-118551742D01*
X150628148Y-118510876D01*
X150602567Y-118445858D01*
X150602073Y-118434805D01*
X150602073Y-114214983D01*
X171469500Y-114214983D01*
X171469500Y-115565001D01*
X171469501Y-115565018D01*
X171480000Y-115667796D01*
X171480001Y-115667799D01*
X171528107Y-115812972D01*
X171535186Y-115834334D01*
X171627288Y-115983656D01*
X171751344Y-116107712D01*
X171900666Y-116199814D01*
X172067203Y-116254999D01*
X172169991Y-116265500D01*
X172970008Y-116265499D01*
X172970016Y-116265498D01*
X172970019Y-116265498D01*
X173026302Y-116259748D01*
X173072797Y-116254999D01*
X173239334Y-116199814D01*
X173388656Y-116107712D01*
X173512712Y-115983656D01*
X173552581Y-115919016D01*
X173604525Y-115872294D01*
X173673488Y-115861071D01*
X173737570Y-115888914D01*
X173745799Y-115896434D01*
X173853397Y-116004032D01*
X173993475Y-116105804D01*
X174147744Y-116184408D01*
X174312415Y-116237914D01*
X174312414Y-116237914D01*
X174319999Y-116239115D01*
X174320000Y-116239114D01*
X174320000Y-115170330D01*
X174339745Y-115190075D01*
X174425255Y-115239444D01*
X174520630Y-115265000D01*
X174619370Y-115265000D01*
X174714745Y-115239444D01*
X174800255Y-115190075D01*
X174820000Y-115170330D01*
X174820000Y-116239115D01*
X174827584Y-116237914D01*
X174992255Y-116184408D01*
X175146524Y-116105804D01*
X175286602Y-116004032D01*
X175409032Y-115881602D01*
X175510804Y-115741524D01*
X175589408Y-115587257D01*
X175642914Y-115422584D01*
X175670000Y-115251571D01*
X175670000Y-115140000D01*
X174850330Y-115140000D01*
X174870075Y-115120255D01*
X174919444Y-115034745D01*
X174945000Y-114939370D01*
X174945000Y-114840630D01*
X174919444Y-114745255D01*
X174870075Y-114659745D01*
X174850330Y-114640000D01*
X175670000Y-114640000D01*
X175670000Y-114528428D01*
X175642914Y-114357415D01*
X175589408Y-114192742D01*
X175510804Y-114038475D01*
X175409032Y-113898397D01*
X175286602Y-113775967D01*
X175146524Y-113674195D01*
X174992257Y-113595591D01*
X174827589Y-113542087D01*
X174827581Y-113542085D01*
X174820000Y-113540884D01*
X174820000Y-114609670D01*
X174800255Y-114589925D01*
X174714745Y-114540556D01*
X174619370Y-114515000D01*
X174520630Y-114515000D01*
X174425255Y-114540556D01*
X174339745Y-114589925D01*
X174320000Y-114609670D01*
X174320000Y-113540884D01*
X174319999Y-113540884D01*
X174312418Y-113542085D01*
X174312410Y-113542087D01*
X174147742Y-113595591D01*
X173993475Y-113674195D01*
X173853401Y-113775964D01*
X173745799Y-113883566D01*
X173684476Y-113917050D01*
X173614784Y-113912066D01*
X173558851Y-113870194D01*
X173552585Y-113860988D01*
X173512712Y-113796344D01*
X173388656Y-113672288D01*
X173239334Y-113580186D01*
X173072797Y-113525001D01*
X173072795Y-113525000D01*
X172970010Y-113514500D01*
X172169998Y-113514500D01*
X172169980Y-113514501D01*
X172067203Y-113525000D01*
X172067200Y-113525001D01*
X171900668Y-113580185D01*
X171900663Y-113580187D01*
X171751342Y-113672289D01*
X171627289Y-113796342D01*
X171535187Y-113945663D01*
X171535186Y-113945666D01*
X171480001Y-114112203D01*
X171480001Y-114112204D01*
X171480000Y-114112204D01*
X171469500Y-114214983D01*
X150602073Y-114214983D01*
X150602073Y-105204635D01*
X190552000Y-105204635D01*
X190552000Y-107475370D01*
X190552001Y-107475376D01*
X190558408Y-107534983D01*
X190608702Y-107669828D01*
X190608706Y-107669835D01*
X190677858Y-107762209D01*
X190694954Y-107785046D01*
X190777367Y-107846740D01*
X190819237Y-107902673D01*
X190824221Y-107972365D01*
X190803374Y-108018890D01*
X190782249Y-108047966D01*
X190668807Y-108270606D01*
X190591588Y-108508259D01*
X190552500Y-108755055D01*
X190552500Y-109004944D01*
X190591588Y-109251740D01*
X190668807Y-109489393D01*
X190782248Y-109712031D01*
X190854697Y-109811747D01*
X190854697Y-109811748D01*
X191481555Y-109184890D01*
X191497513Y-109223416D01*
X191576856Y-109342161D01*
X191677839Y-109443144D01*
X191796584Y-109522487D01*
X191835108Y-109538444D01*
X191328479Y-110045073D01*
X191311363Y-110058569D01*
X191311647Y-110058959D01*
X191307709Y-110061819D01*
X191307707Y-110061821D01*
X191154023Y-110173478D01*
X191105485Y-110208744D01*
X190928744Y-110385485D01*
X190928744Y-110385486D01*
X190928742Y-110385488D01*
X190865644Y-110472333D01*
X190781821Y-110587706D01*
X190668344Y-110810415D01*
X190591102Y-111048142D01*
X190552000Y-111295022D01*
X190552000Y-111544977D01*
X190591102Y-111791857D01*
X190668344Y-112029584D01*
X190781821Y-112252293D01*
X190928742Y-112454512D01*
X191105488Y-112631258D01*
X191307707Y-112778179D01*
X191412929Y-112831792D01*
X191530415Y-112891655D01*
X191530417Y-112891655D01*
X191530420Y-112891657D01*
X191768143Y-112968898D01*
X192015022Y-113008000D01*
X192015023Y-113008000D01*
X192264977Y-113008000D01*
X192264978Y-113008000D01*
X192511857Y-112968898D01*
X192749580Y-112891657D01*
X192972293Y-112778179D01*
X193174512Y-112631258D01*
X193351258Y-112454512D01*
X193498179Y-112252293D01*
X193611657Y-112029580D01*
X193688898Y-111791857D01*
X193728000Y-111544978D01*
X193728000Y-111295022D01*
X193688898Y-111048143D01*
X193611657Y-110810420D01*
X193611655Y-110810417D01*
X193611655Y-110810415D01*
X193498178Y-110587706D01*
X193351258Y-110385488D01*
X193174512Y-110208742D01*
X192972293Y-110061821D01*
X192972291Y-110061820D01*
X192968352Y-110058958D01*
X192968635Y-110058567D01*
X192951516Y-110045070D01*
X192444890Y-109538444D01*
X192483416Y-109522487D01*
X192602161Y-109443144D01*
X192703144Y-109342161D01*
X192782487Y-109223416D01*
X192798444Y-109184891D01*
X193425301Y-109811748D01*
X193425301Y-109811747D01*
X193497752Y-109712030D01*
X193611192Y-109489393D01*
X193688411Y-109251740D01*
X193727500Y-109004944D01*
X193727500Y-108755055D01*
X193688411Y-108508259D01*
X193611192Y-108270606D01*
X193497751Y-108047968D01*
X193476626Y-108018892D01*
X193453146Y-107953086D01*
X193468971Y-107885032D01*
X193502629Y-107846743D01*
X193585046Y-107785046D01*
X193671296Y-107669831D01*
X193721591Y-107534983D01*
X193728000Y-107475373D01*
X193727999Y-105204628D01*
X193721591Y-105145017D01*
X193671296Y-105010169D01*
X193671295Y-105010168D01*
X193671293Y-105010164D01*
X193585047Y-104894955D01*
X193585044Y-104894952D01*
X193469835Y-104808706D01*
X193469828Y-104808702D01*
X193334982Y-104758408D01*
X193334983Y-104758408D01*
X193275383Y-104752001D01*
X193275381Y-104752000D01*
X193275373Y-104752000D01*
X193275364Y-104752000D01*
X191004629Y-104752000D01*
X191004623Y-104752001D01*
X190945016Y-104758408D01*
X190810171Y-104808702D01*
X190810164Y-104808706D01*
X190694955Y-104894952D01*
X190694952Y-104894955D01*
X190608706Y-105010164D01*
X190608702Y-105010171D01*
X190558408Y-105145017D01*
X190552001Y-105204616D01*
X190552001Y-105204623D01*
X190552000Y-105204635D01*
X150602073Y-105204635D01*
X150602073Y-102246043D01*
X209179499Y-102246043D01*
X209217947Y-102439329D01*
X209217950Y-102439339D01*
X209293364Y-102621407D01*
X209293371Y-102621420D01*
X209402860Y-102785281D01*
X209402863Y-102785285D01*
X209542214Y-102924636D01*
X209542218Y-102924639D01*
X209706079Y-103034128D01*
X209706092Y-103034135D01*
X209888160Y-103109549D01*
X209888165Y-103109551D01*
X209888169Y-103109551D01*
X209888170Y-103109552D01*
X210081456Y-103148000D01*
X210081459Y-103148000D01*
X210278543Y-103148000D01*
X210408582Y-103122132D01*
X210471835Y-103109551D01*
X210653914Y-103034132D01*
X210817782Y-102924639D01*
X210957139Y-102785282D01*
X211066632Y-102621414D01*
X211142051Y-102439335D01*
X211180500Y-102246041D01*
X211180500Y-102048959D01*
X211180500Y-102048956D01*
X211142052Y-101855670D01*
X211142051Y-101855669D01*
X211142051Y-101855665D01*
X211142049Y-101855660D01*
X211066635Y-101673592D01*
X211066628Y-101673579D01*
X210957139Y-101509718D01*
X210957136Y-101509714D01*
X210817785Y-101370363D01*
X210817781Y-101370360D01*
X210653920Y-101260871D01*
X210653907Y-101260864D01*
X210471839Y-101185450D01*
X210471829Y-101185447D01*
X210278543Y-101147000D01*
X210278541Y-101147000D01*
X210081459Y-101147000D01*
X210081457Y-101147000D01*
X209888170Y-101185447D01*
X209888160Y-101185450D01*
X209706092Y-101260864D01*
X209706079Y-101260871D01*
X209542218Y-101370360D01*
X209542214Y-101370363D01*
X209402863Y-101509714D01*
X209402860Y-101509718D01*
X209293371Y-101673579D01*
X209293364Y-101673592D01*
X209217950Y-101855660D01*
X209217947Y-101855670D01*
X209179500Y-102048956D01*
X209179500Y-102048959D01*
X209179500Y-102246041D01*
X209179500Y-102246043D01*
X209179499Y-102246043D01*
X150602073Y-102246043D01*
X150602073Y-99588543D01*
X181049499Y-99588543D01*
X181087947Y-99781829D01*
X181087950Y-99781839D01*
X181163364Y-99963907D01*
X181163371Y-99963920D01*
X181272860Y-100127781D01*
X181272863Y-100127785D01*
X181412214Y-100267136D01*
X181412218Y-100267139D01*
X181576079Y-100376628D01*
X181576092Y-100376635D01*
X181758160Y-100452049D01*
X181758165Y-100452051D01*
X181758169Y-100452051D01*
X181758170Y-100452052D01*
X181951456Y-100490500D01*
X181951459Y-100490500D01*
X182148543Y-100490500D01*
X182278582Y-100464632D01*
X182341835Y-100452051D01*
X182523914Y-100376632D01*
X182687782Y-100267139D01*
X182827139Y-100127782D01*
X182936632Y-99963914D01*
X183012051Y-99781835D01*
X183050500Y-99588541D01*
X183050500Y-99391459D01*
X183050500Y-99391456D01*
X183012052Y-99198170D01*
X183012051Y-99198169D01*
X183012051Y-99198165D01*
X183012049Y-99198160D01*
X182936635Y-99016092D01*
X182936628Y-99016079D01*
X182827139Y-98852218D01*
X182827136Y-98852214D01*
X182687785Y-98712863D01*
X182687781Y-98712860D01*
X182523920Y-98603371D01*
X182523907Y-98603364D01*
X182341839Y-98527950D01*
X182341829Y-98527947D01*
X182148543Y-98489500D01*
X182148541Y-98489500D01*
X181951459Y-98489500D01*
X181951457Y-98489500D01*
X181758170Y-98527947D01*
X181758160Y-98527950D01*
X181576092Y-98603364D01*
X181576079Y-98603371D01*
X181412218Y-98712860D01*
X181412214Y-98712863D01*
X181272863Y-98852214D01*
X181272860Y-98852218D01*
X181163371Y-99016079D01*
X181163364Y-99016092D01*
X181087950Y-99198160D01*
X181087947Y-99198170D01*
X181049500Y-99391456D01*
X181049500Y-99391459D01*
X181049500Y-99588541D01*
X181049500Y-99588543D01*
X181049499Y-99588543D01*
X150602073Y-99588543D01*
X150602073Y-94958543D01*
X204729499Y-94958543D01*
X204767947Y-95151829D01*
X204767950Y-95151839D01*
X204843364Y-95333907D01*
X204843371Y-95333920D01*
X204952860Y-95497781D01*
X204952863Y-95497785D01*
X205092214Y-95637136D01*
X205092218Y-95637139D01*
X205256079Y-95746628D01*
X205256092Y-95746635D01*
X205438160Y-95822049D01*
X205438165Y-95822051D01*
X205438169Y-95822051D01*
X205438170Y-95822052D01*
X205631456Y-95860500D01*
X205631459Y-95860500D01*
X205828543Y-95860500D01*
X205958582Y-95834632D01*
X206021835Y-95822051D01*
X206203914Y-95746632D01*
X206367782Y-95637139D01*
X206507139Y-95497782D01*
X206616632Y-95333914D01*
X206692051Y-95151835D01*
X206730500Y-94958541D01*
X206730500Y-94761459D01*
X206730500Y-94761456D01*
X206692052Y-94568170D01*
X206692051Y-94568169D01*
X206692051Y-94568165D01*
X206692049Y-94568160D01*
X206616635Y-94386092D01*
X206616628Y-94386079D01*
X206507139Y-94222218D01*
X206507136Y-94222214D01*
X206367785Y-94082863D01*
X206367781Y-94082860D01*
X206203920Y-93973371D01*
X206203907Y-93973364D01*
X206021839Y-93897950D01*
X206021829Y-93897947D01*
X205828543Y-93859500D01*
X205828541Y-93859500D01*
X205631459Y-93859500D01*
X205631457Y-93859500D01*
X205438170Y-93897947D01*
X205438160Y-93897950D01*
X205256092Y-93973364D01*
X205256079Y-93973371D01*
X205092218Y-94082860D01*
X205092214Y-94082863D01*
X204952863Y-94222214D01*
X204952860Y-94222218D01*
X204843371Y-94386079D01*
X204843364Y-94386092D01*
X204767950Y-94568160D01*
X204767947Y-94568170D01*
X204729500Y-94761456D01*
X204729500Y-94761459D01*
X204729500Y-94958541D01*
X204729500Y-94958543D01*
X204729499Y-94958543D01*
X150602073Y-94958543D01*
X150602073Y-88321153D01*
X157389500Y-88321153D01*
X157389500Y-88478846D01*
X157420261Y-88633489D01*
X157420264Y-88633501D01*
X157480602Y-88779172D01*
X157480609Y-88779185D01*
X157568210Y-88910288D01*
X157568213Y-88910292D01*
X157679705Y-89021784D01*
X157679711Y-89021789D01*
X157810814Y-89109390D01*
X157810827Y-89109397D01*
X157956498Y-89169735D01*
X157956503Y-89169737D01*
X158111153Y-89200499D01*
X158111156Y-89200500D01*
X158111158Y-89200500D01*
X158268844Y-89200500D01*
X158268845Y-89200499D01*
X158423497Y-89169737D01*
X158569179Y-89109394D01*
X158700289Y-89021789D01*
X158797443Y-88924635D01*
X168992000Y-88924635D01*
X168992000Y-91195370D01*
X168992001Y-91195376D01*
X168998408Y-91254983D01*
X169048702Y-91389828D01*
X169048706Y-91389835D01*
X169134952Y-91505044D01*
X169134955Y-91505047D01*
X169250164Y-91591293D01*
X169250171Y-91591297D01*
X169385017Y-91641591D01*
X169385016Y-91641591D01*
X169391944Y-91642335D01*
X169444627Y-91648000D01*
X171715372Y-91647999D01*
X171774983Y-91641591D01*
X171909831Y-91591296D01*
X172025046Y-91505046D01*
X172086742Y-91422630D01*
X172142673Y-91380762D01*
X172212364Y-91375778D01*
X172258892Y-91396626D01*
X172287968Y-91417751D01*
X172510606Y-91531192D01*
X172748259Y-91608411D01*
X172995056Y-91647500D01*
X173244944Y-91647500D01*
X173491740Y-91608411D01*
X173729393Y-91531192D01*
X173952030Y-91417752D01*
X174051747Y-91345301D01*
X174051748Y-91345301D01*
X173424891Y-90718444D01*
X173463416Y-90702487D01*
X173582161Y-90623144D01*
X173683144Y-90522161D01*
X173762487Y-90403416D01*
X173778444Y-90364890D01*
X174285070Y-90871516D01*
X174298567Y-90888635D01*
X174298958Y-90888352D01*
X174301820Y-90892291D01*
X174301821Y-90892293D01*
X174448742Y-91094512D01*
X174625488Y-91271258D01*
X174827707Y-91418179D01*
X174886941Y-91448360D01*
X175050415Y-91531655D01*
X175050417Y-91531655D01*
X175050420Y-91531657D01*
X175288143Y-91608898D01*
X175535022Y-91648000D01*
X175535023Y-91648000D01*
X175784977Y-91648000D01*
X175784978Y-91648000D01*
X176031857Y-91608898D01*
X176269580Y-91531657D01*
X176492293Y-91418179D01*
X176694512Y-91271258D01*
X176871258Y-91094512D01*
X177018179Y-90892293D01*
X177131657Y-90669580D01*
X177208898Y-90431857D01*
X177248000Y-90184978D01*
X177248000Y-89935022D01*
X177208898Y-89688143D01*
X177131657Y-89450420D01*
X177131655Y-89450417D01*
X177131655Y-89450415D01*
X177071792Y-89332929D01*
X177018179Y-89227707D01*
X176871258Y-89025488D01*
X176694512Y-88848742D01*
X176492293Y-88701821D01*
X176483550Y-88697366D01*
X176269584Y-88588344D01*
X176031857Y-88511102D01*
X175908859Y-88491621D01*
X175784978Y-88472000D01*
X175535022Y-88472000D01*
X175411582Y-88491551D01*
X175288142Y-88511102D01*
X175050415Y-88588344D01*
X174827706Y-88701821D01*
X174727402Y-88774697D01*
X174625488Y-88848742D01*
X174625486Y-88848744D01*
X174625485Y-88848744D01*
X174448744Y-89025485D01*
X174448742Y-89025488D01*
X174301821Y-89227707D01*
X174301819Y-89227709D01*
X174298959Y-89231647D01*
X174298569Y-89231363D01*
X174285073Y-89248479D01*
X173778444Y-89755107D01*
X173762487Y-89716584D01*
X173683144Y-89597839D01*
X173582161Y-89496856D01*
X173463416Y-89417513D01*
X173424890Y-89401555D01*
X174051748Y-88774697D01*
X173952031Y-88702248D01*
X173729393Y-88588807D01*
X173491740Y-88511588D01*
X173244944Y-88472500D01*
X172995056Y-88472500D01*
X172748259Y-88511588D01*
X172510606Y-88588807D01*
X172287966Y-88702249D01*
X172258890Y-88723374D01*
X172193083Y-88746853D01*
X172125030Y-88731027D01*
X172086740Y-88697367D01*
X172025046Y-88614954D01*
X171989500Y-88588344D01*
X171909835Y-88528706D01*
X171909828Y-88528702D01*
X171774982Y-88478408D01*
X171774983Y-88478408D01*
X171715383Y-88472001D01*
X171715381Y-88472000D01*
X171715373Y-88472000D01*
X171715364Y-88472000D01*
X169444629Y-88472000D01*
X169444623Y-88472001D01*
X169385016Y-88478408D01*
X169250171Y-88528702D01*
X169250164Y-88528706D01*
X169134955Y-88614952D01*
X169134952Y-88614955D01*
X169048706Y-88730164D01*
X169048702Y-88730171D01*
X168998408Y-88865017D01*
X168992001Y-88924616D01*
X168992000Y-88924635D01*
X158797443Y-88924635D01*
X158811789Y-88910289D01*
X158814395Y-88906387D01*
X158823593Y-88894297D01*
X158828958Y-88888075D01*
X158831812Y-88885548D01*
X159165644Y-88491621D01*
X159183708Y-88468822D01*
X159193207Y-88458159D01*
X168094548Y-79556819D01*
X168155871Y-79523334D01*
X168182229Y-79520500D01*
X182394956Y-79520500D01*
X182461995Y-79540185D01*
X182507750Y-79592989D01*
X182517694Y-79662147D01*
X182509517Y-79691952D01*
X182477950Y-79768160D01*
X182477947Y-79768170D01*
X182439500Y-79961456D01*
X182439500Y-79961459D01*
X182439500Y-80158541D01*
X182439500Y-80158543D01*
X182439499Y-80158543D01*
X182477947Y-80351829D01*
X182477950Y-80351839D01*
X182553364Y-80533907D01*
X182553371Y-80533920D01*
X182662860Y-80697781D01*
X182662863Y-80697785D01*
X182802214Y-80837136D01*
X182802218Y-80837139D01*
X182966079Y-80946628D01*
X182966092Y-80946635D01*
X183086474Y-80996498D01*
X183148165Y-81022051D01*
X183204133Y-81033184D01*
X183236267Y-81039576D01*
X183245271Y-81044285D01*
X183255410Y-81045011D01*
X183275711Y-81060209D01*
X183298178Y-81071961D01*
X183303206Y-81080792D01*
X183311343Y-81086883D01*
X183320204Y-81110641D01*
X183332752Y-81132676D01*
X183332208Y-81142824D01*
X183335760Y-81152347D01*
X183330370Y-81177124D01*
X183329013Y-81202446D01*
X183322672Y-81212507D01*
X183320908Y-81220620D01*
X183299757Y-81248874D01*
X183234121Y-81314510D01*
X183212340Y-81331868D01*
X183208383Y-81334350D01*
X183208377Y-81334354D01*
X183208377Y-81334355D01*
X183187750Y-81351835D01*
X182814449Y-81668188D01*
X182805107Y-81676502D01*
X182791577Y-81686963D01*
X182789719Y-81688204D01*
X182789713Y-81688209D01*
X182678209Y-81799712D01*
X182590609Y-81930814D01*
X182590602Y-81930827D01*
X182530264Y-82076498D01*
X182530261Y-82076510D01*
X182499500Y-82231153D01*
X182499500Y-82388846D01*
X182530261Y-82543489D01*
X182530264Y-82543501D01*
X182590602Y-82689172D01*
X182590609Y-82689185D01*
X182678210Y-82820288D01*
X182678213Y-82820292D01*
X182789707Y-82931786D01*
X182789711Y-82931789D01*
X182920814Y-83019390D01*
X182920827Y-83019397D01*
X183066498Y-83079735D01*
X183066503Y-83079737D01*
X183221153Y-83110499D01*
X183221156Y-83110500D01*
X183221158Y-83110500D01*
X183378844Y-83110500D01*
X183378845Y-83110499D01*
X183533497Y-83079737D01*
X183679179Y-83019394D01*
X183810289Y-82931789D01*
X183921789Y-82820289D01*
X183924393Y-82816391D01*
X183938858Y-82798567D01*
X183941796Y-82795561D01*
X183941812Y-82795548D01*
X184275644Y-82401621D01*
X184293717Y-82378811D01*
X184303207Y-82368158D01*
X184654548Y-82016819D01*
X184715871Y-81983334D01*
X184742229Y-81980500D01*
X186832672Y-81980500D01*
X186860355Y-81983630D01*
X186861596Y-81983914D01*
X186864901Y-81984671D01*
X186864909Y-81984671D01*
X186864911Y-81984672D01*
X187379466Y-82027161D01*
X187379471Y-82027161D01*
X187379504Y-82027164D01*
X187391982Y-82027890D01*
X187408959Y-82030062D01*
X187411158Y-82030500D01*
X187411159Y-82030500D01*
X187568844Y-82030500D01*
X187568845Y-82030499D01*
X187723497Y-81999737D01*
X187851705Y-81946632D01*
X187869172Y-81939397D01*
X187869172Y-81939396D01*
X187869179Y-81939394D01*
X188000289Y-81851789D01*
X188111789Y-81740289D01*
X188199394Y-81609179D01*
X188199658Y-81608543D01*
X188230567Y-81533920D01*
X188259737Y-81463497D01*
X188290500Y-81308842D01*
X188290500Y-81151158D01*
X188290500Y-81151155D01*
X188290499Y-81151153D01*
X188276503Y-81080792D01*
X188259737Y-80996503D01*
X188259735Y-80996498D01*
X188199397Y-80850827D01*
X188199390Y-80850814D01*
X188111789Y-80719711D01*
X188111786Y-80719707D01*
X188000292Y-80608213D01*
X188000288Y-80608210D01*
X187869185Y-80520609D01*
X187869172Y-80520602D01*
X187723501Y-80460264D01*
X187723489Y-80460261D01*
X187568845Y-80429500D01*
X187568842Y-80429500D01*
X187411158Y-80429500D01*
X187411152Y-80429500D01*
X187406560Y-80430414D01*
X187392050Y-80432418D01*
X187383577Y-80433081D01*
X187379504Y-80432835D01*
X187248056Y-80443688D01*
X187247761Y-80443712D01*
X187213684Y-80436538D01*
X187179857Y-80429568D01*
X187179660Y-80429375D01*
X187179390Y-80429319D01*
X187154686Y-80404944D01*
X187129912Y-80380709D01*
X187129850Y-80380439D01*
X187129654Y-80380246D01*
X187122049Y-80346384D01*
X187114311Y-80312603D01*
X187114387Y-80312269D01*
X187114344Y-80312075D01*
X187114584Y-80311417D01*
X187123522Y-80272642D01*
X187139737Y-80233497D01*
X187170500Y-80078842D01*
X187170500Y-79921158D01*
X187170500Y-79921155D01*
X187170499Y-79921153D01*
X187162602Y-79881454D01*
X187139737Y-79766503D01*
X187132718Y-79749558D01*
X187079397Y-79620827D01*
X187079390Y-79620814D01*
X186991790Y-79489712D01*
X186942760Y-79440682D01*
X186880289Y-79378211D01*
X186876389Y-79375605D01*
X186858576Y-79361149D01*
X186855550Y-79358189D01*
X186853076Y-79356092D01*
X186461621Y-79024355D01*
X186438823Y-79006291D01*
X186428151Y-78996783D01*
X185618421Y-78187052D01*
X185618414Y-78187046D01*
X185537403Y-78132917D01*
X185537402Y-78132917D01*
X185495501Y-78104919D01*
X185495488Y-78104912D01*
X185358917Y-78048343D01*
X185358907Y-78048340D01*
X185213920Y-78019500D01*
X185213918Y-78019500D01*
X167746082Y-78019500D01*
X167746076Y-78019500D01*
X167717242Y-78025234D01*
X167717243Y-78025235D01*
X167601092Y-78048339D01*
X167601086Y-78048341D01*
X167559975Y-78065370D01*
X167559963Y-78065375D01*
X167555924Y-78067049D01*
X167464505Y-78104916D01*
X167422597Y-78132918D01*
X167416112Y-78137250D01*
X167416108Y-78137253D01*
X167341582Y-78187049D01*
X167341579Y-78187052D01*
X158124118Y-87404512D01*
X158102343Y-87421866D01*
X158098379Y-87424353D01*
X158098368Y-87424360D01*
X157704472Y-87758167D01*
X157695107Y-87766502D01*
X157681577Y-87776963D01*
X157679719Y-87778204D01*
X157679713Y-87778209D01*
X157568209Y-87889712D01*
X157480609Y-88020814D01*
X157480602Y-88020827D01*
X157420264Y-88166498D01*
X157420261Y-88166510D01*
X157389500Y-88321153D01*
X150602073Y-88321153D01*
X150602073Y-70811153D01*
X181849500Y-70811153D01*
X181849500Y-70968846D01*
X181880261Y-71123489D01*
X181880264Y-71123501D01*
X181940602Y-71269172D01*
X181940609Y-71269185D01*
X182028210Y-71400288D01*
X182028213Y-71400292D01*
X182139707Y-71511786D01*
X182139711Y-71511789D01*
X182270814Y-71599390D01*
X182270827Y-71599397D01*
X182380130Y-71644671D01*
X182416503Y-71659737D01*
X182550913Y-71686473D01*
X182571153Y-71690499D01*
X182571156Y-71690500D01*
X182571158Y-71690500D01*
X182728836Y-71690500D01*
X182728842Y-71690500D01*
X182733439Y-71689585D01*
X182756282Y-71687209D01*
X182760483Y-71687163D01*
X182760495Y-71687164D01*
X182760506Y-71687163D01*
X182760510Y-71687163D01*
X182909210Y-71674883D01*
X183275099Y-71644671D01*
X183285754Y-71643436D01*
X183303997Y-71641324D01*
X183318264Y-71640500D01*
X185777770Y-71640500D01*
X185844809Y-71660185D01*
X185865451Y-71676819D01*
X190403181Y-76214548D01*
X190436666Y-76275871D01*
X190439500Y-76302229D01*
X190439500Y-77198770D01*
X190419815Y-77265809D01*
X190367011Y-77311564D01*
X190297853Y-77321508D01*
X190234297Y-77292483D01*
X190227819Y-77286451D01*
X188733004Y-75791636D01*
X188713223Y-75765826D01*
X188608832Y-75584511D01*
X188321991Y-75086301D01*
X188317966Y-75079310D01*
X188316632Y-75076086D01*
X188312864Y-75070447D01*
X188310795Y-75066853D01*
X188310794Y-75066852D01*
X188290057Y-75030834D01*
X188281455Y-75016449D01*
X188281453Y-75016445D01*
X188281057Y-75015807D01*
X188240087Y-74959001D01*
X188240085Y-74958999D01*
X188239335Y-74958162D01*
X188228563Y-74944282D01*
X188207139Y-74912218D01*
X188207135Y-74912214D01*
X188207134Y-74912212D01*
X188067785Y-74772863D01*
X188067781Y-74772860D01*
X187903920Y-74663371D01*
X187903907Y-74663364D01*
X187721839Y-74587950D01*
X187721829Y-74587947D01*
X187528543Y-74549500D01*
X187528541Y-74549500D01*
X187331459Y-74549500D01*
X187331457Y-74549500D01*
X187138170Y-74587947D01*
X187138160Y-74587950D01*
X186956092Y-74663364D01*
X186956079Y-74663371D01*
X186792218Y-74772860D01*
X186792214Y-74772863D01*
X186652863Y-74912214D01*
X186652860Y-74912218D01*
X186543371Y-75076079D01*
X186543364Y-75076092D01*
X186467950Y-75258160D01*
X186467947Y-75258170D01*
X186429500Y-75451456D01*
X186429500Y-75451459D01*
X186429500Y-75648541D01*
X186429500Y-75648543D01*
X186429499Y-75648543D01*
X186467947Y-75841829D01*
X186467950Y-75841839D01*
X186543364Y-76023907D01*
X186543371Y-76023920D01*
X186652860Y-76187781D01*
X186652863Y-76187785D01*
X186792215Y-76327137D01*
X186792218Y-76327139D01*
X186879305Y-76385328D01*
X186910809Y-76410042D01*
X186950438Y-76432858D01*
X186953876Y-76435155D01*
X186953879Y-76435157D01*
X186956089Y-76436634D01*
X186961461Y-76439505D01*
X186961417Y-76439586D01*
X186966294Y-76441987D01*
X187645825Y-76833222D01*
X187671634Y-76853002D01*
X189152181Y-78333549D01*
X189185666Y-78394872D01*
X189188500Y-78421230D01*
X189188500Y-83372100D01*
X189188500Y-83372102D01*
X189188499Y-83372102D01*
X189217340Y-83517089D01*
X189217343Y-83517099D01*
X189273914Y-83653674D01*
X189306812Y-83702909D01*
X189306813Y-83702912D01*
X189356046Y-83776596D01*
X189356052Y-83776603D01*
X192238866Y-86659415D01*
X192238867Y-86659416D01*
X192343402Y-86763951D01*
X192343403Y-86763952D01*
X192466316Y-86846080D01*
X192466329Y-86846087D01*
X192602900Y-86902656D01*
X192602905Y-86902658D01*
X192602909Y-86902658D01*
X192602910Y-86902659D01*
X192747897Y-86931500D01*
X192747900Y-86931500D01*
X197998770Y-86931500D01*
X198065809Y-86951185D01*
X198086451Y-86967819D01*
X202566992Y-91448360D01*
X202586773Y-91474170D01*
X202978015Y-92153710D01*
X202978015Y-92153711D01*
X202982031Y-92160687D01*
X202983368Y-92163914D01*
X202987133Y-92169550D01*
X202989193Y-92173127D01*
X202989196Y-92173131D01*
X203009961Y-92209197D01*
X203018546Y-92223556D01*
X203018924Y-92224164D01*
X203018939Y-92224187D01*
X203059909Y-92280994D01*
X203059912Y-92280998D01*
X203059915Y-92281000D01*
X203060664Y-92281836D01*
X203071434Y-92295715D01*
X203092861Y-92327782D01*
X203092864Y-92327785D01*
X203092867Y-92327789D01*
X203232214Y-92467136D01*
X203232218Y-92467139D01*
X203396079Y-92576628D01*
X203396092Y-92576635D01*
X203578160Y-92652049D01*
X203578165Y-92652051D01*
X203578169Y-92652051D01*
X203578170Y-92652052D01*
X203771456Y-92690500D01*
X203771459Y-92690500D01*
X203968543Y-92690500D01*
X204098582Y-92664632D01*
X204161835Y-92652051D01*
X204343914Y-92576632D01*
X204507782Y-92467139D01*
X204647139Y-92327782D01*
X204756632Y-92163914D01*
X204832051Y-91981835D01*
X204870500Y-91788541D01*
X204870500Y-91591459D01*
X204870500Y-91591456D01*
X204832052Y-91398170D01*
X204832051Y-91398169D01*
X204832051Y-91398165D01*
X204828598Y-91389828D01*
X204756635Y-91216092D01*
X204756628Y-91216079D01*
X204647139Y-91052218D01*
X204647136Y-91052214D01*
X204507785Y-90912863D01*
X204507781Y-90912860D01*
X204424617Y-90857291D01*
X204424617Y-90857290D01*
X204420675Y-90854656D01*
X204389189Y-90829957D01*
X204349575Y-90807149D01*
X204346154Y-90804863D01*
X204346134Y-90804851D01*
X204343913Y-90803367D01*
X204338553Y-90800502D01*
X204338595Y-90800421D01*
X204333720Y-90798019D01*
X203654171Y-90406773D01*
X203628360Y-90386992D01*
X198839421Y-85598052D01*
X198839414Y-85598046D01*
X198765729Y-85548812D01*
X198765729Y-85548813D01*
X198716491Y-85515913D01*
X198579917Y-85459343D01*
X198579907Y-85459340D01*
X198434920Y-85430500D01*
X198434918Y-85430500D01*
X193184047Y-85430500D01*
X193117008Y-85410815D01*
X193096366Y-85394181D01*
X190725819Y-83023633D01*
X190692334Y-82962310D01*
X190689500Y-82935952D01*
X190689500Y-80944720D01*
X190709185Y-80877681D01*
X190761989Y-80831926D01*
X190831147Y-80821982D01*
X190860952Y-80830159D01*
X190910818Y-80850814D01*
X190956503Y-80869737D01*
X191111153Y-80900499D01*
X191111156Y-80900500D01*
X191111158Y-80900500D01*
X191268844Y-80900500D01*
X191268845Y-80900499D01*
X191423497Y-80869737D01*
X191569179Y-80809394D01*
X191700289Y-80721789D01*
X191811789Y-80610289D01*
X191899394Y-80479179D01*
X191959737Y-80333497D01*
X191990500Y-80178842D01*
X191990500Y-80021158D01*
X191989584Y-80016557D01*
X191987209Y-79993717D01*
X191987163Y-79989516D01*
X191987164Y-79989505D01*
X191984848Y-79961459D01*
X191951436Y-79556819D01*
X191944672Y-79474902D01*
X191941323Y-79446000D01*
X191940500Y-79431732D01*
X191940500Y-78748543D01*
X200859499Y-78748543D01*
X200897947Y-78941829D01*
X200897950Y-78941839D01*
X200973364Y-79123907D01*
X200973374Y-79123925D01*
X201055015Y-79246110D01*
X201075893Y-79312787D01*
X201057408Y-79380167D01*
X201055015Y-79383890D01*
X200973374Y-79506074D01*
X200973364Y-79506092D01*
X200897950Y-79688160D01*
X200897947Y-79688170D01*
X200859500Y-79881456D01*
X200859500Y-79881459D01*
X200859500Y-80078541D01*
X200859500Y-80078543D01*
X200859499Y-80078543D01*
X200897947Y-80271829D01*
X200897950Y-80271839D01*
X200973364Y-80453907D01*
X200973371Y-80453920D01*
X201082860Y-80617781D01*
X201082863Y-80617785D01*
X201122397Y-80657319D01*
X201155882Y-80718642D01*
X201150898Y-80788334D01*
X201122397Y-80832681D01*
X201082863Y-80872214D01*
X201082860Y-80872218D01*
X200973371Y-81036079D01*
X200973364Y-81036092D01*
X200897950Y-81218160D01*
X200897947Y-81218170D01*
X200859500Y-81411456D01*
X200859500Y-81411459D01*
X200859500Y-81608541D01*
X200859500Y-81608543D01*
X200859499Y-81608543D01*
X200897947Y-81801829D01*
X200897950Y-81801839D01*
X200973364Y-81983907D01*
X200973371Y-81983920D01*
X201082860Y-82147781D01*
X201082863Y-82147785D01*
X201167397Y-82232319D01*
X201200882Y-82293642D01*
X201195898Y-82363334D01*
X201167397Y-82407681D01*
X201082863Y-82492214D01*
X201082860Y-82492218D01*
X200973371Y-82656079D01*
X200973364Y-82656092D01*
X200897950Y-82838160D01*
X200897947Y-82838170D01*
X200859500Y-83031456D01*
X200859500Y-83031459D01*
X200859500Y-83228541D01*
X200859500Y-83228543D01*
X200859499Y-83228543D01*
X200897947Y-83421829D01*
X200897950Y-83421839D01*
X200973364Y-83603907D01*
X200973371Y-83603920D01*
X201082860Y-83767781D01*
X201082863Y-83767785D01*
X201222214Y-83907136D01*
X201222218Y-83907139D01*
X201386079Y-84016628D01*
X201386092Y-84016635D01*
X201568160Y-84092049D01*
X201568165Y-84092051D01*
X201568169Y-84092051D01*
X201568170Y-84092052D01*
X201761456Y-84130500D01*
X201761459Y-84130500D01*
X201958543Y-84130500D01*
X202088582Y-84104632D01*
X202151835Y-84092051D01*
X202333914Y-84016632D01*
X202497782Y-83907139D01*
X202637139Y-83767782D01*
X202746632Y-83603914D01*
X202822051Y-83421835D01*
X202860500Y-83228541D01*
X202860500Y-83031459D01*
X202860500Y-83031456D01*
X202822052Y-82838170D01*
X202822051Y-82838169D01*
X202822051Y-82838165D01*
X202760342Y-82689185D01*
X202746635Y-82656092D01*
X202746628Y-82656079D01*
X202637139Y-82492218D01*
X202637136Y-82492214D01*
X202552603Y-82407681D01*
X202519118Y-82346358D01*
X202524102Y-82276666D01*
X202552603Y-82232319D01*
X202637136Y-82147785D01*
X202637139Y-82147782D01*
X202746632Y-81983914D01*
X202822051Y-81801835D01*
X202842749Y-81697781D01*
X202860500Y-81608543D01*
X202860500Y-81411456D01*
X202822052Y-81218170D01*
X202822051Y-81218169D01*
X202822051Y-81218165D01*
X202815540Y-81202446D01*
X202746635Y-81036092D01*
X202746628Y-81036079D01*
X202637139Y-80872218D01*
X202637136Y-80872214D01*
X202597603Y-80832682D01*
X202564117Y-80771359D01*
X202569101Y-80701668D01*
X202597603Y-80657318D01*
X202637136Y-80617785D01*
X202637139Y-80617782D01*
X202746632Y-80453914D01*
X202822051Y-80271835D01*
X202840549Y-80178842D01*
X202860500Y-80078543D01*
X202860500Y-79928543D01*
X208809499Y-79928543D01*
X208847947Y-80121829D01*
X208847950Y-80121839D01*
X208923364Y-80303906D01*
X208923374Y-80303924D01*
X208986606Y-80398558D01*
X209007484Y-80465235D01*
X208988999Y-80532615D01*
X208986608Y-80536336D01*
X208953372Y-80586079D01*
X208953364Y-80586093D01*
X208877950Y-80768160D01*
X208877947Y-80768170D01*
X208839500Y-80961456D01*
X208839500Y-80961459D01*
X208839500Y-81158541D01*
X208839500Y-81158543D01*
X208839499Y-81158543D01*
X208877947Y-81351829D01*
X208877950Y-81351839D01*
X208953364Y-81533907D01*
X208953371Y-81533920D01*
X209062860Y-81697781D01*
X209062863Y-81697785D01*
X209202214Y-81837136D01*
X209202218Y-81837139D01*
X209366079Y-81946628D01*
X209366092Y-81946635D01*
X209548160Y-82022049D01*
X209548165Y-82022051D01*
X209548169Y-82022051D01*
X209548170Y-82022052D01*
X209741456Y-82060500D01*
X209741459Y-82060500D01*
X209938543Y-82060500D01*
X210089359Y-82030500D01*
X210131835Y-82022051D01*
X210313914Y-81946632D01*
X210477782Y-81837139D01*
X210617139Y-81697782D01*
X210726632Y-81533914D01*
X210802051Y-81351835D01*
X210814632Y-81288582D01*
X210840500Y-81158543D01*
X210840500Y-80961456D01*
X210802052Y-80768170D01*
X210802051Y-80768169D01*
X210802051Y-80768165D01*
X210772897Y-80697781D01*
X210726633Y-80586088D01*
X210690904Y-80532615D01*
X210663391Y-80491439D01*
X210642514Y-80424763D01*
X210660998Y-80357383D01*
X210663374Y-80353686D01*
X210696632Y-80303914D01*
X210772051Y-80121835D01*
X210797536Y-79993717D01*
X210810500Y-79928543D01*
X210810500Y-79731456D01*
X210772052Y-79538170D01*
X210772051Y-79538169D01*
X210772051Y-79538165D01*
X210751981Y-79489711D01*
X210696635Y-79356092D01*
X210696628Y-79356079D01*
X210587139Y-79192218D01*
X210587136Y-79192214D01*
X210447785Y-79052863D01*
X210447781Y-79052860D01*
X210283920Y-78943371D01*
X210283907Y-78943364D01*
X210101839Y-78867950D01*
X210101829Y-78867947D01*
X209908543Y-78829500D01*
X209908541Y-78829500D01*
X209711459Y-78829500D01*
X209711457Y-78829500D01*
X209518170Y-78867947D01*
X209518160Y-78867950D01*
X209336092Y-78943364D01*
X209336079Y-78943371D01*
X209172218Y-79052860D01*
X209172214Y-79052863D01*
X209032863Y-79192214D01*
X209032860Y-79192218D01*
X208923371Y-79356079D01*
X208923364Y-79356092D01*
X208847950Y-79538160D01*
X208847947Y-79538170D01*
X208809500Y-79731456D01*
X208809500Y-79731459D01*
X208809500Y-79928541D01*
X208809500Y-79928543D01*
X208809499Y-79928543D01*
X202860500Y-79928543D01*
X202860500Y-79881456D01*
X202860499Y-79881454D01*
X202834264Y-79749558D01*
X202822052Y-79688170D01*
X202822051Y-79688169D01*
X202822051Y-79688165D01*
X202794159Y-79620827D01*
X202746635Y-79506092D01*
X202746628Y-79506079D01*
X202664984Y-79383891D01*
X202644106Y-79317214D01*
X202662590Y-79249833D01*
X202664984Y-79246109D01*
X202746628Y-79123920D01*
X202746628Y-79123919D01*
X202746632Y-79123914D01*
X202822051Y-78941835D01*
X202860500Y-78748541D01*
X202860500Y-78551459D01*
X202860500Y-78551456D01*
X202822052Y-78358170D01*
X202822051Y-78358169D01*
X202822051Y-78358165D01*
X202811855Y-78333549D01*
X202746635Y-78176092D01*
X202746628Y-78176079D01*
X202637139Y-78012218D01*
X202637136Y-78012214D01*
X202497785Y-77872863D01*
X202497781Y-77872860D01*
X202333920Y-77763371D01*
X202333907Y-77763364D01*
X202151839Y-77687950D01*
X202151829Y-77687947D01*
X201958543Y-77649500D01*
X201958541Y-77649500D01*
X201761459Y-77649500D01*
X201761457Y-77649500D01*
X201568170Y-77687947D01*
X201568160Y-77687950D01*
X201386092Y-77763364D01*
X201386079Y-77763371D01*
X201222218Y-77872860D01*
X201222214Y-77872863D01*
X201082863Y-78012214D01*
X201082860Y-78012218D01*
X200973371Y-78176079D01*
X200973364Y-78176092D01*
X200897950Y-78358160D01*
X200897947Y-78358170D01*
X200859500Y-78551456D01*
X200859500Y-78551459D01*
X200859500Y-78748541D01*
X200859500Y-78748543D01*
X200859499Y-78748543D01*
X191940500Y-78748543D01*
X191940500Y-75866079D01*
X191911659Y-75721092D01*
X191911658Y-75721091D01*
X191911658Y-75721087D01*
X191911656Y-75721082D01*
X191855087Y-75584511D01*
X191855080Y-75584498D01*
X191772952Y-75461585D01*
X191762823Y-75451456D01*
X191668416Y-75357049D01*
X187910758Y-71599390D01*
X186618421Y-70307052D01*
X186618414Y-70307046D01*
X186544729Y-70257812D01*
X186544729Y-70257813D01*
X186495491Y-70224913D01*
X186358917Y-70168343D01*
X186358907Y-70168340D01*
X186213920Y-70139500D01*
X186213918Y-70139500D01*
X184749366Y-70139500D01*
X184682327Y-70119815D01*
X184636572Y-70067011D01*
X184626628Y-69997853D01*
X184646264Y-69946609D01*
X184751628Y-69788920D01*
X184751628Y-69788919D01*
X184751632Y-69788914D01*
X184827051Y-69606835D01*
X184865500Y-69413541D01*
X184865500Y-69216459D01*
X184865500Y-69216456D01*
X184827052Y-69023170D01*
X184827051Y-69023169D01*
X184827051Y-69023165D01*
X184827049Y-69023160D01*
X184751635Y-68841092D01*
X184751628Y-68841079D01*
X184642139Y-68677218D01*
X184642136Y-68677214D01*
X184502785Y-68537863D01*
X184502781Y-68537860D01*
X184338920Y-68428371D01*
X184338907Y-68428364D01*
X184156839Y-68352950D01*
X184156829Y-68352947D01*
X183963543Y-68314500D01*
X183963541Y-68314500D01*
X183766459Y-68314500D01*
X183766457Y-68314500D01*
X183573170Y-68352947D01*
X183573160Y-68352950D01*
X183391092Y-68428364D01*
X183391079Y-68428371D01*
X183227218Y-68537860D01*
X183227214Y-68537863D01*
X183087863Y-68677214D01*
X183087860Y-68677218D01*
X182978371Y-68841079D01*
X182978364Y-68841092D01*
X182902950Y-69023160D01*
X182902947Y-69023170D01*
X182864500Y-69216456D01*
X182864500Y-69216459D01*
X182864500Y-69413541D01*
X182864500Y-69413543D01*
X182864499Y-69413543D01*
X182902947Y-69606829D01*
X182902950Y-69606839D01*
X182978364Y-69788907D01*
X182978371Y-69788920D01*
X183063291Y-69916011D01*
X183067813Y-69930454D01*
X183076770Y-69942655D01*
X183078041Y-69963121D01*
X183084169Y-69982689D01*
X183080165Y-69997283D01*
X183081104Y-70012390D01*
X183071108Y-70030295D01*
X183065684Y-70050069D01*
X183054425Y-70060182D01*
X183047048Y-70073398D01*
X183028960Y-70083056D01*
X183013706Y-70096759D01*
X182997791Y-70099700D01*
X182985415Y-70106309D01*
X182950427Y-70108453D01*
X182950189Y-70108498D01*
X182949633Y-70108453D01*
X182760494Y-70092835D01*
X182746631Y-70092027D01*
X182745223Y-70091914D01*
X182744585Y-70091669D01*
X182731042Y-70089937D01*
X182728848Y-70089500D01*
X182728842Y-70089500D01*
X182571158Y-70089500D01*
X182571155Y-70089500D01*
X182416510Y-70120261D01*
X182416498Y-70120264D01*
X182270827Y-70180602D01*
X182270814Y-70180609D01*
X182139711Y-70268210D01*
X182139707Y-70268213D01*
X182028213Y-70379707D01*
X182028210Y-70379711D01*
X181940609Y-70510814D01*
X181940602Y-70510827D01*
X181880264Y-70656498D01*
X181880261Y-70656510D01*
X181849500Y-70811153D01*
X150602073Y-70811153D01*
X150602073Y-65428543D01*
X179609499Y-65428543D01*
X179647947Y-65621829D01*
X179647950Y-65621839D01*
X179723364Y-65803907D01*
X179723371Y-65803920D01*
X179832860Y-65967781D01*
X179832863Y-65967785D01*
X179972214Y-66107136D01*
X179972218Y-66107139D01*
X180136079Y-66216628D01*
X180136092Y-66216635D01*
X180318160Y-66292049D01*
X180318165Y-66292051D01*
X180318169Y-66292051D01*
X180318170Y-66292052D01*
X180511456Y-66330500D01*
X180511459Y-66330500D01*
X180708543Y-66330500D01*
X180838582Y-66304632D01*
X180901835Y-66292051D01*
X181083914Y-66216632D01*
X181247782Y-66107139D01*
X181387139Y-65967782D01*
X181496632Y-65803914D01*
X181572051Y-65621835D01*
X181610500Y-65428541D01*
X181610500Y-65231459D01*
X181610500Y-65231456D01*
X181572052Y-65038170D01*
X181572051Y-65038169D01*
X181572051Y-65038165D01*
X181572049Y-65038160D01*
X181496635Y-64856092D01*
X181496628Y-64856079D01*
X181387139Y-64692218D01*
X181387136Y-64692214D01*
X181247785Y-64552863D01*
X181247781Y-64552860D01*
X181083920Y-64443371D01*
X181083907Y-64443364D01*
X180901839Y-64367950D01*
X180901829Y-64367947D01*
X180708543Y-64329500D01*
X180708541Y-64329500D01*
X180511459Y-64329500D01*
X180511457Y-64329500D01*
X180318170Y-64367947D01*
X180318160Y-64367950D01*
X180136092Y-64443364D01*
X180136079Y-64443371D01*
X179972218Y-64552860D01*
X179972214Y-64552863D01*
X179832863Y-64692214D01*
X179832860Y-64692218D01*
X179723371Y-64856079D01*
X179723364Y-64856092D01*
X179647950Y-65038160D01*
X179647947Y-65038170D01*
X179609500Y-65231456D01*
X179609500Y-65231459D01*
X179609500Y-65428541D01*
X179609500Y-65428543D01*
X179609499Y-65428543D01*
X150602073Y-65428543D01*
X150602073Y-59602048D01*
X150621758Y-59535009D01*
X150674562Y-59489254D01*
X150743720Y-59479310D01*
X150807276Y-59508335D01*
X150845050Y-59567113D01*
X150847690Y-59577857D01*
X150896118Y-59821329D01*
X150896121Y-59821340D01*
X150990259Y-60131674D01*
X151114359Y-60431276D01*
X151114361Y-60431281D01*
X151267219Y-60717257D01*
X151267230Y-60717275D01*
X151447384Y-60986894D01*
X151447394Y-60986908D01*
X151653119Y-61237585D01*
X151882414Y-61466880D01*
X151882419Y-61466884D01*
X151882420Y-61466885D01*
X152133097Y-61672610D01*
X152402731Y-61852774D01*
X152402740Y-61852779D01*
X152402742Y-61852780D01*
X152688718Y-62005638D01*
X152688720Y-62005638D01*
X152688726Y-62005642D01*
X152988327Y-62129741D01*
X153298650Y-62223876D01*
X153298656Y-62223877D01*
X153298659Y-62223878D01*
X153298670Y-62223881D01*
X153498101Y-62263549D01*
X153616705Y-62287141D01*
X153939430Y-62318927D01*
X153939433Y-62318927D01*
X154263713Y-62318927D01*
X154263716Y-62318927D01*
X154586441Y-62287141D01*
X154743868Y-62255826D01*
X154802148Y-62244234D01*
X170434500Y-62244234D01*
X170434500Y-62395765D01*
X170473719Y-62542136D01*
X170511602Y-62607750D01*
X170549485Y-62673365D01*
X170656635Y-62780515D01*
X170787865Y-62856281D01*
X170934234Y-62895500D01*
X170934236Y-62895500D01*
X171085764Y-62895500D01*
X171085766Y-62895500D01*
X171232135Y-62856281D01*
X171363365Y-62780515D01*
X171470515Y-62673365D01*
X171546281Y-62542135D01*
X171585500Y-62395766D01*
X171585500Y-62244234D01*
X176214500Y-62244234D01*
X176214500Y-62395765D01*
X176253719Y-62542136D01*
X176291602Y-62607750D01*
X176329485Y-62673365D01*
X176436635Y-62780515D01*
X176567865Y-62856281D01*
X176714234Y-62895500D01*
X176714236Y-62895500D01*
X176865764Y-62895500D01*
X176865766Y-62895500D01*
X177012135Y-62856281D01*
X177143365Y-62780515D01*
X177250515Y-62673365D01*
X177326281Y-62542135D01*
X177365500Y-62395766D01*
X177365500Y-62244234D01*
X177326281Y-62097865D01*
X177250515Y-61966635D01*
X177143365Y-61859485D01*
X177077750Y-61821602D01*
X177012136Y-61783719D01*
X176938950Y-61764109D01*
X176865766Y-61744500D01*
X176714234Y-61744500D01*
X176567863Y-61783719D01*
X176436635Y-61859485D01*
X176436632Y-61859487D01*
X176329487Y-61966632D01*
X176329485Y-61966635D01*
X176253719Y-62097863D01*
X176214500Y-62244234D01*
X171585500Y-62244234D01*
X171546281Y-62097865D01*
X171470515Y-61966635D01*
X171363365Y-61859485D01*
X171297750Y-61821602D01*
X171232136Y-61783719D01*
X171158950Y-61764109D01*
X171085766Y-61744500D01*
X170934234Y-61744500D01*
X170787863Y-61783719D01*
X170656635Y-61859485D01*
X170656632Y-61859487D01*
X170549487Y-61966632D01*
X170549485Y-61966635D01*
X170473719Y-62097863D01*
X170434500Y-62244234D01*
X154802148Y-62244234D01*
X154904475Y-62223881D01*
X154904486Y-62223878D01*
X154904486Y-62223877D01*
X154904496Y-62223876D01*
X155214819Y-62129741D01*
X155514420Y-62005642D01*
X155800415Y-61852774D01*
X156070049Y-61672610D01*
X156320726Y-61466885D01*
X156550031Y-61237580D01*
X156755756Y-60986903D01*
X156935920Y-60717269D01*
X157088788Y-60431274D01*
X157212887Y-60131673D01*
X157307022Y-59821350D01*
X157307024Y-59821340D01*
X157307027Y-59821329D01*
X157352842Y-59590995D01*
X157370287Y-59503295D01*
X157402073Y-59180570D01*
X157402073Y-58856284D01*
X157370287Y-58533559D01*
X157347699Y-58420000D01*
X157321763Y-58289608D01*
X157318162Y-58271504D01*
X168580000Y-58271504D01*
X168580000Y-58420000D01*
X169280000Y-58420000D01*
X169280000Y-58920000D01*
X168580000Y-58920000D01*
X168580000Y-59068495D01*
X168618427Y-59261681D01*
X168618430Y-59261693D01*
X168693807Y-59443671D01*
X168693814Y-59443684D01*
X168803248Y-59607462D01*
X168803251Y-59607466D01*
X168942533Y-59746748D01*
X168942537Y-59746751D01*
X169106315Y-59856185D01*
X169106328Y-59856192D01*
X169288308Y-59931569D01*
X169330000Y-59939862D01*
X169330000Y-59136988D01*
X169339940Y-59154205D01*
X169395795Y-59210060D01*
X169464204Y-59249556D01*
X169540504Y-59270000D01*
X169619496Y-59270000D01*
X169695796Y-59249556D01*
X169764205Y-59210060D01*
X169820060Y-59154205D01*
X169830000Y-59136988D01*
X169830000Y-59939862D01*
X169871690Y-59931569D01*
X169871692Y-59931569D01*
X170053671Y-59856192D01*
X170053684Y-59856185D01*
X170217462Y-59746751D01*
X170217466Y-59746748D01*
X170356748Y-59607466D01*
X170356751Y-59607462D01*
X170466185Y-59443684D01*
X170466192Y-59443671D01*
X170541569Y-59261693D01*
X170541572Y-59261681D01*
X170579999Y-59068495D01*
X170580000Y-59068492D01*
X170580000Y-58920000D01*
X169880000Y-58920000D01*
X169880000Y-58420000D01*
X170580000Y-58420000D01*
X170580000Y-58271508D01*
X170579999Y-58271504D01*
X177220000Y-58271504D01*
X177220000Y-58420000D01*
X177920000Y-58420000D01*
X177920000Y-58920000D01*
X177220000Y-58920000D01*
X177220000Y-59068495D01*
X177258427Y-59261681D01*
X177258430Y-59261693D01*
X177333807Y-59443671D01*
X177333814Y-59443684D01*
X177443248Y-59607462D01*
X177443251Y-59607466D01*
X177582533Y-59746748D01*
X177582537Y-59746751D01*
X177746315Y-59856185D01*
X177746328Y-59856192D01*
X177928308Y-59931569D01*
X177970000Y-59939862D01*
X177970000Y-59136988D01*
X177979940Y-59154205D01*
X178035795Y-59210060D01*
X178104204Y-59249556D01*
X178180504Y-59270000D01*
X178259496Y-59270000D01*
X178335796Y-59249556D01*
X178404205Y-59210060D01*
X178460060Y-59154205D01*
X178470000Y-59136988D01*
X178470000Y-59939862D01*
X178511690Y-59931569D01*
X178511692Y-59931569D01*
X178693671Y-59856192D01*
X178693684Y-59856185D01*
X178857462Y-59746751D01*
X178857466Y-59746748D01*
X178996748Y-59607466D01*
X178996751Y-59607462D01*
X179106185Y-59443684D01*
X179106192Y-59443671D01*
X179181569Y-59261693D01*
X179181572Y-59261681D01*
X179219999Y-59068495D01*
X179220000Y-59068492D01*
X179220000Y-58920000D01*
X178520000Y-58920000D01*
X178520000Y-58420000D01*
X179220000Y-58420000D01*
X179220000Y-58271508D01*
X179219999Y-58271504D01*
X179181572Y-58078318D01*
X179181569Y-58078306D01*
X179106192Y-57896328D01*
X179106185Y-57896315D01*
X178996751Y-57732537D01*
X178996748Y-57732533D01*
X178857466Y-57593251D01*
X178857462Y-57593248D01*
X178693684Y-57483814D01*
X178693671Y-57483807D01*
X178511691Y-57408429D01*
X178511683Y-57408427D01*
X178470000Y-57400135D01*
X178470000Y-58203011D01*
X178460060Y-58185795D01*
X178404205Y-58129940D01*
X178335796Y-58090444D01*
X178259496Y-58070000D01*
X178180504Y-58070000D01*
X178104204Y-58090444D01*
X178035795Y-58129940D01*
X177979940Y-58185795D01*
X177970000Y-58203011D01*
X177970000Y-57400136D01*
X177969999Y-57400135D01*
X177928316Y-57408427D01*
X177928308Y-57408429D01*
X177746328Y-57483807D01*
X177746315Y-57483814D01*
X177582537Y-57593248D01*
X177582533Y-57593251D01*
X177443251Y-57732533D01*
X177443248Y-57732537D01*
X177333814Y-57896315D01*
X177333807Y-57896328D01*
X177258430Y-58078306D01*
X177258427Y-58078318D01*
X177220000Y-58271504D01*
X170579999Y-58271504D01*
X170541572Y-58078318D01*
X170541569Y-58078306D01*
X170466192Y-57896328D01*
X170466185Y-57896315D01*
X170356751Y-57732537D01*
X170356748Y-57732533D01*
X170217466Y-57593251D01*
X170217462Y-57593248D01*
X170053684Y-57483814D01*
X170053671Y-57483807D01*
X169871691Y-57408429D01*
X169871683Y-57408427D01*
X169830000Y-57400135D01*
X169830000Y-58203011D01*
X169820060Y-58185795D01*
X169764205Y-58129940D01*
X169695796Y-58090444D01*
X169619496Y-58070000D01*
X169540504Y-58070000D01*
X169464204Y-58090444D01*
X169395795Y-58129940D01*
X169339940Y-58185795D01*
X169330000Y-58203011D01*
X169330000Y-57400136D01*
X169329999Y-57400135D01*
X169288316Y-57408427D01*
X169288308Y-57408429D01*
X169106328Y-57483807D01*
X169106315Y-57483814D01*
X168942537Y-57593248D01*
X168942533Y-57593251D01*
X168803251Y-57732533D01*
X168803248Y-57732537D01*
X168693814Y-57896315D01*
X168693807Y-57896328D01*
X168618430Y-58078306D01*
X168618427Y-58078318D01*
X168580000Y-58271504D01*
X157318162Y-58271504D01*
X157307027Y-58215524D01*
X157307024Y-58215513D01*
X157307023Y-58215510D01*
X157307022Y-58215504D01*
X157212887Y-57905181D01*
X157088788Y-57605580D01*
X157082196Y-57593248D01*
X156935926Y-57319596D01*
X156935925Y-57319594D01*
X156935920Y-57319585D01*
X156755756Y-57049951D01*
X156550031Y-56799274D01*
X156550030Y-56799273D01*
X156550026Y-56799268D01*
X156320731Y-56569973D01*
X156070054Y-56364248D01*
X156070053Y-56364247D01*
X156070049Y-56364244D01*
X155800415Y-56184080D01*
X155800410Y-56184077D01*
X155800403Y-56184073D01*
X155514427Y-56031215D01*
X155514422Y-56031213D01*
X155214820Y-55907113D01*
X154904486Y-55812975D01*
X154904475Y-55812972D01*
X154661004Y-55764544D01*
X154599093Y-55732159D01*
X154564519Y-55671444D01*
X154568258Y-55601674D01*
X154609124Y-55545002D01*
X154674142Y-55519421D01*
X154685195Y-55518927D01*
X213517951Y-55518927D01*
X213584990Y-55538612D01*
G37*
G04 #@! TD.AperFunction*
G04 #@! TD*
G04 #@! TA.AperFunction,Conductor*
G04 #@! TO.N,+3.3V*
G36*
X187851564Y-75282389D02*
G01*
X187851960Y-75283027D01*
X188245024Y-75965735D01*
X188302616Y-76065765D01*
X188303774Y-76074645D01*
X188300749Y-76079876D01*
X187959876Y-76420749D01*
X187951603Y-76424176D01*
X187945765Y-76422616D01*
X187339453Y-76073536D01*
X187163031Y-75971962D01*
X187157572Y-75964865D01*
X187158730Y-75955985D01*
X187159115Y-75955362D01*
X187427992Y-75551247D01*
X187431247Y-75547992D01*
X187835344Y-75279128D01*
X187844128Y-75277399D01*
X187851564Y-75282389D01*
G37*
G04 #@! TD.AperFunction*
G04 #@! TD*
G04 #@! TA.AperFunction,Conductor*
G04 #@! TO.N,Net-(Q2-G)*
G36*
X183551029Y-81720654D02*
G01*
X183889345Y-82058970D01*
X183892772Y-82067243D01*
X183889998Y-82074807D01*
X183556166Y-82468734D01*
X183548203Y-82472830D01*
X183540772Y-82470919D01*
X183301265Y-82312015D01*
X183297984Y-82308734D01*
X183139080Y-82069227D01*
X183137361Y-82060439D01*
X183141264Y-82053834D01*
X183535192Y-81720000D01*
X183543719Y-81717267D01*
X183551029Y-81720654D01*
G37*
G04 #@! TD.AperFunction*
G04 #@! TD*
G04 #@! TA.AperFunction,Conductor*
G04 #@! TO.N,+USB_5V*
G36*
X183233499Y-70639113D02*
G01*
X183241462Y-70643209D01*
X183244236Y-70650773D01*
X183244236Y-71129226D01*
X183240809Y-71137499D01*
X183233499Y-71140886D01*
X182718895Y-71183379D01*
X182710368Y-71180645D01*
X182706464Y-71174039D01*
X182649469Y-70892320D01*
X182649469Y-70887680D01*
X182699578Y-70640000D01*
X182706464Y-70605959D01*
X182711464Y-70598531D01*
X182718894Y-70596620D01*
X183233499Y-70639113D01*
G37*
G04 #@! TD.AperFunction*
G04 #@! TD*
G04 #@! TA.AperFunction,Conductor*
G04 #@! TO.N,SUP_STAT*
G36*
X158441029Y-87810654D02*
G01*
X158779345Y-88148970D01*
X158782772Y-88157243D01*
X158779998Y-88164807D01*
X158446166Y-88558734D01*
X158438203Y-88562830D01*
X158430772Y-88560919D01*
X158191265Y-88402015D01*
X158187984Y-88398734D01*
X158029080Y-88159227D01*
X158027361Y-88150439D01*
X158031264Y-88143834D01*
X158425192Y-87810000D01*
X158433719Y-87807267D01*
X158441029Y-87810654D01*
G37*
G04 #@! TD.AperFunction*
G04 #@! TD*
G04 #@! TA.AperFunction,Conductor*
G04 #@! TO.N,+USB_5V*
G36*
X191437500Y-79509191D02*
G01*
X191440887Y-79516501D01*
X191483379Y-80031104D01*
X191480645Y-80039631D01*
X191474039Y-80043535D01*
X191192320Y-80100530D01*
X191187680Y-80100530D01*
X190905960Y-80043535D01*
X190898531Y-80038535D01*
X190896620Y-80031104D01*
X190939113Y-79516501D01*
X190943209Y-79508538D01*
X190950773Y-79505764D01*
X191429227Y-79505764D01*
X191437500Y-79509191D01*
G37*
G04 #@! TD.AperFunction*
G04 #@! TD*
G04 #@! TA.AperFunction,Conductor*
G04 #@! TO.N,+3.3V*
G36*
X203354232Y-90817382D02*
G01*
X204136967Y-91268037D01*
X204142427Y-91275134D01*
X204141269Y-91284014D01*
X204140870Y-91284657D01*
X203872009Y-91688749D01*
X203868749Y-91692009D01*
X203464657Y-91960870D01*
X203455871Y-91962600D01*
X203448435Y-91957610D01*
X203448044Y-91956980D01*
X202997382Y-91174232D01*
X202996225Y-91165354D01*
X202999248Y-91160125D01*
X203340124Y-90819249D01*
X203348396Y-90815823D01*
X203354232Y-90817382D01*
G37*
G04 #@! TD.AperFunction*
G04 #@! TD*
G04 #@! TA.AperFunction,Conductor*
G04 #@! TO.N,Net-(Q2-G)*
G36*
X187429631Y-80939354D02*
G01*
X187433535Y-80945960D01*
X187490530Y-81227680D01*
X187490530Y-81232320D01*
X187433535Y-81514039D01*
X187428535Y-81521468D01*
X187421104Y-81523379D01*
X186906501Y-81480886D01*
X186898538Y-81476790D01*
X186895764Y-81469226D01*
X186895764Y-80990773D01*
X186899191Y-80982500D01*
X186906499Y-80979113D01*
X187421104Y-80936620D01*
X187429631Y-80939354D01*
G37*
G04 #@! TD.AperFunction*
G04 #@! TD*
G04 #@! TA.AperFunction,Conductor*
G04 #@! TO.N,SUP_STAT*
G36*
X186134807Y-79410001D02*
G01*
X186528734Y-79743833D01*
X186532830Y-79751796D01*
X186530919Y-79759227D01*
X186372015Y-79998734D01*
X186368734Y-80002015D01*
X186129227Y-80160919D01*
X186120439Y-80162638D01*
X186113833Y-80158734D01*
X185780001Y-79764807D01*
X185777267Y-79756280D01*
X185780653Y-79748971D01*
X186118971Y-79410653D01*
X186127243Y-79407227D01*
X186134807Y-79410001D01*
G37*
G04 #@! TD.AperFunction*
G04 #@! TD*
M02*
