G04 #@! TF.GenerationSoftware,KiCad,Pcbnew,9.0.7*
G04 #@! TF.CreationDate,2026-05-01T21:55:58+08:00*
G04 #@! TF.ProjectId,lora,6c6f7261-2e6b-4696-9361-645f70636258,rev?*
G04 #@! TF.SameCoordinates,Original*
G04 #@! TF.FileFunction,Copper,L2,Inr*
G04 #@! TF.FilePolarity,Positive*
%FSLAX46Y46*%
G04 Gerber Fmt 4.6, Leading zero omitted, Abs format (unit mm)*
G04 Created by KiCad (PCBNEW 9.0.7) date 2026-05-01 21:55:58*
%MOMM*%
%LPD*%
G01*
G04 APERTURE LIST*
G04 #@! TA.AperFunction,ComponentPad*
%ADD10C,5.600000*%
G04 #@! TD*
G04 #@! TA.AperFunction,ViaPad*
%ADD11C,0.600000*%
G04 #@! TD*
G04 #@! TA.AperFunction,ViaPad*
%ADD12C,1.000000*%
G04 #@! TD*
G04 APERTURE END LIST*
D10*
G04 #@! TO.N,N/C*
G04 #@! TO.C,H1*
X123240000Y-61200000D03*
G04 #@! TD*
G04 #@! TO.N,N/C*
G04 #@! TO.C,H2*
X183240000Y-61200000D03*
G04 #@! TD*
G04 #@! TO.N,N/C*
G04 #@! TO.C,H3*
X183240000Y-121200000D03*
G04 #@! TD*
G04 #@! TO.N,N/C*
G04 #@! TO.C,H4*
X123240000Y-121200000D03*
G04 #@! TD*
D11*
G04 #@! TO.N,GND*
X174290000Y-110300000D03*
X145750000Y-85690000D03*
X171950000Y-116710000D03*
X122080000Y-113940000D03*
X177200000Y-83330000D03*
X155000000Y-63770000D03*
X120690000Y-109890000D03*
X168200000Y-92330000D03*
X142750000Y-91690000D03*
X127180000Y-114080000D03*
X130750000Y-97690000D03*
X153290000Y-66900000D03*
X178960000Y-74120000D03*
X140730000Y-64660000D03*
X152180000Y-119080000D03*
X142750000Y-94690000D03*
X154860000Y-108430000D03*
X159340000Y-91500000D03*
X147180000Y-114080000D03*
X142750000Y-73690000D03*
X185010000Y-76450000D03*
X148750000Y-85690000D03*
X177540000Y-62380000D03*
X120690000Y-99890000D03*
X174630000Y-64560000D03*
X170230000Y-119550000D03*
D12*
X182520000Y-82310000D03*
D11*
X130750000Y-91690000D03*
D12*
X166730000Y-118080000D03*
D11*
X148750000Y-70690000D03*
X142180000Y-124080000D03*
X166670000Y-77050000D03*
X142750000Y-79690000D03*
X165200000Y-95330000D03*
D12*
X161450000Y-84040000D03*
D11*
X125690000Y-99890000D03*
X151479938Y-59425312D03*
X165200000Y-89330000D03*
D12*
X169620000Y-63870000D03*
D11*
X147320000Y-68080000D03*
X125370000Y-94990000D03*
X158550000Y-97320000D03*
X142180000Y-114080000D03*
X168200000Y-89330000D03*
X125690000Y-109890000D03*
X174200000Y-86330000D03*
X164000000Y-60420000D03*
X133750000Y-85690000D03*
X173090000Y-77080000D03*
X168200000Y-83330000D03*
X181820000Y-76650000D03*
X139750000Y-94690000D03*
X148750000Y-94690000D03*
X183680000Y-104130000D03*
X133620000Y-70740000D03*
D12*
X164970000Y-117350000D03*
D11*
X172200000Y-67900000D03*
X150240000Y-68130000D03*
X168200000Y-95330000D03*
X139750000Y-73690000D03*
X137180000Y-114080000D03*
X184070000Y-100690000D03*
X148750000Y-88690000D03*
X127820000Y-72080000D03*
X131790000Y-61320000D03*
X167010000Y-71650000D03*
X152150000Y-111650000D03*
X165040000Y-110190000D03*
X183740000Y-108510000D03*
X148750000Y-79690000D03*
X166530000Y-74390000D03*
X136750000Y-88690000D03*
X171200000Y-92330000D03*
X145750000Y-97690000D03*
X178160000Y-81170000D03*
X129840000Y-72170000D03*
X142180000Y-119080000D03*
X136750000Y-70690000D03*
X145750000Y-82690000D03*
X152180000Y-124080000D03*
X171200000Y-86330000D03*
X136750000Y-79690000D03*
X142750000Y-76690000D03*
X151040000Y-64480000D03*
X181280000Y-98450000D03*
X163180000Y-77330000D03*
X139750000Y-85690000D03*
X124870000Y-72500000D03*
X171200000Y-98330000D03*
X145750000Y-70690000D03*
X137180000Y-119080000D03*
X181720000Y-67970000D03*
X136750000Y-73690000D03*
X136750000Y-82690000D03*
X139750000Y-79690000D03*
X174200000Y-83330000D03*
X137180000Y-124080000D03*
X174130000Y-123860000D03*
X130400000Y-73940000D03*
X130750000Y-88690000D03*
X127720000Y-93180000D03*
X179130000Y-113860000D03*
D12*
X154980000Y-74770000D03*
D11*
X145750000Y-94690000D03*
X145750000Y-88690000D03*
X177200000Y-98330000D03*
X174200000Y-92330000D03*
X179260000Y-64920000D03*
X120690000Y-89890000D03*
X157370000Y-89280000D03*
X139750000Y-70690000D03*
D12*
X145110000Y-65110000D03*
D11*
X133750000Y-79690000D03*
X142750000Y-97690000D03*
X154590000Y-88080000D03*
X174130000Y-113860000D03*
X133750000Y-97690000D03*
X148750000Y-82690000D03*
X148750000Y-91690000D03*
X133750000Y-88690000D03*
D12*
X141370000Y-60980000D03*
D11*
X177200000Y-86330000D03*
X132180000Y-119080000D03*
X134620000Y-61500000D03*
X136750000Y-97690000D03*
X166530000Y-80230000D03*
X177200000Y-95330000D03*
X185590000Y-93430000D03*
D12*
X185570000Y-81540000D03*
D11*
X171200000Y-95330000D03*
X139750000Y-91690000D03*
X154942992Y-59095498D03*
X120690000Y-104890000D03*
X157180000Y-124080000D03*
X170020000Y-76880000D03*
X155010380Y-105591269D03*
X139750000Y-82690000D03*
X172650000Y-62240000D03*
X168200000Y-98330000D03*
X148750000Y-73690000D03*
X182870000Y-73780000D03*
X155780000Y-90710000D03*
X165200000Y-92330000D03*
X139750000Y-88690000D03*
X177200000Y-89330000D03*
X169950000Y-80030000D03*
D12*
X146500000Y-112190000D03*
D11*
X129510000Y-59130000D03*
X154670000Y-61290000D03*
X127820000Y-96720000D03*
X159070000Y-105760000D03*
X169130000Y-123860000D03*
X125690000Y-104890000D03*
X163520000Y-71380000D03*
X163250000Y-74210000D03*
X160380000Y-60550000D03*
X169370000Y-114520000D03*
X174420000Y-74030000D03*
X165200000Y-83330000D03*
X165200000Y-98330000D03*
D12*
X181120000Y-94470000D03*
D11*
X170090000Y-74040000D03*
X176060000Y-71350000D03*
X173060000Y-80540000D03*
X174100000Y-119900000D03*
X163210000Y-80230000D03*
X136750000Y-91690000D03*
X167530000Y-60710000D03*
X130840000Y-76550000D03*
X175570000Y-79390000D03*
X148750000Y-76690000D03*
X160200000Y-95120000D03*
X133750000Y-76690000D03*
X168200000Y-86330000D03*
X152180000Y-114080000D03*
X130750000Y-82690000D03*
X147180000Y-119080000D03*
X174200000Y-98330000D03*
D12*
X145130000Y-61010000D03*
D11*
X157090000Y-93660000D03*
X155440000Y-97040000D03*
X179120000Y-110460000D03*
X136750000Y-94690000D03*
X174200000Y-95330000D03*
X169320000Y-110220000D03*
X177200000Y-92330000D03*
X139750000Y-76690000D03*
X132180000Y-124080000D03*
X133750000Y-82690000D03*
X147180000Y-124080000D03*
X130750000Y-85690000D03*
X139750000Y-97690000D03*
X136750000Y-85690000D03*
X129040000Y-61500000D03*
X145750000Y-79690000D03*
X136750000Y-76690000D03*
X132850000Y-58970000D03*
X120690000Y-94890000D03*
X171200000Y-89330000D03*
X142750000Y-82690000D03*
X145750000Y-91690000D03*
X133750000Y-94690000D03*
X159010000Y-108600000D03*
X185130000Y-70600000D03*
X130750000Y-94690000D03*
X145750000Y-76690000D03*
X166300000Y-65840000D03*
X165200000Y-86330000D03*
X159070000Y-101190000D03*
D12*
X168530000Y-64960000D03*
D11*
X155600000Y-69260000D03*
X184230000Y-79130000D03*
X163130000Y-68980000D03*
D12*
X143990000Y-112190000D03*
D11*
X130750000Y-79690000D03*
X125660000Y-90210000D03*
X151770000Y-95810000D03*
X185050000Y-96490000D03*
X151750000Y-61790000D03*
X133750000Y-91690000D03*
X174200000Y-89330000D03*
X147980000Y-66220000D03*
X154060000Y-93230000D03*
X145750000Y-73690000D03*
X132180000Y-114080000D03*
X142750000Y-70690000D03*
D12*
X161350000Y-92960000D03*
X135470000Y-112240000D03*
D11*
X176800000Y-67800000D03*
X183580000Y-113820000D03*
X155270000Y-101020000D03*
X130840000Y-70710000D03*
X179400000Y-70820000D03*
X133620000Y-73740000D03*
X171200000Y-83330000D03*
X174350000Y-59760000D03*
X142750000Y-88690000D03*
X142750000Y-85690000D03*
X161500000Y-98820000D03*
X148750000Y-97690000D03*
D12*
G04 #@! TO.N,+3.3V*
X183800000Y-87440000D03*
X127210000Y-62870000D03*
X159990000Y-111310000D03*
X157140000Y-114020000D03*
X159820000Y-118530000D03*
X161920000Y-117100000D03*
X154890000Y-85680000D03*
X124100000Y-65750000D03*
D11*
G04 #@! TO.N,UART3_TX*
X122960000Y-78270000D03*
G04 #@! TO.N,UART3_RX*
X124180000Y-78680000D03*
G04 #@! TO.N,LORA433_RST*
X156050000Y-80370000D03*
G04 #@! TO.N,LORA920_RST*
X182600000Y-88630000D03*
G04 #@! TO.N,LORA433_BUSY*
X125720000Y-78640000D03*
G04 #@! TO.N,LORA433_M0*
X120220000Y-83960000D03*
G04 #@! TO.N,LORA433_M1*
X120810000Y-82630000D03*
G04 #@! TO.N,SPI3_SCK*
X161370000Y-65960000D03*
G04 #@! TO.N,LORA920_INT*
X181120000Y-88500000D03*
G04 #@! TO.N,LORA920_BUSY*
X158870000Y-65900000D03*
G04 #@! TO.N,SPI3_MISO*
X163870000Y-66010000D03*
G04 #@! TO.N,CSB_LORA920*
X160120000Y-65930000D03*
G04 #@! TO.N,SPI3_MOSI*
X162590000Y-65990000D03*
G04 #@! TD*
G04 #@! TA.AperFunction,Conductor*
G04 #@! TO.N,GND*
G36*
X182723417Y-57720185D02*
G01*
X182769172Y-57772989D01*
X182779116Y-57842147D01*
X182750091Y-57905703D01*
X182691313Y-57943477D01*
X182680569Y-57946117D01*
X182437097Y-57994545D01*
X182437086Y-57994548D01*
X182126752Y-58088686D01*
X181827150Y-58212786D01*
X181827145Y-58212788D01*
X181541169Y-58365646D01*
X181541151Y-58365657D01*
X181271532Y-58545811D01*
X181271518Y-58545821D01*
X181020841Y-58751546D01*
X180791546Y-58980841D01*
X180585821Y-59231518D01*
X180585811Y-59231532D01*
X180405657Y-59501151D01*
X180405646Y-59501169D01*
X180252788Y-59787145D01*
X180252786Y-59787150D01*
X180128686Y-60086752D01*
X180034548Y-60397086D01*
X180034545Y-60397097D01*
X179971287Y-60715125D01*
X179971284Y-60715142D01*
X179939500Y-61037860D01*
X179939500Y-61362139D01*
X179971284Y-61684857D01*
X179971287Y-61684874D01*
X180034545Y-62002902D01*
X180034548Y-62002913D01*
X180128686Y-62313247D01*
X180252786Y-62612849D01*
X180252788Y-62612854D01*
X180405646Y-62898830D01*
X180405650Y-62898837D01*
X180405653Y-62898842D01*
X180585814Y-63168472D01*
X180585821Y-63168481D01*
X180791546Y-63419158D01*
X181020841Y-63648453D01*
X181020846Y-63648457D01*
X181020847Y-63648458D01*
X181271524Y-63854183D01*
X181541158Y-64034347D01*
X181541167Y-64034352D01*
X181541169Y-64034353D01*
X181827145Y-64187211D01*
X181827147Y-64187211D01*
X181827153Y-64187215D01*
X182126754Y-64311314D01*
X182437077Y-64405449D01*
X182437083Y-64405450D01*
X182437086Y-64405451D01*
X182437097Y-64405454D01*
X182636528Y-64445122D01*
X182755132Y-64468714D01*
X183077857Y-64500500D01*
X183077860Y-64500500D01*
X183402140Y-64500500D01*
X183402143Y-64500500D01*
X183724868Y-64468714D01*
X183882295Y-64437399D01*
X184042902Y-64405454D01*
X184042913Y-64405451D01*
X184042913Y-64405450D01*
X184042923Y-64405449D01*
X184353246Y-64311314D01*
X184652847Y-64187215D01*
X184938842Y-64034347D01*
X185208476Y-63854183D01*
X185459153Y-63648458D01*
X185688458Y-63419153D01*
X185894183Y-63168476D01*
X186074347Y-62898842D01*
X186227215Y-62612847D01*
X186351314Y-62313246D01*
X186445449Y-62002923D01*
X186445451Y-62002913D01*
X186445454Y-62002902D01*
X186493883Y-61759430D01*
X186526267Y-61697519D01*
X186586983Y-61662945D01*
X186656753Y-61666684D01*
X186713425Y-61707550D01*
X186739006Y-61772568D01*
X186739500Y-61783621D01*
X186739500Y-120616378D01*
X186719815Y-120683417D01*
X186667011Y-120729172D01*
X186597853Y-120739116D01*
X186534297Y-120710091D01*
X186496523Y-120651313D01*
X186493883Y-120640569D01*
X186445454Y-120397097D01*
X186445451Y-120397086D01*
X186445450Y-120397083D01*
X186445449Y-120397077D01*
X186351314Y-120086754D01*
X186227215Y-119787153D01*
X186074347Y-119501158D01*
X185894183Y-119231524D01*
X185688458Y-118980847D01*
X185688457Y-118980846D01*
X185688453Y-118980841D01*
X185459158Y-118751546D01*
X185208481Y-118545821D01*
X185208480Y-118545820D01*
X185208476Y-118545817D01*
X184938842Y-118365653D01*
X184938837Y-118365650D01*
X184938830Y-118365646D01*
X184652854Y-118212788D01*
X184652849Y-118212786D01*
X184353247Y-118088686D01*
X184042913Y-117994548D01*
X184042902Y-117994545D01*
X183724874Y-117931287D01*
X183724857Y-117931284D01*
X183480812Y-117907248D01*
X183402143Y-117899500D01*
X183077857Y-117899500D01*
X183005099Y-117906666D01*
X182755142Y-117931284D01*
X182755125Y-117931287D01*
X182437097Y-117994545D01*
X182437086Y-117994548D01*
X182126752Y-118088686D01*
X181827150Y-118212786D01*
X181827145Y-118212788D01*
X181541169Y-118365646D01*
X181541151Y-118365657D01*
X181271532Y-118545811D01*
X181271518Y-118545821D01*
X181020841Y-118751546D01*
X180791546Y-118980841D01*
X180585821Y-119231518D01*
X180585811Y-119231532D01*
X180405657Y-119501151D01*
X180405646Y-119501169D01*
X180252788Y-119787145D01*
X180252786Y-119787150D01*
X180128686Y-120086752D01*
X180034548Y-120397086D01*
X180034545Y-120397097D01*
X179971287Y-120715125D01*
X179971284Y-120715142D01*
X179939500Y-121037860D01*
X179939500Y-121362139D01*
X179971284Y-121684857D01*
X179971287Y-121684874D01*
X180034545Y-122002902D01*
X180034548Y-122002913D01*
X180128686Y-122313247D01*
X180252786Y-122612849D01*
X180252788Y-122612854D01*
X180405646Y-122898830D01*
X180405657Y-122898848D01*
X180585811Y-123168467D01*
X180585821Y-123168481D01*
X180791546Y-123419158D01*
X181020841Y-123648453D01*
X181020846Y-123648457D01*
X181020847Y-123648458D01*
X181271524Y-123854183D01*
X181541158Y-124034347D01*
X181541167Y-124034352D01*
X181541169Y-124034353D01*
X181827145Y-124187211D01*
X181827147Y-124187211D01*
X181827153Y-124187215D01*
X182126754Y-124311314D01*
X182437077Y-124405449D01*
X182437083Y-124405450D01*
X182437086Y-124405451D01*
X182437097Y-124405454D01*
X182680569Y-124453883D01*
X182742480Y-124486268D01*
X182777054Y-124546983D01*
X182773315Y-124616753D01*
X182732449Y-124673425D01*
X182667431Y-124699006D01*
X182656378Y-124699500D01*
X123823622Y-124699500D01*
X123756583Y-124679815D01*
X123710828Y-124627011D01*
X123700884Y-124557853D01*
X123729909Y-124494297D01*
X123788687Y-124456523D01*
X123799431Y-124453883D01*
X124042902Y-124405454D01*
X124042913Y-124405451D01*
X124042913Y-124405450D01*
X124042923Y-124405449D01*
X124353246Y-124311314D01*
X124652847Y-124187215D01*
X124938842Y-124034347D01*
X125208476Y-123854183D01*
X125459153Y-123648458D01*
X125688458Y-123419153D01*
X125894183Y-123168476D01*
X126074347Y-122898842D01*
X126227215Y-122612847D01*
X126351314Y-122313246D01*
X126445449Y-122002923D01*
X126445451Y-122002913D01*
X126445454Y-122002902D01*
X126488201Y-121787993D01*
X126508714Y-121684868D01*
X126540500Y-121362143D01*
X126540500Y-121037857D01*
X126508714Y-120715132D01*
X126485122Y-120596528D01*
X126445454Y-120397097D01*
X126445451Y-120397086D01*
X126445450Y-120397083D01*
X126445449Y-120397077D01*
X126351314Y-120086754D01*
X126227215Y-119787153D01*
X126074347Y-119501158D01*
X125894183Y-119231524D01*
X125688458Y-118980847D01*
X125688457Y-118980846D01*
X125688453Y-118980841D01*
X125459158Y-118751546D01*
X125309278Y-118628543D01*
X158819499Y-118628543D01*
X158857947Y-118821829D01*
X158857950Y-118821839D01*
X158933364Y-119003907D01*
X158933371Y-119003920D01*
X159042860Y-119167781D01*
X159042863Y-119167785D01*
X159182214Y-119307136D01*
X159182218Y-119307139D01*
X159346079Y-119416628D01*
X159346092Y-119416635D01*
X159528160Y-119492049D01*
X159528165Y-119492051D01*
X159528169Y-119492051D01*
X159528170Y-119492052D01*
X159721456Y-119530500D01*
X159721459Y-119530500D01*
X159918543Y-119530500D01*
X160065996Y-119501169D01*
X160111835Y-119492051D01*
X160293914Y-119416632D01*
X160457782Y-119307139D01*
X160597139Y-119167782D01*
X160706632Y-119003914D01*
X160782051Y-118821835D01*
X160820500Y-118628541D01*
X160820500Y-118431459D01*
X160820500Y-118431456D01*
X160782052Y-118238170D01*
X160782051Y-118238169D01*
X160782051Y-118238165D01*
X160725029Y-118100500D01*
X160706635Y-118056092D01*
X160706628Y-118056079D01*
X160597139Y-117892218D01*
X160597136Y-117892214D01*
X160457785Y-117752863D01*
X160457781Y-117752860D01*
X160293920Y-117643371D01*
X160293907Y-117643364D01*
X160111839Y-117567950D01*
X160111829Y-117567947D01*
X159918543Y-117529500D01*
X159918541Y-117529500D01*
X159721459Y-117529500D01*
X159721457Y-117529500D01*
X159528170Y-117567947D01*
X159528160Y-117567950D01*
X159346092Y-117643364D01*
X159346079Y-117643371D01*
X159182218Y-117752860D01*
X159182214Y-117752863D01*
X159042863Y-117892214D01*
X159042860Y-117892218D01*
X158933371Y-118056079D01*
X158933364Y-118056092D01*
X158857950Y-118238160D01*
X158857947Y-118238170D01*
X158819500Y-118431456D01*
X158819500Y-118431459D01*
X158819500Y-118628541D01*
X158819500Y-118628543D01*
X158819499Y-118628543D01*
X125309278Y-118628543D01*
X125208481Y-118545821D01*
X125208480Y-118545820D01*
X125208476Y-118545817D01*
X124938842Y-118365653D01*
X124938837Y-118365650D01*
X124938830Y-118365646D01*
X124652854Y-118212788D01*
X124652849Y-118212786D01*
X124353247Y-118088686D01*
X124042913Y-117994548D01*
X124042902Y-117994545D01*
X123724874Y-117931287D01*
X123724857Y-117931284D01*
X123480812Y-117907248D01*
X123402143Y-117899500D01*
X123077857Y-117899500D01*
X123005099Y-117906666D01*
X122755142Y-117931284D01*
X122755125Y-117931287D01*
X122437097Y-117994545D01*
X122437086Y-117994548D01*
X122126752Y-118088686D01*
X121827150Y-118212786D01*
X121827145Y-118212788D01*
X121541169Y-118365646D01*
X121541151Y-118365657D01*
X121271532Y-118545811D01*
X121271518Y-118545821D01*
X121020841Y-118751546D01*
X120791546Y-118980841D01*
X120585821Y-119231518D01*
X120585811Y-119231532D01*
X120405657Y-119501151D01*
X120405646Y-119501169D01*
X120252788Y-119787145D01*
X120252786Y-119787150D01*
X120128686Y-120086752D01*
X120034548Y-120397086D01*
X120034545Y-120397097D01*
X119986117Y-120640569D01*
X119953732Y-120702480D01*
X119893017Y-120737054D01*
X119823247Y-120733315D01*
X119766575Y-120692449D01*
X119740994Y-120627431D01*
X119740500Y-120616378D01*
X119740500Y-117198543D01*
X160919499Y-117198543D01*
X160957947Y-117391829D01*
X160957950Y-117391839D01*
X161033364Y-117573907D01*
X161033371Y-117573920D01*
X161142860Y-117737781D01*
X161142863Y-117737785D01*
X161282214Y-117877136D01*
X161282218Y-117877139D01*
X161446079Y-117986628D01*
X161446092Y-117986635D01*
X161628160Y-118062049D01*
X161628165Y-118062051D01*
X161628169Y-118062051D01*
X161628170Y-118062052D01*
X161821456Y-118100500D01*
X161821459Y-118100500D01*
X162018543Y-118100500D01*
X162148582Y-118074632D01*
X162211835Y-118062051D01*
X162393914Y-117986632D01*
X162557782Y-117877139D01*
X162697139Y-117737782D01*
X162806632Y-117573914D01*
X162882051Y-117391835D01*
X162920500Y-117198541D01*
X162920500Y-117001459D01*
X162920500Y-117001456D01*
X162882052Y-116808170D01*
X162882051Y-116808169D01*
X162882051Y-116808165D01*
X162882049Y-116808160D01*
X162806635Y-116626092D01*
X162806628Y-116626079D01*
X162697139Y-116462218D01*
X162697136Y-116462214D01*
X162557785Y-116322863D01*
X162557781Y-116322860D01*
X162393920Y-116213371D01*
X162393907Y-116213364D01*
X162211839Y-116137950D01*
X162211829Y-116137947D01*
X162018543Y-116099500D01*
X162018541Y-116099500D01*
X161821459Y-116099500D01*
X161821457Y-116099500D01*
X161628170Y-116137947D01*
X161628160Y-116137950D01*
X161446092Y-116213364D01*
X161446079Y-116213371D01*
X161282218Y-116322860D01*
X161282214Y-116322863D01*
X161142863Y-116462214D01*
X161142860Y-116462218D01*
X161033371Y-116626079D01*
X161033364Y-116626092D01*
X160957950Y-116808160D01*
X160957947Y-116808170D01*
X160919500Y-117001456D01*
X160919500Y-117001459D01*
X160919500Y-117198541D01*
X160919500Y-117198543D01*
X160919499Y-117198543D01*
X119740500Y-117198543D01*
X119740500Y-114118543D01*
X156139499Y-114118543D01*
X156177947Y-114311829D01*
X156177950Y-114311839D01*
X156253364Y-114493907D01*
X156253371Y-114493920D01*
X156362860Y-114657781D01*
X156362863Y-114657785D01*
X156502214Y-114797136D01*
X156502218Y-114797139D01*
X156666079Y-114906628D01*
X156666092Y-114906635D01*
X156848160Y-114982049D01*
X156848165Y-114982051D01*
X156848169Y-114982051D01*
X156848170Y-114982052D01*
X157041456Y-115020500D01*
X157041459Y-115020500D01*
X157238543Y-115020500D01*
X157368582Y-114994632D01*
X157431835Y-114982051D01*
X157613914Y-114906632D01*
X157777782Y-114797139D01*
X157917139Y-114657782D01*
X158026632Y-114493914D01*
X158102051Y-114311835D01*
X158140500Y-114118541D01*
X158140500Y-113921459D01*
X158140500Y-113921456D01*
X158102052Y-113728170D01*
X158102051Y-113728169D01*
X158102051Y-113728165D01*
X158102049Y-113728160D01*
X158026635Y-113546092D01*
X158026628Y-113546079D01*
X157917139Y-113382218D01*
X157917136Y-113382214D01*
X157777785Y-113242863D01*
X157777781Y-113242860D01*
X157613920Y-113133371D01*
X157613907Y-113133364D01*
X157431839Y-113057950D01*
X157431829Y-113057947D01*
X157238543Y-113019500D01*
X157238541Y-113019500D01*
X157041459Y-113019500D01*
X157041457Y-113019500D01*
X156848170Y-113057947D01*
X156848160Y-113057950D01*
X156666092Y-113133364D01*
X156666079Y-113133371D01*
X156502218Y-113242860D01*
X156502214Y-113242863D01*
X156362863Y-113382214D01*
X156362860Y-113382218D01*
X156253371Y-113546079D01*
X156253364Y-113546092D01*
X156177950Y-113728160D01*
X156177947Y-113728170D01*
X156139500Y-113921456D01*
X156139500Y-113921459D01*
X156139500Y-114118541D01*
X156139500Y-114118543D01*
X156139499Y-114118543D01*
X119740500Y-114118543D01*
X119740500Y-111408543D01*
X158989499Y-111408543D01*
X159027947Y-111601829D01*
X159027950Y-111601839D01*
X159103364Y-111783907D01*
X159103371Y-111783920D01*
X159212860Y-111947781D01*
X159212863Y-111947785D01*
X159352214Y-112087136D01*
X159352218Y-112087139D01*
X159516079Y-112196628D01*
X159516092Y-112196635D01*
X159698160Y-112272049D01*
X159698165Y-112272051D01*
X159698169Y-112272051D01*
X159698170Y-112272052D01*
X159891456Y-112310500D01*
X159891459Y-112310500D01*
X160088543Y-112310500D01*
X160218582Y-112284632D01*
X160281835Y-112272051D01*
X160463914Y-112196632D01*
X160627782Y-112087139D01*
X160767139Y-111947782D01*
X160876632Y-111783914D01*
X160952051Y-111601835D01*
X160990500Y-111408541D01*
X160990500Y-111211459D01*
X160990500Y-111211456D01*
X160952052Y-111018170D01*
X160952051Y-111018169D01*
X160952051Y-111018165D01*
X160952049Y-111018160D01*
X160876635Y-110836092D01*
X160876628Y-110836079D01*
X160767139Y-110672218D01*
X160767136Y-110672214D01*
X160627785Y-110532863D01*
X160627781Y-110532860D01*
X160463920Y-110423371D01*
X160463907Y-110423364D01*
X160281839Y-110347950D01*
X160281829Y-110347947D01*
X160088543Y-110309500D01*
X160088541Y-110309500D01*
X159891459Y-110309500D01*
X159891457Y-110309500D01*
X159698170Y-110347947D01*
X159698160Y-110347950D01*
X159516092Y-110423364D01*
X159516079Y-110423371D01*
X159352218Y-110532860D01*
X159352214Y-110532863D01*
X159212863Y-110672214D01*
X159212860Y-110672218D01*
X159103371Y-110836079D01*
X159103364Y-110836092D01*
X159027950Y-111018160D01*
X159027947Y-111018170D01*
X158989500Y-111211456D01*
X158989500Y-111211459D01*
X158989500Y-111408541D01*
X158989500Y-111408543D01*
X158989499Y-111408543D01*
X119740500Y-111408543D01*
X119740500Y-109940000D01*
X127379999Y-109940000D01*
X152139999Y-109970000D01*
X152139999Y-109969999D01*
X152140000Y-109970000D01*
X152155691Y-107939999D01*
X152216368Y-100090000D01*
X163430000Y-100090000D01*
X163430000Y-100530000D01*
X163430000Y-107940000D01*
X179170000Y-108100000D01*
X179170000Y-108099999D01*
X179170000Y-100199999D01*
X163430000Y-100089999D01*
X163430000Y-100090000D01*
X152216368Y-100090000D01*
X152216774Y-100037426D01*
X152220000Y-99620000D01*
X152219999Y-99619999D01*
X127460000Y-99539999D01*
X127380000Y-102530013D01*
X127380000Y-109940000D01*
X127379999Y-109940000D01*
X119740500Y-109940000D01*
X119740500Y-88421153D01*
X180319500Y-88421153D01*
X180319500Y-88578846D01*
X180350261Y-88733489D01*
X180350264Y-88733501D01*
X180410602Y-88879172D01*
X180410609Y-88879185D01*
X180498210Y-89010288D01*
X180498213Y-89010292D01*
X180609707Y-89121786D01*
X180609711Y-89121789D01*
X180740814Y-89209390D01*
X180740827Y-89209397D01*
X180843165Y-89251786D01*
X180886503Y-89269737D01*
X181041153Y-89300499D01*
X181041156Y-89300500D01*
X181041158Y-89300500D01*
X181198844Y-89300500D01*
X181198845Y-89300499D01*
X181353497Y-89269737D01*
X181499179Y-89209394D01*
X181630289Y-89121789D01*
X181724604Y-89027473D01*
X181785925Y-88993990D01*
X181855617Y-88998974D01*
X181911551Y-89040845D01*
X181915386Y-89046265D01*
X181978210Y-89140289D01*
X182089707Y-89251786D01*
X182089711Y-89251789D01*
X182220814Y-89339390D01*
X182220827Y-89339397D01*
X182366498Y-89399735D01*
X182366503Y-89399737D01*
X182521153Y-89430499D01*
X182521156Y-89430500D01*
X182521158Y-89430500D01*
X182678844Y-89430500D01*
X182678845Y-89430499D01*
X182833497Y-89399737D01*
X182979179Y-89339394D01*
X183110289Y-89251789D01*
X183221789Y-89140289D01*
X183309394Y-89009179D01*
X183369737Y-88863497D01*
X183400500Y-88708842D01*
X183400500Y-88551158D01*
X183400500Y-88551155D01*
X183399903Y-88545093D01*
X183402364Y-88544850D01*
X183407591Y-88486093D01*
X183450424Y-88430893D01*
X183516302Y-88407613D01*
X183547197Y-88409815D01*
X183701456Y-88440500D01*
X183701459Y-88440500D01*
X183898543Y-88440500D01*
X184063873Y-88407613D01*
X184091835Y-88402051D01*
X184273914Y-88326632D01*
X184437782Y-88217139D01*
X184577139Y-88077782D01*
X184686632Y-87913914D01*
X184762051Y-87731835D01*
X184774632Y-87668582D01*
X184800500Y-87538543D01*
X184800500Y-87341456D01*
X184762052Y-87148170D01*
X184762051Y-87148169D01*
X184762051Y-87148165D01*
X184762049Y-87148160D01*
X184686635Y-86966092D01*
X184686628Y-86966079D01*
X184577139Y-86802218D01*
X184577136Y-86802214D01*
X184437785Y-86662863D01*
X184437781Y-86662860D01*
X184273920Y-86553371D01*
X184273907Y-86553364D01*
X184091839Y-86477950D01*
X184091829Y-86477947D01*
X183898543Y-86439500D01*
X183898541Y-86439500D01*
X183701459Y-86439500D01*
X183701457Y-86439500D01*
X183508170Y-86477947D01*
X183508160Y-86477950D01*
X183326092Y-86553364D01*
X183326079Y-86553371D01*
X183162218Y-86662860D01*
X183162214Y-86662863D01*
X183022863Y-86802214D01*
X183022860Y-86802218D01*
X182913371Y-86966079D01*
X182913364Y-86966092D01*
X182837950Y-87148160D01*
X182837947Y-87148170D01*
X182799500Y-87341456D01*
X182799500Y-87538545D01*
X182828525Y-87684462D01*
X182822298Y-87754053D01*
X182779435Y-87809231D01*
X182713545Y-87832475D01*
X182682718Y-87830271D01*
X182678842Y-87829500D01*
X182521158Y-87829500D01*
X182521155Y-87829500D01*
X182366510Y-87860261D01*
X182366498Y-87860264D01*
X182220827Y-87920602D01*
X182220814Y-87920609D01*
X182089711Y-88008210D01*
X181995396Y-88102525D01*
X181934072Y-88136009D01*
X181864381Y-88131025D01*
X181808448Y-88089153D01*
X181804613Y-88083733D01*
X181741792Y-87989715D01*
X181741786Y-87989707D01*
X181630292Y-87878213D01*
X181630288Y-87878210D01*
X181499185Y-87790609D01*
X181499172Y-87790602D01*
X181353501Y-87730264D01*
X181353489Y-87730261D01*
X181198845Y-87699500D01*
X181198842Y-87699500D01*
X181041158Y-87699500D01*
X181041155Y-87699500D01*
X180886510Y-87730261D01*
X180886498Y-87730264D01*
X180740827Y-87790602D01*
X180740814Y-87790609D01*
X180609711Y-87878210D01*
X180609707Y-87878213D01*
X180498213Y-87989707D01*
X180498210Y-87989711D01*
X180410609Y-88120814D01*
X180410602Y-88120827D01*
X180350264Y-88266498D01*
X180350261Y-88266510D01*
X180319500Y-88421153D01*
X119740500Y-88421153D01*
X119740500Y-85778543D01*
X153889499Y-85778543D01*
X153927947Y-85971829D01*
X153927950Y-85971839D01*
X154003364Y-86153907D01*
X154003371Y-86153920D01*
X154112860Y-86317781D01*
X154112863Y-86317785D01*
X154252214Y-86457136D01*
X154252218Y-86457139D01*
X154416079Y-86566628D01*
X154416092Y-86566635D01*
X154598160Y-86642049D01*
X154598165Y-86642051D01*
X154598169Y-86642051D01*
X154598170Y-86642052D01*
X154791456Y-86680500D01*
X154791459Y-86680500D01*
X154988543Y-86680500D01*
X155118582Y-86654632D01*
X155181835Y-86642051D01*
X155363914Y-86566632D01*
X155527782Y-86457139D01*
X155667139Y-86317782D01*
X155776632Y-86153914D01*
X155852051Y-85971835D01*
X155890500Y-85778541D01*
X155890500Y-85581459D01*
X155890500Y-85581456D01*
X155852052Y-85388170D01*
X155852051Y-85388169D01*
X155852051Y-85388165D01*
X155852049Y-85388160D01*
X155776635Y-85206092D01*
X155776628Y-85206079D01*
X155667139Y-85042218D01*
X155667136Y-85042214D01*
X155527785Y-84902863D01*
X155527781Y-84902860D01*
X155363920Y-84793371D01*
X155363907Y-84793364D01*
X155181839Y-84717950D01*
X155181829Y-84717947D01*
X154988543Y-84679500D01*
X154988541Y-84679500D01*
X154791459Y-84679500D01*
X154791457Y-84679500D01*
X154598170Y-84717947D01*
X154598160Y-84717950D01*
X154416092Y-84793364D01*
X154416079Y-84793371D01*
X154252218Y-84902860D01*
X154252214Y-84902863D01*
X154112863Y-85042214D01*
X154112860Y-85042218D01*
X154003371Y-85206079D01*
X154003364Y-85206092D01*
X153927950Y-85388160D01*
X153927947Y-85388170D01*
X153889500Y-85581456D01*
X153889500Y-85581459D01*
X153889500Y-85778541D01*
X153889500Y-85778543D01*
X153889499Y-85778543D01*
X119740500Y-85778543D01*
X119740500Y-84813418D01*
X119760185Y-84746379D01*
X119812989Y-84700624D01*
X119882147Y-84690680D01*
X119911948Y-84698855D01*
X119986503Y-84729737D01*
X120141153Y-84760499D01*
X120141156Y-84760500D01*
X120141158Y-84760500D01*
X120298844Y-84760500D01*
X120298845Y-84760499D01*
X120453497Y-84729737D01*
X120599179Y-84669394D01*
X120730289Y-84581789D01*
X120841789Y-84470289D01*
X120929394Y-84339179D01*
X120989737Y-84193497D01*
X121020500Y-84038842D01*
X121020500Y-83881158D01*
X121020500Y-83881155D01*
X121020499Y-83881153D01*
X120989738Y-83726510D01*
X120989737Y-83726503D01*
X120989735Y-83726498D01*
X120927063Y-83575192D01*
X120929425Y-83574213D01*
X120917439Y-83516751D01*
X120942415Y-83451497D01*
X120998705Y-83410106D01*
X121016845Y-83405038D01*
X121043497Y-83399737D01*
X121189179Y-83339394D01*
X121320289Y-83251789D01*
X121431789Y-83140289D01*
X121519394Y-83009179D01*
X121579737Y-82863497D01*
X121610500Y-82708842D01*
X121610500Y-82551158D01*
X121610500Y-82551155D01*
X121610499Y-82551153D01*
X121579738Y-82396510D01*
X121579737Y-82396503D01*
X121579735Y-82396498D01*
X121519397Y-82250827D01*
X121519390Y-82250814D01*
X121431789Y-82119711D01*
X121431786Y-82119707D01*
X121320292Y-82008213D01*
X121320288Y-82008210D01*
X121189185Y-81920609D01*
X121189172Y-81920602D01*
X121043501Y-81860264D01*
X121043489Y-81860261D01*
X120888845Y-81829500D01*
X120888842Y-81829500D01*
X120731158Y-81829500D01*
X120731155Y-81829500D01*
X120576510Y-81860261D01*
X120576498Y-81860264D01*
X120430827Y-81920602D01*
X120430814Y-81920609D01*
X120299711Y-82008210D01*
X120299707Y-82008213D01*
X120188213Y-82119707D01*
X120188210Y-82119711D01*
X120100609Y-82250814D01*
X120100602Y-82250827D01*
X120040264Y-82396498D01*
X120040261Y-82396510D01*
X120009500Y-82551153D01*
X120009500Y-82708846D01*
X120040261Y-82863489D01*
X120040264Y-82863501D01*
X120102937Y-83014808D01*
X120100581Y-83015783D01*
X120112557Y-83073290D01*
X120087559Y-83138534D01*
X120031256Y-83179907D01*
X120013150Y-83184962D01*
X119986505Y-83190262D01*
X119986498Y-83190264D01*
X119911952Y-83221142D01*
X119842482Y-83228611D01*
X119780003Y-83197335D01*
X119744352Y-83137246D01*
X119740500Y-83106581D01*
X119740500Y-80291153D01*
X155249500Y-80291153D01*
X155249500Y-80448846D01*
X155280261Y-80603489D01*
X155280264Y-80603501D01*
X155340602Y-80749172D01*
X155340609Y-80749185D01*
X155428210Y-80880288D01*
X155428213Y-80880292D01*
X155539707Y-80991786D01*
X155539711Y-80991789D01*
X155670814Y-81079390D01*
X155670827Y-81079397D01*
X155816498Y-81139735D01*
X155816503Y-81139737D01*
X155971153Y-81170499D01*
X155971156Y-81170500D01*
X155971158Y-81170500D01*
X156128844Y-81170500D01*
X156128845Y-81170499D01*
X156283497Y-81139737D01*
X156429179Y-81079394D01*
X156560289Y-80991789D01*
X156671789Y-80880289D01*
X156759394Y-80749179D01*
X156819737Y-80603497D01*
X156850500Y-80448842D01*
X156850500Y-80291158D01*
X156850500Y-80291155D01*
X156850499Y-80291153D01*
X156819738Y-80136510D01*
X156819737Y-80136503D01*
X156819735Y-80136498D01*
X156759397Y-79990827D01*
X156759390Y-79990814D01*
X156671789Y-79859711D01*
X156671786Y-79859707D01*
X156560292Y-79748213D01*
X156560288Y-79748210D01*
X156429185Y-79660609D01*
X156429172Y-79660602D01*
X156283501Y-79600264D01*
X156283489Y-79600261D01*
X156128845Y-79569500D01*
X156128842Y-79569500D01*
X155971158Y-79569500D01*
X155971155Y-79569500D01*
X155816510Y-79600261D01*
X155816498Y-79600264D01*
X155670827Y-79660602D01*
X155670814Y-79660609D01*
X155539711Y-79748210D01*
X155539707Y-79748213D01*
X155428213Y-79859707D01*
X155428210Y-79859711D01*
X155340609Y-79990814D01*
X155340602Y-79990827D01*
X155280264Y-80136498D01*
X155280261Y-80136510D01*
X155249500Y-80291153D01*
X119740500Y-80291153D01*
X119740500Y-78191153D01*
X122159500Y-78191153D01*
X122159500Y-78348846D01*
X122190261Y-78503489D01*
X122190264Y-78503501D01*
X122250602Y-78649172D01*
X122250609Y-78649185D01*
X122338210Y-78780288D01*
X122338213Y-78780292D01*
X122449707Y-78891786D01*
X122449711Y-78891789D01*
X122580814Y-78979390D01*
X122580827Y-78979397D01*
X122726498Y-79039735D01*
X122726503Y-79039737D01*
X122881153Y-79070499D01*
X122881156Y-79070500D01*
X122881158Y-79070500D01*
X123038844Y-79070500D01*
X123038845Y-79070499D01*
X123193497Y-79039737D01*
X123308591Y-78992063D01*
X123378058Y-78984595D01*
X123440538Y-79015870D01*
X123467111Y-79054143D01*
X123467736Y-79053809D01*
X123470601Y-79059170D01*
X123470604Y-79059174D01*
X123470605Y-79059178D01*
X123470609Y-79059185D01*
X123558210Y-79190288D01*
X123558213Y-79190292D01*
X123669707Y-79301786D01*
X123669711Y-79301789D01*
X123800814Y-79389390D01*
X123800827Y-79389397D01*
X123946498Y-79449735D01*
X123946503Y-79449737D01*
X124101153Y-79480499D01*
X124101156Y-79480500D01*
X124101158Y-79480500D01*
X124258844Y-79480500D01*
X124258845Y-79480499D01*
X124413497Y-79449737D01*
X124559179Y-79389394D01*
X124690289Y-79301789D01*
X124801789Y-79190289D01*
X124860261Y-79102778D01*
X124913872Y-79057974D01*
X124983197Y-79049267D01*
X125046225Y-79079421D01*
X125066465Y-79102779D01*
X125098210Y-79150288D01*
X125098213Y-79150292D01*
X125209707Y-79261786D01*
X125209711Y-79261789D01*
X125340814Y-79349390D01*
X125340827Y-79349397D01*
X125486498Y-79409735D01*
X125486503Y-79409737D01*
X125641153Y-79440499D01*
X125641156Y-79440500D01*
X125641158Y-79440500D01*
X125798844Y-79440500D01*
X125798845Y-79440499D01*
X125953497Y-79409737D01*
X126099179Y-79349394D01*
X126230289Y-79261789D01*
X126341789Y-79150289D01*
X126429394Y-79019179D01*
X126489737Y-78873497D01*
X126520500Y-78718842D01*
X126520500Y-78561158D01*
X126520500Y-78561155D01*
X126520499Y-78561153D01*
X126509029Y-78503489D01*
X126489737Y-78406503D01*
X126465853Y-78348842D01*
X126429397Y-78260827D01*
X126429390Y-78260814D01*
X126341789Y-78129711D01*
X126341786Y-78129707D01*
X126230292Y-78018213D01*
X126230288Y-78018210D01*
X126099185Y-77930609D01*
X126099172Y-77930602D01*
X125953501Y-77870264D01*
X125953489Y-77870261D01*
X125798845Y-77839500D01*
X125798842Y-77839500D01*
X125641158Y-77839500D01*
X125641155Y-77839500D01*
X125486510Y-77870261D01*
X125486498Y-77870264D01*
X125340827Y-77930602D01*
X125340814Y-77930609D01*
X125209711Y-78018210D01*
X125209707Y-78018213D01*
X125098213Y-78129707D01*
X125039738Y-78217221D01*
X124986125Y-78262025D01*
X124916800Y-78270732D01*
X124853773Y-78240577D01*
X124833534Y-78217220D01*
X124801789Y-78169711D01*
X124801786Y-78169707D01*
X124690292Y-78058213D01*
X124690288Y-78058210D01*
X124559185Y-77970609D01*
X124559172Y-77970602D01*
X124413501Y-77910264D01*
X124413489Y-77910261D01*
X124258845Y-77879500D01*
X124258842Y-77879500D01*
X124101158Y-77879500D01*
X124101155Y-77879500D01*
X123946510Y-77910261D01*
X123946498Y-77910264D01*
X123831409Y-77957935D01*
X123761939Y-77965404D01*
X123699460Y-77934128D01*
X123672886Y-77895853D01*
X123672262Y-77896187D01*
X123669397Y-77890826D01*
X123669394Y-77890822D01*
X123669391Y-77890816D01*
X123581789Y-77759711D01*
X123581786Y-77759707D01*
X123470292Y-77648213D01*
X123470288Y-77648210D01*
X123339185Y-77560609D01*
X123339172Y-77560602D01*
X123193501Y-77500264D01*
X123193489Y-77500261D01*
X123038845Y-77469500D01*
X123038842Y-77469500D01*
X122881158Y-77469500D01*
X122881155Y-77469500D01*
X122726510Y-77500261D01*
X122726498Y-77500264D01*
X122580827Y-77560602D01*
X122580814Y-77560609D01*
X122449711Y-77648210D01*
X122449707Y-77648213D01*
X122338213Y-77759707D01*
X122338210Y-77759711D01*
X122250609Y-77890814D01*
X122250602Y-77890827D01*
X122190264Y-78036498D01*
X122190261Y-78036510D01*
X122159500Y-78191153D01*
X119740500Y-78191153D01*
X119740500Y-65848543D01*
X123099499Y-65848543D01*
X123137947Y-66041829D01*
X123137950Y-66041839D01*
X123213364Y-66223907D01*
X123213371Y-66223920D01*
X123322860Y-66387781D01*
X123322863Y-66387785D01*
X123462214Y-66527136D01*
X123462218Y-66527139D01*
X123626079Y-66636628D01*
X123626092Y-66636635D01*
X123780278Y-66700500D01*
X123808165Y-66712051D01*
X123808169Y-66712051D01*
X123808170Y-66712052D01*
X124001456Y-66750500D01*
X124001459Y-66750500D01*
X124198543Y-66750500D01*
X124328582Y-66724632D01*
X124391835Y-66712051D01*
X124573914Y-66636632D01*
X124737782Y-66527139D01*
X124877139Y-66387782D01*
X124986632Y-66223914D01*
X125062051Y-66041835D01*
X125100500Y-65848541D01*
X125100500Y-65821153D01*
X158069500Y-65821153D01*
X158069500Y-65978846D01*
X158100261Y-66133489D01*
X158100264Y-66133501D01*
X158160602Y-66279172D01*
X158160609Y-66279185D01*
X158248210Y-66410288D01*
X158248213Y-66410292D01*
X158359707Y-66521786D01*
X158359711Y-66521789D01*
X158490814Y-66609390D01*
X158490827Y-66609397D01*
X158635665Y-66669390D01*
X158636503Y-66669737D01*
X158785578Y-66699390D01*
X158791153Y-66700499D01*
X158791156Y-66700500D01*
X158791158Y-66700500D01*
X158948844Y-66700500D01*
X158948845Y-66700499D01*
X159103497Y-66669737D01*
X159249179Y-66609394D01*
X159380289Y-66521789D01*
X159392319Y-66509758D01*
X159453637Y-66476275D01*
X159523329Y-66481257D01*
X159567680Y-66509759D01*
X159609707Y-66551786D01*
X159609711Y-66551789D01*
X159740814Y-66639390D01*
X159740827Y-66639397D01*
X159814078Y-66669738D01*
X159886503Y-66699737D01*
X160037312Y-66729735D01*
X160041153Y-66730499D01*
X160041156Y-66730500D01*
X160041158Y-66730500D01*
X160198844Y-66730500D01*
X160198845Y-66730499D01*
X160353497Y-66699737D01*
X160499179Y-66639394D01*
X160630289Y-66551789D01*
X160642319Y-66539758D01*
X160703637Y-66506275D01*
X160773329Y-66511257D01*
X160817680Y-66539759D01*
X160859707Y-66581786D01*
X160859711Y-66581789D01*
X160990814Y-66669390D01*
X160990827Y-66669397D01*
X161136498Y-66729735D01*
X161136503Y-66729737D01*
X161287312Y-66759735D01*
X161291153Y-66760499D01*
X161291156Y-66760500D01*
X161291158Y-66760500D01*
X161448844Y-66760500D01*
X161448845Y-66760499D01*
X161603497Y-66729737D01*
X161749179Y-66669394D01*
X161880289Y-66581789D01*
X161880291Y-66581786D01*
X161884993Y-66577928D01*
X161886495Y-66579758D01*
X161938596Y-66551284D01*
X162008289Y-66556242D01*
X162052680Y-66584759D01*
X162079707Y-66611786D01*
X162079711Y-66611789D01*
X162210814Y-66699390D01*
X162210827Y-66699397D01*
X162356498Y-66759735D01*
X162356503Y-66759737D01*
X162511153Y-66790499D01*
X162511156Y-66790500D01*
X162511158Y-66790500D01*
X162668844Y-66790500D01*
X162668845Y-66790499D01*
X162823497Y-66759737D01*
X162969179Y-66699394D01*
X163100289Y-66611789D01*
X163132319Y-66579758D01*
X163193638Y-66546275D01*
X163263329Y-66551257D01*
X163307680Y-66579759D01*
X163359707Y-66631786D01*
X163359711Y-66631789D01*
X163490814Y-66719390D01*
X163490827Y-66719397D01*
X163590060Y-66760500D01*
X163636503Y-66779737D01*
X163791153Y-66810499D01*
X163791156Y-66810500D01*
X163791158Y-66810500D01*
X163948844Y-66810500D01*
X163948845Y-66810499D01*
X164103497Y-66779737D01*
X164249179Y-66719394D01*
X164380289Y-66631789D01*
X164491789Y-66520289D01*
X164579394Y-66389179D01*
X164579972Y-66387785D01*
X164593067Y-66356166D01*
X164639737Y-66243497D01*
X164670500Y-66088842D01*
X164670500Y-65931158D01*
X164670500Y-65931155D01*
X164670499Y-65931153D01*
X164639738Y-65776510D01*
X164639737Y-65776503D01*
X164594172Y-65666498D01*
X164579397Y-65630827D01*
X164579390Y-65630814D01*
X164491789Y-65499711D01*
X164491786Y-65499707D01*
X164380292Y-65388213D01*
X164380288Y-65388210D01*
X164249185Y-65300609D01*
X164249172Y-65300602D01*
X164103501Y-65240264D01*
X164103489Y-65240261D01*
X163948845Y-65209500D01*
X163948842Y-65209500D01*
X163791158Y-65209500D01*
X163791155Y-65209500D01*
X163636510Y-65240261D01*
X163636498Y-65240264D01*
X163490827Y-65300602D01*
X163490814Y-65300609D01*
X163359711Y-65388210D01*
X163359707Y-65388213D01*
X163327681Y-65420240D01*
X163266358Y-65453725D01*
X163196666Y-65448741D01*
X163152319Y-65420240D01*
X163100292Y-65368213D01*
X163100288Y-65368210D01*
X162969185Y-65280609D01*
X162969172Y-65280602D01*
X162823501Y-65220264D01*
X162823489Y-65220261D01*
X162668845Y-65189500D01*
X162668842Y-65189500D01*
X162511158Y-65189500D01*
X162511155Y-65189500D01*
X162356510Y-65220261D01*
X162356498Y-65220264D01*
X162210827Y-65280602D01*
X162210814Y-65280609D01*
X162079714Y-65368208D01*
X162075007Y-65372072D01*
X162073515Y-65370255D01*
X162021313Y-65398735D01*
X161951623Y-65393725D01*
X161907319Y-65365240D01*
X161880292Y-65338213D01*
X161880288Y-65338210D01*
X161749185Y-65250609D01*
X161749172Y-65250602D01*
X161603501Y-65190264D01*
X161603489Y-65190261D01*
X161448845Y-65159500D01*
X161448842Y-65159500D01*
X161291158Y-65159500D01*
X161291155Y-65159500D01*
X161136510Y-65190261D01*
X161136498Y-65190264D01*
X160990827Y-65250602D01*
X160990814Y-65250609D01*
X160859714Y-65338208D01*
X160847679Y-65350243D01*
X160786354Y-65383726D01*
X160716663Y-65378739D01*
X160672319Y-65350240D01*
X160630292Y-65308213D01*
X160630288Y-65308210D01*
X160499185Y-65220609D01*
X160499172Y-65220602D01*
X160353501Y-65160264D01*
X160353489Y-65160261D01*
X160198845Y-65129500D01*
X160198842Y-65129500D01*
X160041158Y-65129500D01*
X160041155Y-65129500D01*
X159886510Y-65160261D01*
X159886498Y-65160264D01*
X159740827Y-65220602D01*
X159740814Y-65220609D01*
X159609714Y-65308208D01*
X159597679Y-65320243D01*
X159536354Y-65353726D01*
X159466663Y-65348739D01*
X159422319Y-65320240D01*
X159380292Y-65278213D01*
X159380288Y-65278210D01*
X159249185Y-65190609D01*
X159249172Y-65190602D01*
X159103501Y-65130264D01*
X159103489Y-65130261D01*
X158948845Y-65099500D01*
X158948842Y-65099500D01*
X158791158Y-65099500D01*
X158791155Y-65099500D01*
X158636510Y-65130261D01*
X158636498Y-65130264D01*
X158490827Y-65190602D01*
X158490814Y-65190609D01*
X158359711Y-65278210D01*
X158359707Y-65278213D01*
X158248213Y-65389707D01*
X158248210Y-65389711D01*
X158160609Y-65520814D01*
X158160602Y-65520827D01*
X158100264Y-65666498D01*
X158100261Y-65666510D01*
X158069500Y-65821153D01*
X125100500Y-65821153D01*
X125100500Y-65651459D01*
X125100500Y-65651456D01*
X125062052Y-65458170D01*
X125062051Y-65458169D01*
X125062051Y-65458165D01*
X125058549Y-65449711D01*
X124986635Y-65276092D01*
X124986628Y-65276079D01*
X124877139Y-65112218D01*
X124877136Y-65112214D01*
X124737785Y-64972863D01*
X124737781Y-64972860D01*
X124573920Y-64863371D01*
X124573907Y-64863364D01*
X124391839Y-64787950D01*
X124391829Y-64787947D01*
X124198543Y-64749500D01*
X124198541Y-64749500D01*
X124001459Y-64749500D01*
X124001457Y-64749500D01*
X123808170Y-64787947D01*
X123808160Y-64787950D01*
X123626092Y-64863364D01*
X123626079Y-64863371D01*
X123462218Y-64972860D01*
X123462214Y-64972863D01*
X123322863Y-65112214D01*
X123322860Y-65112218D01*
X123213371Y-65276079D01*
X123213364Y-65276092D01*
X123137950Y-65458160D01*
X123137947Y-65458170D01*
X123099500Y-65651456D01*
X123099500Y-65651459D01*
X123099500Y-65848541D01*
X123099500Y-65848543D01*
X123099499Y-65848543D01*
X119740500Y-65848543D01*
X119740500Y-61783621D01*
X119760185Y-61716582D01*
X119812989Y-61670827D01*
X119882147Y-61660883D01*
X119945703Y-61689908D01*
X119983477Y-61748686D01*
X119986117Y-61759430D01*
X120034545Y-62002902D01*
X120034548Y-62002913D01*
X120128686Y-62313247D01*
X120252786Y-62612849D01*
X120252788Y-62612854D01*
X120405646Y-62898830D01*
X120405650Y-62898837D01*
X120405653Y-62898842D01*
X120585814Y-63168472D01*
X120585821Y-63168481D01*
X120791546Y-63419158D01*
X121020841Y-63648453D01*
X121020846Y-63648457D01*
X121020847Y-63648458D01*
X121271524Y-63854183D01*
X121541158Y-64034347D01*
X121541167Y-64034352D01*
X121541169Y-64034353D01*
X121827145Y-64187211D01*
X121827147Y-64187211D01*
X121827153Y-64187215D01*
X122126754Y-64311314D01*
X122437077Y-64405449D01*
X122437083Y-64405450D01*
X122437086Y-64405451D01*
X122437097Y-64405454D01*
X122636528Y-64445122D01*
X122755132Y-64468714D01*
X123077857Y-64500500D01*
X123077860Y-64500500D01*
X123402140Y-64500500D01*
X123402143Y-64500500D01*
X123724868Y-64468714D01*
X123882295Y-64437399D01*
X124042902Y-64405454D01*
X124042913Y-64405451D01*
X124042913Y-64405450D01*
X124042923Y-64405449D01*
X124353246Y-64311314D01*
X124652847Y-64187215D01*
X124938842Y-64034347D01*
X125208476Y-63854183D01*
X125459153Y-63648458D01*
X125688458Y-63419153D01*
X125894183Y-63168476D01*
X126001497Y-63007869D01*
X126055107Y-62963066D01*
X126124431Y-62954359D01*
X126187459Y-62984513D01*
X126224179Y-63043956D01*
X126226214Y-63052570D01*
X126247947Y-63161829D01*
X126247950Y-63161839D01*
X126323364Y-63343907D01*
X126323371Y-63343920D01*
X126432860Y-63507781D01*
X126432863Y-63507785D01*
X126572214Y-63647136D01*
X126572218Y-63647139D01*
X126736079Y-63756628D01*
X126736092Y-63756635D01*
X126918160Y-63832049D01*
X126918165Y-63832051D01*
X126918169Y-63832051D01*
X126918170Y-63832052D01*
X127111456Y-63870500D01*
X127111459Y-63870500D01*
X127308543Y-63870500D01*
X127438582Y-63844632D01*
X127501835Y-63832051D01*
X127683914Y-63756632D01*
X127847782Y-63647139D01*
X127987139Y-63507782D01*
X128096632Y-63343914D01*
X128172051Y-63161835D01*
X128184632Y-63098582D01*
X128210500Y-62968543D01*
X128210500Y-62771456D01*
X128172052Y-62578170D01*
X128172051Y-62578169D01*
X128172051Y-62578165D01*
X128172049Y-62578160D01*
X128096635Y-62396092D01*
X128096628Y-62396079D01*
X127987139Y-62232218D01*
X127987136Y-62232214D01*
X127847785Y-62092863D01*
X127847781Y-62092860D01*
X127683920Y-61983371D01*
X127683907Y-61983364D01*
X127501839Y-61907950D01*
X127501829Y-61907947D01*
X127308543Y-61869500D01*
X127308541Y-61869500D01*
X127111459Y-61869500D01*
X127111457Y-61869500D01*
X126918170Y-61907947D01*
X126918160Y-61907950D01*
X126736092Y-61983364D01*
X126736081Y-61983370D01*
X126654296Y-62038017D01*
X126587618Y-62058894D01*
X126520238Y-62040409D01*
X126473549Y-61988430D01*
X126462373Y-61919460D01*
X126463789Y-61910723D01*
X126491269Y-61772568D01*
X126508714Y-61684868D01*
X126540500Y-61362143D01*
X126540500Y-61037857D01*
X126508714Y-60715132D01*
X126469359Y-60517281D01*
X126445454Y-60397097D01*
X126445451Y-60397086D01*
X126445450Y-60397083D01*
X126445449Y-60397077D01*
X126351314Y-60086754D01*
X126227215Y-59787153D01*
X126074347Y-59501158D01*
X125894183Y-59231524D01*
X125688458Y-58980847D01*
X125688457Y-58980846D01*
X125688453Y-58980841D01*
X125459158Y-58751546D01*
X125208481Y-58545821D01*
X125208480Y-58545820D01*
X125208476Y-58545817D01*
X124938842Y-58365653D01*
X124938837Y-58365650D01*
X124938830Y-58365646D01*
X124652854Y-58212788D01*
X124652849Y-58212786D01*
X124353247Y-58088686D01*
X124042913Y-57994548D01*
X124042902Y-57994545D01*
X123799431Y-57946117D01*
X123737520Y-57913732D01*
X123702946Y-57853017D01*
X123706685Y-57783247D01*
X123747551Y-57726575D01*
X123812569Y-57700994D01*
X123823622Y-57700500D01*
X182656378Y-57700500D01*
X182723417Y-57720185D01*
G37*
G04 #@! TD.AperFunction*
G04 #@! TD*
M02*
