G04 #@! TF.GenerationSoftware,KiCad,Pcbnew,9.0.7*
G04 #@! TF.CreationDate,2026-05-01T21:55:59+08:00*
G04 #@! TF.ProjectId,lora,6c6f7261-2e6b-4696-9361-645f70636258,rev?*
G04 #@! TF.SameCoordinates,Original*
G04 #@! TF.FileFunction,Legend,Bot*
G04 #@! TF.FilePolarity,Positive*
%FSLAX46Y46*%
G04 Gerber Fmt 4.6, Leading zero omitted, Abs format (unit mm)*
G04 Created by KiCad (PCBNEW 9.0.7) date 2026-05-01 21:55:59*
%MOMM*%
%LPD*%
G01*
G04 APERTURE LIST*
G04 Aperture macros list*
%AMRoundRect*
0 Rectangle with rounded corners*
0 $1 Rounding radius*
0 $2 $3 $4 $5 $6 $7 $8 $9 X,Y pos of 4 corners*
0 Add a 4 corners polygon primitive as box body*
4,1,4,$2,$3,$4,$5,$6,$7,$8,$9,$2,$3,0*
0 Add four circle primitives for the rounded corners*
1,1,$1+$1,$2,$3*
1,1,$1+$1,$4,$5*
1,1,$1+$1,$6,$7*
1,1,$1+$1,$8,$9*
0 Add four rect primitives between the rounded corners*
20,1,$1+$1,$2,$3,$4,$5,0*
20,1,$1+$1,$4,$5,$6,$7,0*
20,1,$1+$1,$6,$7,$8,$9,0*
20,1,$1+$1,$8,$9,$2,$3,0*%
G04 Aperture macros list end*
%ADD10C,0.300000*%
%ADD11C,0.150000*%
%ADD12C,0.120000*%
%ADD13C,5.600000*%
%ADD14RoundRect,0.250001X0.872499X1.044999X-0.872499X1.044999X-0.872499X-1.044999X0.872499X-1.044999X0*%
%ADD15RoundRect,0.150000X0.150000X0.700000X-0.150000X0.700000X-0.150000X-0.700000X0.150000X-0.700000X0*%
%ADD16RoundRect,0.250000X0.250000X1.100000X-0.250000X1.100000X-0.250000X-1.100000X0.250000X-1.100000X0*%
%ADD17RoundRect,0.150000X-0.150000X-0.700000X0.150000X-0.700000X0.150000X0.700000X-0.150000X0.700000X0*%
%ADD18RoundRect,0.250000X-0.250000X-1.100000X0.250000X-1.100000X0.250000X1.100000X-0.250000X1.100000X0*%
%ADD19RoundRect,0.250000X-1.000000X-0.650000X1.000000X-0.650000X1.000000X0.650000X-1.000000X0.650000X0*%
G04 APERTURE END LIST*
D10*
X178516917Y-60459400D02*
X178302632Y-60530828D01*
X178302632Y-60530828D02*
X177945489Y-60530828D01*
X177945489Y-60530828D02*
X177802632Y-60459400D01*
X177802632Y-60459400D02*
X177731203Y-60387971D01*
X177731203Y-60387971D02*
X177659774Y-60245114D01*
X177659774Y-60245114D02*
X177659774Y-60102257D01*
X177659774Y-60102257D02*
X177731203Y-59959400D01*
X177731203Y-59959400D02*
X177802632Y-59887971D01*
X177802632Y-59887971D02*
X177945489Y-59816542D01*
X177945489Y-59816542D02*
X178231203Y-59745114D01*
X178231203Y-59745114D02*
X178374060Y-59673685D01*
X178374060Y-59673685D02*
X178445489Y-59602257D01*
X178445489Y-59602257D02*
X178516917Y-59459400D01*
X178516917Y-59459400D02*
X178516917Y-59316542D01*
X178516917Y-59316542D02*
X178445489Y-59173685D01*
X178445489Y-59173685D02*
X178374060Y-59102257D01*
X178374060Y-59102257D02*
X178231203Y-59030828D01*
X178231203Y-59030828D02*
X177874060Y-59030828D01*
X177874060Y-59030828D02*
X177659774Y-59102257D01*
X177374061Y-60673685D02*
X176231203Y-60673685D01*
X175159775Y-60530828D02*
X175874061Y-60530828D01*
X175874061Y-60530828D02*
X175874061Y-59030828D01*
X174588346Y-60530828D02*
X174302632Y-60530828D01*
X174302632Y-60530828D02*
X174159775Y-60459400D01*
X174159775Y-60459400D02*
X174088346Y-60387971D01*
X174088346Y-60387971D02*
X173945489Y-60173685D01*
X173945489Y-60173685D02*
X173874060Y-59887971D01*
X173874060Y-59887971D02*
X173874060Y-59316542D01*
X173874060Y-59316542D02*
X173945489Y-59173685D01*
X173945489Y-59173685D02*
X174016918Y-59102257D01*
X174016918Y-59102257D02*
X174159775Y-59030828D01*
X174159775Y-59030828D02*
X174445489Y-59030828D01*
X174445489Y-59030828D02*
X174588346Y-59102257D01*
X174588346Y-59102257D02*
X174659775Y-59173685D01*
X174659775Y-59173685D02*
X174731203Y-59316542D01*
X174731203Y-59316542D02*
X174731203Y-59673685D01*
X174731203Y-59673685D02*
X174659775Y-59816542D01*
X174659775Y-59816542D02*
X174588346Y-59887971D01*
X174588346Y-59887971D02*
X174445489Y-59959400D01*
X174445489Y-59959400D02*
X174159775Y-59959400D01*
X174159775Y-59959400D02*
X174016918Y-59887971D01*
X174016918Y-59887971D02*
X173945489Y-59816542D01*
X173945489Y-59816542D02*
X173874060Y-59673685D01*
X173302632Y-59173685D02*
X173231204Y-59102257D01*
X173231204Y-59102257D02*
X173088347Y-59030828D01*
X173088347Y-59030828D02*
X172731204Y-59030828D01*
X172731204Y-59030828D02*
X172588347Y-59102257D01*
X172588347Y-59102257D02*
X172516918Y-59173685D01*
X172516918Y-59173685D02*
X172445489Y-59316542D01*
X172445489Y-59316542D02*
X172445489Y-59459400D01*
X172445489Y-59459400D02*
X172516918Y-59673685D01*
X172516918Y-59673685D02*
X173374061Y-60530828D01*
X173374061Y-60530828D02*
X172445489Y-60530828D01*
X171516918Y-59030828D02*
X171374061Y-59030828D01*
X171374061Y-59030828D02*
X171231204Y-59102257D01*
X171231204Y-59102257D02*
X171159776Y-59173685D01*
X171159776Y-59173685D02*
X171088347Y-59316542D01*
X171088347Y-59316542D02*
X171016918Y-59602257D01*
X171016918Y-59602257D02*
X171016918Y-59959400D01*
X171016918Y-59959400D02*
X171088347Y-60245114D01*
X171088347Y-60245114D02*
X171159776Y-60387971D01*
X171159776Y-60387971D02*
X171231204Y-60459400D01*
X171231204Y-60459400D02*
X171374061Y-60530828D01*
X171374061Y-60530828D02*
X171516918Y-60530828D01*
X171516918Y-60530828D02*
X171659776Y-60459400D01*
X171659776Y-60459400D02*
X171731204Y-60387971D01*
X171731204Y-60387971D02*
X171802633Y-60245114D01*
X171802633Y-60245114D02*
X171874061Y-59959400D01*
X171874061Y-59959400D02*
X171874061Y-59602257D01*
X171874061Y-59602257D02*
X171802633Y-59316542D01*
X171802633Y-59316542D02*
X171731204Y-59173685D01*
X171731204Y-59173685D02*
X171659776Y-59102257D01*
X171659776Y-59102257D02*
X171516918Y-59030828D01*
X135076917Y-60249400D02*
X134862632Y-60320828D01*
X134862632Y-60320828D02*
X134505489Y-60320828D01*
X134505489Y-60320828D02*
X134362632Y-60249400D01*
X134362632Y-60249400D02*
X134291203Y-60177971D01*
X134291203Y-60177971D02*
X134219774Y-60035114D01*
X134219774Y-60035114D02*
X134219774Y-59892257D01*
X134219774Y-59892257D02*
X134291203Y-59749400D01*
X134291203Y-59749400D02*
X134362632Y-59677971D01*
X134362632Y-59677971D02*
X134505489Y-59606542D01*
X134505489Y-59606542D02*
X134791203Y-59535114D01*
X134791203Y-59535114D02*
X134934060Y-59463685D01*
X134934060Y-59463685D02*
X135005489Y-59392257D01*
X135005489Y-59392257D02*
X135076917Y-59249400D01*
X135076917Y-59249400D02*
X135076917Y-59106542D01*
X135076917Y-59106542D02*
X135005489Y-58963685D01*
X135005489Y-58963685D02*
X134934060Y-58892257D01*
X134934060Y-58892257D02*
X134791203Y-58820828D01*
X134791203Y-58820828D02*
X134434060Y-58820828D01*
X134434060Y-58820828D02*
X134219774Y-58892257D01*
X133934061Y-60463685D02*
X132791203Y-60463685D01*
X131719775Y-60320828D02*
X132434061Y-60320828D01*
X132434061Y-60320828D02*
X132434061Y-58820828D01*
X130576918Y-59320828D02*
X130576918Y-60320828D01*
X130934060Y-58749400D02*
X131291203Y-59820828D01*
X131291203Y-59820828D02*
X130362632Y-59820828D01*
X129934061Y-58820828D02*
X129005489Y-58820828D01*
X129005489Y-58820828D02*
X129505489Y-59392257D01*
X129505489Y-59392257D02*
X129291204Y-59392257D01*
X129291204Y-59392257D02*
X129148347Y-59463685D01*
X129148347Y-59463685D02*
X129076918Y-59535114D01*
X129076918Y-59535114D02*
X129005489Y-59677971D01*
X129005489Y-59677971D02*
X129005489Y-60035114D01*
X129005489Y-60035114D02*
X129076918Y-60177971D01*
X129076918Y-60177971D02*
X129148347Y-60249400D01*
X129148347Y-60249400D02*
X129291204Y-60320828D01*
X129291204Y-60320828D02*
X129719775Y-60320828D01*
X129719775Y-60320828D02*
X129862632Y-60249400D01*
X129862632Y-60249400D02*
X129934061Y-60177971D01*
X128505490Y-58820828D02*
X127576918Y-58820828D01*
X127576918Y-58820828D02*
X128076918Y-59392257D01*
X128076918Y-59392257D02*
X127862633Y-59392257D01*
X127862633Y-59392257D02*
X127719776Y-59463685D01*
X127719776Y-59463685D02*
X127648347Y-59535114D01*
X127648347Y-59535114D02*
X127576918Y-59677971D01*
X127576918Y-59677971D02*
X127576918Y-60035114D01*
X127576918Y-60035114D02*
X127648347Y-60177971D01*
X127648347Y-60177971D02*
X127719776Y-60249400D01*
X127719776Y-60249400D02*
X127862633Y-60320828D01*
X127862633Y-60320828D02*
X128291204Y-60320828D01*
X128291204Y-60320828D02*
X128434061Y-60249400D01*
X128434061Y-60249400D02*
X128505490Y-60177971D01*
D11*
X163439166Y-111349580D02*
X163486785Y-111397200D01*
X163486785Y-111397200D02*
X163629642Y-111444819D01*
X163629642Y-111444819D02*
X163724880Y-111444819D01*
X163724880Y-111444819D02*
X163867737Y-111397200D01*
X163867737Y-111397200D02*
X163962975Y-111301961D01*
X163962975Y-111301961D02*
X164010594Y-111206723D01*
X164010594Y-111206723D02*
X164058213Y-111016247D01*
X164058213Y-111016247D02*
X164058213Y-110873390D01*
X164058213Y-110873390D02*
X164010594Y-110682914D01*
X164010594Y-110682914D02*
X163962975Y-110587676D01*
X163962975Y-110587676D02*
X163867737Y-110492438D01*
X163867737Y-110492438D02*
X163724880Y-110444819D01*
X163724880Y-110444819D02*
X163629642Y-110444819D01*
X163629642Y-110444819D02*
X163486785Y-110492438D01*
X163486785Y-110492438D02*
X163439166Y-110540057D01*
X163105832Y-110444819D02*
X162439166Y-110444819D01*
X162439166Y-110444819D02*
X162867737Y-111444819D01*
X156863333Y-120784819D02*
X156863333Y-121499104D01*
X156863333Y-121499104D02*
X156910952Y-121641961D01*
X156910952Y-121641961D02*
X157006190Y-121737200D01*
X157006190Y-121737200D02*
X157149047Y-121784819D01*
X157149047Y-121784819D02*
X157244285Y-121784819D01*
X155863333Y-121784819D02*
X156434761Y-121784819D01*
X156149047Y-121784819D02*
X156149047Y-120784819D01*
X156149047Y-120784819D02*
X156244285Y-120927676D01*
X156244285Y-120927676D02*
X156339523Y-121022914D01*
X156339523Y-121022914D02*
X156434761Y-121070533D01*
X163573333Y-64554819D02*
X163573333Y-65269104D01*
X163573333Y-65269104D02*
X163620952Y-65411961D01*
X163620952Y-65411961D02*
X163716190Y-65507200D01*
X163716190Y-65507200D02*
X163859047Y-65554819D01*
X163859047Y-65554819D02*
X163954285Y-65554819D01*
X163192380Y-64554819D02*
X162573333Y-64554819D01*
X162573333Y-64554819D02*
X162906666Y-64935771D01*
X162906666Y-64935771D02*
X162763809Y-64935771D01*
X162763809Y-64935771D02*
X162668571Y-64983390D01*
X162668571Y-64983390D02*
X162620952Y-65031009D01*
X162620952Y-65031009D02*
X162573333Y-65126247D01*
X162573333Y-65126247D02*
X162573333Y-65364342D01*
X162573333Y-65364342D02*
X162620952Y-65459580D01*
X162620952Y-65459580D02*
X162668571Y-65507200D01*
X162668571Y-65507200D02*
X162763809Y-65554819D01*
X162763809Y-65554819D02*
X163049523Y-65554819D01*
X163049523Y-65554819D02*
X163144761Y-65507200D01*
X163144761Y-65507200D02*
X163192380Y-65459580D01*
X154378094Y-120154819D02*
X154378094Y-119154819D01*
X154378094Y-119154819D02*
X154139999Y-119154819D01*
X154139999Y-119154819D02*
X153997142Y-119202438D01*
X153997142Y-119202438D02*
X153901904Y-119297676D01*
X153901904Y-119297676D02*
X153854285Y-119392914D01*
X153854285Y-119392914D02*
X153806666Y-119583390D01*
X153806666Y-119583390D02*
X153806666Y-119726247D01*
X153806666Y-119726247D02*
X153854285Y-119916723D01*
X153854285Y-119916723D02*
X153901904Y-120011961D01*
X153901904Y-120011961D02*
X153997142Y-120107200D01*
X153997142Y-120107200D02*
X154139999Y-120154819D01*
X154139999Y-120154819D02*
X154378094Y-120154819D01*
X153425713Y-119250057D02*
X153378094Y-119202438D01*
X153378094Y-119202438D02*
X153282856Y-119154819D01*
X153282856Y-119154819D02*
X153044761Y-119154819D01*
X153044761Y-119154819D02*
X152949523Y-119202438D01*
X152949523Y-119202438D02*
X152901904Y-119250057D01*
X152901904Y-119250057D02*
X152854285Y-119345295D01*
X152854285Y-119345295D02*
X152854285Y-119440533D01*
X152854285Y-119440533D02*
X152901904Y-119583390D01*
X152901904Y-119583390D02*
X153473332Y-120154819D01*
X153473332Y-120154819D02*
X152854285Y-120154819D01*
X143573333Y-64554819D02*
X143573333Y-65269104D01*
X143573333Y-65269104D02*
X143620952Y-65411961D01*
X143620952Y-65411961D02*
X143716190Y-65507200D01*
X143716190Y-65507200D02*
X143859047Y-65554819D01*
X143859047Y-65554819D02*
X143954285Y-65554819D01*
X143144761Y-64650057D02*
X143097142Y-64602438D01*
X143097142Y-64602438D02*
X143001904Y-64554819D01*
X143001904Y-64554819D02*
X142763809Y-64554819D01*
X142763809Y-64554819D02*
X142668571Y-64602438D01*
X142668571Y-64602438D02*
X142620952Y-64650057D01*
X142620952Y-64650057D02*
X142573333Y-64745295D01*
X142573333Y-64745295D02*
X142573333Y-64840533D01*
X142573333Y-64840533D02*
X142620952Y-64983390D01*
X142620952Y-64983390D02*
X143192380Y-65554819D01*
X143192380Y-65554819D02*
X142573333Y-65554819D01*
D12*
G04 #@! TO.C,C7*
X159622500Y-111830000D02*
X167862500Y-111830000D01*
X167862500Y-111830000D02*
X167862500Y-116350000D01*
X167862500Y-116350000D02*
X159622500Y-116350000D01*
G04 #@! TO.C,J1*
X159005000Y-119490000D02*
X160805000Y-119490000D01*
X159005000Y-120940000D02*
X159005000Y-119490000D01*
X165675000Y-119490000D02*
X165675000Y-118500000D01*
X166205000Y-123760000D02*
X160275000Y-123760000D01*
X167475000Y-119490000D02*
X165675000Y-119490000D01*
X167475000Y-120940000D02*
X167475000Y-119490000D01*
G04 #@! TO.C,J3*
X156505000Y-61460000D02*
X156505000Y-62910000D01*
X156505000Y-62910000D02*
X158305000Y-62910000D01*
X157775000Y-58640000D02*
X168705000Y-58640000D01*
X158305000Y-62910000D02*
X158305000Y-63900000D01*
X169975000Y-61460000D02*
X169975000Y-62910000D01*
X169975000Y-62910000D02*
X168175000Y-62910000D01*
G04 #@! TO.C,D2*
X150130000Y-115550000D02*
X155640000Y-115550000D01*
X150130000Y-118850000D02*
X150130000Y-115550000D01*
X150130000Y-118850000D02*
X155640000Y-118850000D01*
G04 #@! TO.C,J2*
X136505000Y-61460000D02*
X136505000Y-62910000D01*
X136505000Y-62910000D02*
X138305000Y-62910000D01*
X137775000Y-58640000D02*
X148705000Y-58640000D01*
X138305000Y-62910000D02*
X138305000Y-63900000D01*
X149975000Y-61460000D02*
X149975000Y-62910000D01*
X149975000Y-62910000D02*
X148175000Y-62910000D01*
G04 #@! TD*
%LPC*%
D13*
G04 #@! TO.C,H1*
X123240000Y-61200000D03*
G04 #@! TD*
G04 #@! TO.C,H2*
X183240000Y-61200000D03*
G04 #@! TD*
G04 #@! TO.C,H3*
X183240000Y-121200000D03*
G04 #@! TD*
G04 #@! TO.C,H4*
X123240000Y-121200000D03*
G04 #@! TD*
D14*
G04 #@! TO.C,C7*
X166480000Y-114090000D03*
X160065000Y-114090000D03*
G04 #@! TD*
D15*
G04 #@! TO.C,J1*
X165115000Y-119350000D03*
X163865000Y-119350000D03*
X162615000Y-119350000D03*
X161365000Y-119350000D03*
D16*
X166965000Y-122550000D03*
X159515000Y-122550000D03*
G04 #@! TD*
D17*
G04 #@! TO.C,J3*
X158865000Y-63050000D03*
X160115000Y-63050000D03*
X161365000Y-63050000D03*
X162615000Y-63050000D03*
X163865000Y-63050000D03*
X165115000Y-63050000D03*
X166365000Y-63050000D03*
X167615000Y-63050000D03*
D18*
X157015000Y-59850000D03*
X169465000Y-59850000D03*
G04 #@! TD*
D19*
G04 #@! TO.C,D2*
X151640000Y-117200000D03*
X155640000Y-117200000D03*
G04 #@! TD*
D17*
G04 #@! TO.C,J2*
X138865000Y-63050000D03*
X140115000Y-63050000D03*
X141365000Y-63050000D03*
X142615000Y-63050000D03*
X143865000Y-63050000D03*
X145115000Y-63050000D03*
X146365000Y-63050000D03*
X147615000Y-63050000D03*
D18*
X137015000Y-59850000D03*
X149465000Y-59850000D03*
G04 #@! TD*
%LPD*%
M02*
